<?xml version="1.0" encoding="utf-8" standalone="no"?>
<!DOCTYPE svg PUBLIC "-//W3C//DTD SVG 1.1//EN"
  "http://www.w3.org/Graphics/SVG/1.1/DTD/svg11.dtd">
<!-- Created with matplotlib (https://matplotlib.org/) -->
<svg height="288pt" version="1.1" viewBox="0 0 432 288" width="432pt" xmlns="http://www.w3.org/2000/svg" xmlns:xlink="http://www.w3.org/1999/xlink">
 <defs>
  <style type="text/css">
*{stroke-linecap:butt;stroke-linejoin:round;}
  </style>
 </defs>
 <g id="figure_1">
  <g id="patch_1">
   <path d="M 0 288 
L 432 288 
L 432 0 
L 0 0 
z
" style="fill:#ffffff;"/>
  </g>
  <g id="axes_1">
   <g id="patch_2">
    <path d="M 54 252 
L 388.8 252 
L 388.8 34.56 
L 54 34.56 
z
" style="fill:#ffffff;"/>
   </g>
   <g id="matplotlib.axis_1">
    <g id="xtick_1">
     <g id="line2d_1">
      <defs>
       <path d="M 0 0 
L 0 3.5 
" id="mf730de3555" style="stroke:#000000;stroke-width:0.8;"/>
      </defs>
      <g>
       <use style="stroke:#000000;stroke-width:0.8;" x="69.218182" xlink:href="#mf730de3555" y="252"/>
      </g>
     </g>
     <g id="text_1">
      <!-- 0 -->
      <defs>
       <path d="M 4.4375 36.328125 
Q 4.4375 56.34375 11.078125 66.625 
Q 17.71875 76.90625 30.328125 76.90625 
Q 54.34375 76.90625 54.34375 38.140625 
Q 54.34375 19 47.578125 8.859375 
Q 40.828125 -1.265625 28.609375 -1.265625 
Q 17.09375 -1.265625 10.765625 8.34375 
Q 4.4375 17.96875 4.4375 36.328125 
z
M 14.203125 36.765625 
Q 14.203125 6.640625 29.5 6.640625 
Q 44.53125 6.640625 44.53125 37.25 
Q 44.53125 68.953125 29.78125 68.953125 
Q 14.203125 68.953125 14.203125 36.765625 
z
" id="MicrosoftYaHei-48"/>
      </defs>
      <g transform="translate(66.286151 266.99375)scale(0.1 -0.1)">
       <use xlink:href="#MicrosoftYaHei-48"/>
      </g>
     </g>
    </g>
    <g id="xtick_2">
     <g id="line2d_2">
      <g>
       <use style="stroke:#000000;stroke-width:0.8;" x="117.659159" xlink:href="#mf730de3555" y="252"/>
      </g>
     </g>
     <g id="text_2">
      <!-- 2 -->
      <defs>
       <path d="M 41.65625 55.8125 
Q 41.65625 61.921875 37.796875 65.40625 
Q 33.9375 68.890625 27.296875 68.890625 
Q 22.609375 68.890625 17.8125 66.5 
Q 13.03125 64.109375 8.890625 59.671875 
L 8.890625 68.953125 
Q 12.59375 72.796875 17.296875 74.84375 
Q 22.015625 76.90625 28.375 76.90625 
Q 38.625 76.90625 44.875 71.40625 
Q 51.125 65.921875 51.125 56.546875 
Q 51.125 48.1875 47.28125 42.078125 
Q 43.453125 35.984375 34.1875 29.59375 
Q 24.703125 23.046875 21.5 20.21875 
Q 18.3125 17.390625 17.03125 14.796875 
Q 15.765625 12.203125 15.765625 8.5 
L 53.375 8.5 
L 53.375 0 
L 5.8125 0 
L 5.8125 3.765625 
Q 5.8125 10.296875 7.59375 14.859375 
Q 9.375 19.4375 13.46875 23.75 
Q 17.578125 28.078125 26.265625 34.125 
Q 35.15625 40.375 38.40625 45.09375 
Q 41.65625 49.8125 41.65625 55.8125 
z
" id="MicrosoftYaHei-50"/>
      </defs>
      <g transform="translate(114.727128 266.99375)scale(0.1 -0.1)">
       <use xlink:href="#MicrosoftYaHei-50"/>
      </g>
     </g>
    </g>
    <g id="xtick_3">
     <g id="line2d_3">
      <g>
       <use style="stroke:#000000;stroke-width:0.8;" x="166.100136" xlink:href="#mf730de3555" y="252"/>
      </g>
     </g>
     <g id="text_3">
      <!-- 4 -->
      <defs>
       <path d="M 45.40625 75.640625 
L 45.40625 25.6875 
L 56.734375 25.6875 
L 56.734375 17.78125 
L 45.40625 17.78125 
L 45.40625 0 
L 36.140625 0 
L 36.140625 17.78125 
L 0.828125 17.78125 
L 0.828125 25.25 
Q 10.25 35.84375 19.765625 49.65625 
Q 29.296875 63.484375 35.5 75.640625 
z
M 11.578125 25.6875 
L 36.140625 25.6875 
L 36.140625 61.71875 
Q 31.0625 52.59375 25.25 44.015625 
Q 19.4375 35.453125 11.578125 25.6875 
z
" id="MicrosoftYaHei-52"/>
      </defs>
      <g transform="translate(163.168105 266.99375)scale(0.1 -0.1)">
       <use xlink:href="#MicrosoftYaHei-52"/>
      </g>
     </g>
    </g>
    <g id="xtick_4">
     <g id="line2d_4">
      <g>
       <use style="stroke:#000000;stroke-width:0.8;" x="214.541113" xlink:href="#mf730de3555" y="252"/>
      </g>
     </g>
     <g id="text_4">
      <!-- 6 -->
      <defs>
       <path d="M 49.703125 65.921875 
Q 43.796875 68.953125 37.359375 68.953125 
Q 27.546875 68.953125 21.578125 60.40625 
Q 15.625 51.859375 15.53125 37.0625 
L 15.765625 37.0625 
Q 21.140625 47.46875 32.90625 47.46875 
Q 42.71875 47.46875 48.578125 41.0625 
Q 54.4375 34.671875 54.4375 24.078125 
Q 54.4375 12.984375 47.671875 5.859375 
Q 40.921875 -1.265625 30.421875 -1.265625 
Q 18.890625 -1.265625 12.328125 7.734375 
Q 5.765625 16.75 5.765625 33.296875 
Q 5.765625 53.328125 14.375 65.109375 
Q 23 76.90625 37.0625 76.90625 
Q 45.125 76.90625 49.703125 74.703125 
z
M 16.109375 24.75 
Q 16.109375 17.28125 20.09375 11.953125 
Q 24.078125 6.640625 30.671875 6.640625 
Q 36.921875 6.640625 40.828125 11.234375 
Q 44.734375 15.828125 44.734375 23.046875 
Q 44.734375 30.859375 41.046875 35.203125 
Q 37.359375 39.546875 30.5625 39.546875 
Q 24.125 39.546875 20.109375 35.15625 
Q 16.109375 30.765625 16.109375 24.75 
z
" id="MicrosoftYaHei-54"/>
      </defs>
      <g transform="translate(211.609082 266.99375)scale(0.1 -0.1)">
       <use xlink:href="#MicrosoftYaHei-54"/>
      </g>
     </g>
    </g>
    <g id="xtick_5">
     <g id="line2d_5">
      <g>
       <use style="stroke:#000000;stroke-width:0.8;" x="262.982091" xlink:href="#mf730de3555" y="252"/>
      </g>
     </g>
     <g id="text_5">
      <!-- 8 -->
      <defs>
       <path d="M 4.78125 21.09375 
Q 4.78125 27.640625 8.6875 33.15625 
Q 12.59375 38.671875 18.75 41.015625 
Q 13.8125 43.796875 10.9375 48.140625 
Q 8.0625 52.484375 8.0625 57.5625 
Q 8.0625 62.9375 10.8125 67.375 
Q 13.578125 71.828125 18.484375 74.359375 
Q 23.390625 76.90625 29.296875 76.90625 
Q 35.25 76.90625 40.1875 74.390625 
Q 45.125 71.875 47.859375 67.421875 
Q 50.59375 62.984375 50.59375 57.5625 
Q 50.59375 52.59375 47.78125 48.21875 
Q 44.96875 43.84375 39.984375 41.015625 
Q 46.140625 38.625 50 33.109375 
Q 53.859375 27.59375 53.859375 21.09375 
Q 53.859375 14.65625 50.78125 9.546875 
Q 47.703125 4.4375 42.03125 1.609375 
Q 36.375 -1.21875 29.296875 -1.21875 
Q 22.265625 -1.21875 16.640625 1.609375 
Q 11.03125 4.4375 7.90625 9.5625 
Q 4.78125 14.703125 4.78125 21.09375 
z
M 14.15625 21.53125 
Q 14.15625 14.796875 18.3125 10.734375 
Q 22.46875 6.6875 29.34375 6.6875 
Q 36.078125 6.6875 40.34375 10.8125 
Q 44.625 14.9375 44.625 21.53125 
Q 44.625 27.78125 40.296875 32.046875 
Q 35.984375 36.328125 29.34375 36.328125 
Q 22.75 36.328125 18.453125 32.15625 
Q 14.15625 27.984375 14.15625 21.53125 
z
M 16.890625 56.78125 
Q 16.890625 51.703125 20.5 48.0625 
Q 24.125 44.4375 29.34375 44.4375 
Q 34.46875 44.4375 38.203125 48.09375 
Q 41.9375 51.765625 41.9375 56.78125 
Q 41.9375 61.921875 38.34375 65.484375 
Q 34.765625 69.046875 29.34375 69.046875 
Q 23.96875 69.046875 20.421875 65.546875 
Q 16.890625 62.0625 16.890625 56.78125 
z
" id="MicrosoftYaHei-56"/>
      </defs>
      <g transform="translate(260.050059 266.99375)scale(0.1 -0.1)">
       <use xlink:href="#MicrosoftYaHei-56"/>
      </g>
     </g>
    </g>
    <g id="xtick_6">
     <g id="line2d_6">
      <g>
       <use style="stroke:#000000;stroke-width:0.8;" x="311.423068" xlink:href="#mf730de3555" y="252"/>
      </g>
     </g>
     <g id="text_6">
      <!-- 10 -->
      <defs>
       <path d="M 27.828125 0 
L 27.828125 64.703125 
Q 25.59375 62.453125 20.234375 59.671875 
Q 14.890625 56.890625 10.359375 55.765625 
L 10.359375 65.140625 
Q 16.359375 66.796875 23.1875 70.4375 
Q 30.03125 74.078125 33.6875 77.296875 
L 37.3125 77.296875 
L 37.3125 0 
z
" id="MicrosoftYaHei-49"/>
      </defs>
      <g transform="translate(305.559005 266.99375)scale(0.1 -0.1)">
       <use xlink:href="#MicrosoftYaHei-49"/>
       <use x="58.642578" xlink:href="#MicrosoftYaHei-48"/>
      </g>
     </g>
    </g>
    <g id="xtick_7">
     <g id="line2d_7">
      <g>
       <use style="stroke:#000000;stroke-width:0.8;" x="359.864045" xlink:href="#mf730de3555" y="252"/>
      </g>
     </g>
     <g id="text_7">
      <!-- 12 -->
      <g transform="translate(353.999983 266.99375)scale(0.1 -0.1)">
       <use xlink:href="#MicrosoftYaHei-49"/>
       <use x="58.642578" xlink:href="#MicrosoftYaHei-50"/>
      </g>
     </g>
    </g>
   </g>
   <g id="matplotlib.axis_2">
    <g id="ytick_1">
     <g id="line2d_8">
      <defs>
       <path d="M 0 0 
L -3.5 0 
" id="mcf7d29613f" style="stroke:#000000;stroke-width:0.8;"/>
      </defs>
      <g>
       <use style="stroke:#000000;stroke-width:0.8;" x="54" xlink:href="#mcf7d29613f" y="242.16717"/>
      </g>
     </g>
     <g id="text_8">
      <!-- -1.00 -->
      <defs>
       <path d="M 36.375 26.265625 
L 7.625 26.265625 
L 7.625 33.640625 
L 36.375 33.640625 
z
" id="MicrosoftYaHei-45"/>
       <path d="M 5.8125 5.03125 
Q 5.8125 7.671875 7.609375 9.46875 
Q 9.421875 11.28125 12.109375 11.28125 
Q 14.84375 11.28125 16.640625 9.453125 
Q 18.453125 7.625 18.453125 5.03125 
Q 18.453125 2.484375 16.640625 0.65625 
Q 14.84375 -1.171875 12.0625 -1.171875 
Q 9.375 -1.171875 7.59375 0.65625 
Q 5.8125 2.484375 5.8125 5.03125 
z
" id="MicrosoftYaHei-46"/>
      </defs>
      <g transform="translate(22.673437 246.164045)scale(0.1 -0.1)">
       <use xlink:href="#MicrosoftYaHei-45"/>
       <use x="43.261719" xlink:href="#MicrosoftYaHei-49"/>
       <use x="101.904297" xlink:href="#MicrosoftYaHei-46"/>
       <use x="125.976562" xlink:href="#MicrosoftYaHei-48"/>
       <use x="184.619141" xlink:href="#MicrosoftYaHei-48"/>
      </g>
     </g>
    </g>
    <g id="ytick_2">
     <g id="line2d_9">
      <g>
       <use style="stroke:#000000;stroke-width:0.8;" x="54" xlink:href="#mcf7d29613f" y="217.445378"/>
      </g>
     </g>
     <g id="text_9">
      <!-- -0.75 -->
      <defs>
       <path d="M 53.46875 69.734375 
Q 41.546875 48.921875 34.734375 31.21875 
Q 27.9375 13.53125 26.3125 0 
L 16.359375 0 
Q 18.171875 13.328125 24.90625 30.421875 
Q 31.640625 47.515625 42.921875 67.1875 
L 5.421875 67.1875 
L 5.421875 75.640625 
L 53.46875 75.640625 
z
" id="MicrosoftYaHei-55"/>
       <path d="M 51.46875 23.34375 
Q 51.46875 12.25 44.109375 5.46875 
Q 36.765625 -1.3125 24.359375 -1.3125 
Q 13.71875 -1.3125 8.5 1.859375 
L 8.5 11.625 
Q 16.15625 6.640625 24.125 6.640625 
Q 32.03125 6.640625 36.890625 11 
Q 41.75 15.375 41.75 22.609375 
Q 41.75 29.828125 36.6875 33.859375 
Q 31.640625 37.890625 22.40625 37.890625 
Q 15.28125 37.890625 9.578125 37.25 
L 12.359375 75.640625 
L 47.703125 75.640625 
L 47.703125 67.234375 
L 20.40625 67.234375 
L 18.84375 45.796875 
L 25.734375 46.09375 
Q 37.75 46.09375 44.609375 40.109375 
Q 51.46875 34.125 51.46875 23.34375 
z
" id="MicrosoftYaHei-53"/>
      </defs>
      <g transform="translate(22.673437 221.442253)scale(0.1 -0.1)">
       <use xlink:href="#MicrosoftYaHei-45"/>
       <use x="43.261719" xlink:href="#MicrosoftYaHei-48"/>
       <use x="101.904297" xlink:href="#MicrosoftYaHei-46"/>
       <use x="125.976562" xlink:href="#MicrosoftYaHei-55"/>
       <use x="184.619141" xlink:href="#MicrosoftYaHei-53"/>
      </g>
     </g>
    </g>
    <g id="ytick_3">
     <g id="line2d_10">
      <g>
       <use style="stroke:#000000;stroke-width:0.8;" x="54" xlink:href="#mcf7d29613f" y="192.723585"/>
      </g>
     </g>
     <g id="text_10">
      <!-- -0.50 -->
      <g transform="translate(22.673437 196.72046)scale(0.1 -0.1)">
       <use xlink:href="#MicrosoftYaHei-45"/>
       <use x="43.261719" xlink:href="#MicrosoftYaHei-48"/>
       <use x="101.904297" xlink:href="#MicrosoftYaHei-46"/>
       <use x="125.976562" xlink:href="#MicrosoftYaHei-53"/>
       <use x="184.619141" xlink:href="#MicrosoftYaHei-48"/>
      </g>
     </g>
    </g>
    <g id="ytick_4">
     <g id="line2d_11">
      <g>
       <use style="stroke:#000000;stroke-width:0.8;" x="54" xlink:href="#mcf7d29613f" y="168.001793"/>
      </g>
     </g>
     <g id="text_11">
      <!-- -0.25 -->
      <g transform="translate(22.673437 171.998668)scale(0.1 -0.1)">
       <use xlink:href="#MicrosoftYaHei-45"/>
       <use x="43.261719" xlink:href="#MicrosoftYaHei-48"/>
       <use x="101.904297" xlink:href="#MicrosoftYaHei-46"/>
       <use x="125.976562" xlink:href="#MicrosoftYaHei-50"/>
       <use x="184.619141" xlink:href="#MicrosoftYaHei-53"/>
      </g>
     </g>
    </g>
    <g id="ytick_5">
     <g id="line2d_12">
      <g>
       <use style="stroke:#000000;stroke-width:0.8;" x="54" xlink:href="#mcf7d29613f" y="143.28"/>
      </g>
     </g>
     <g id="text_12">
      <!-- 0.00 -->
      <g transform="translate(27 147.276875)scale(0.1 -0.1)">
       <use xlink:href="#MicrosoftYaHei-48"/>
       <use x="58.642578" xlink:href="#MicrosoftYaHei-46"/>
       <use x="82.714844" xlink:href="#MicrosoftYaHei-48"/>
       <use x="141.357422" xlink:href="#MicrosoftYaHei-48"/>
      </g>
     </g>
    </g>
    <g id="ytick_6">
     <g id="line2d_13">
      <g>
       <use style="stroke:#000000;stroke-width:0.8;" x="54" xlink:href="#mcf7d29613f" y="118.558207"/>
      </g>
     </g>
     <g id="text_13">
      <!-- 0.25 -->
      <g transform="translate(27 122.555082)scale(0.1 -0.1)">
       <use xlink:href="#MicrosoftYaHei-48"/>
       <use x="58.642578" xlink:href="#MicrosoftYaHei-46"/>
       <use x="82.714844" xlink:href="#MicrosoftYaHei-50"/>
       <use x="141.357422" xlink:href="#MicrosoftYaHei-53"/>
      </g>
     </g>
    </g>
    <g id="ytick_7">
     <g id="line2d_14">
      <g>
       <use style="stroke:#000000;stroke-width:0.8;" x="54" xlink:href="#mcf7d29613f" y="93.836415"/>
      </g>
     </g>
     <g id="text_14">
      <!-- 0.50 -->
      <g transform="translate(27 97.83329)scale(0.1 -0.1)">
       <use xlink:href="#MicrosoftYaHei-48"/>
       <use x="58.642578" xlink:href="#MicrosoftYaHei-46"/>
       <use x="82.714844" xlink:href="#MicrosoftYaHei-53"/>
       <use x="141.357422" xlink:href="#MicrosoftYaHei-48"/>
      </g>
     </g>
    </g>
    <g id="ytick_8">
     <g id="line2d_15">
      <g>
       <use style="stroke:#000000;stroke-width:0.8;" x="54" xlink:href="#mcf7d29613f" y="69.114622"/>
      </g>
     </g>
     <g id="text_15">
      <!-- 0.75 -->
      <g transform="translate(27 73.111497)scale(0.1 -0.1)">
       <use xlink:href="#MicrosoftYaHei-48"/>
       <use x="58.642578" xlink:href="#MicrosoftYaHei-46"/>
       <use x="82.714844" xlink:href="#MicrosoftYaHei-55"/>
       <use x="141.357422" xlink:href="#MicrosoftYaHei-53"/>
      </g>
     </g>
    </g>
    <g id="ytick_9">
     <g id="line2d_16">
      <g>
       <use style="stroke:#000000;stroke-width:0.8;" x="54" xlink:href="#mcf7d29613f" y="44.39283"/>
      </g>
     </g>
     <g id="text_16">
      <!-- 1.00 -->
      <g transform="translate(27 48.389705)scale(0.1 -0.1)">
       <use xlink:href="#MicrosoftYaHei-49"/>
       <use x="58.642578" xlink:href="#MicrosoftYaHei-46"/>
       <use x="82.714844" xlink:href="#MicrosoftYaHei-48"/>
       <use x="141.357422" xlink:href="#MicrosoftYaHei-48"/>
      </g>
     </g>
    </g>
   </g>
   <g id="line2d_17">
    <path clip-path="url(#pd3bb5286f0)" d="M 69.218182 143.28 
L 75.429685 118.196816 
L 81.641187 94.75433 
L 87.85269 74.485921 
L 94.064193 58.717352 
L 100.275696 48.480049 
L 106.487199 44.443636 
L 112.698701 46.872138 
L 118.910204 55.606703 
L 125.121707 70.076004 
L 131.33321 89.333597 
L 137.544712 112.11984 
L 143.756215 136.944277 
L 149.967718 162.183136 
L 156.179221 186.185535 
L 162.390724 207.381472 
L 168.602226 224.384513 
L 174.813729 236.082487 
L 181.025232 241.710224 
L 187.236735 240.899613 
L 193.448237 233.703677 
L 199.65974 220.593103 
L 205.871243 202.425458 
L 212.082746 180.389092 
L 218.294249 155.925411 
L 224.505751 130.634589 
L 230.717254 106.170908 
L 236.928757 84.134542 
L 243.14026 65.966897 
L 249.351763 52.856323 
L 255.563265 45.660387 
L 261.774768 44.849776 
L 267.986271 50.477513 
L 274.197774 62.175487 
L 280.409276 79.178528 
L 286.620779 100.374465 
L 292.832282 124.376864 
L 299.043785 149.615723 
L 305.255288 174.44016 
L 311.46679 197.226403 
L 317.678293 216.483996 
L 323.889796 230.953297 
L 330.101299 239.687862 
L 336.312801 242.116364 
L 342.524304 238.079951 
L 348.735807 227.842648 
L 354.94731 212.074079 
L 361.158813 191.80567 
L 367.370315 168.363184 
L 373.581818 143.28 
" style="fill:none;stroke:#1f77b4;stroke-dasharray:19.2,4.8,3,4.8;stroke-dashoffset:0;stroke-width:3;"/>
   </g>
   <g id="patch_3">
    <path d="M 54 252 
L 54 34.56 
" style="fill:none;stroke:#000000;stroke-linecap:square;stroke-linejoin:miter;stroke-width:0.8;"/>
   </g>
   <g id="patch_4">
    <path d="M 388.8 252 
L 388.8 34.56 
" style="fill:none;stroke:#000000;stroke-linecap:square;stroke-linejoin:miter;stroke-width:0.8;"/>
   </g>
   <g id="patch_5">
    <path d="M 54 252 
L 388.8 252 
" style="fill:none;stroke:#000000;stroke-linecap:square;stroke-linejoin:miter;stroke-width:0.8;"/>
   </g>
   <g id="patch_6">
    <path d="M 54 34.56 
L 388.8 34.56 
" style="fill:none;stroke:#000000;stroke-linecap:square;stroke-linejoin:miter;stroke-width:0.8;"/>
   </g>
   <g id="text_17">
    <!-- sin曲线 -->
    <defs>
     <path d="M 5.515625 11.671875 
Q 12.75 6.453125 21.09375 6.453125 
Q 32.28125 6.453125 32.28125 13.765625 
Q 32.28125 16.890625 29.828125 18.921875 
Q 27.390625 20.953125 19.921875 23.734375 
Q 10.9375 27.34375 8.25 30.875 
Q 5.5625 34.421875 5.5625 39.453125 
Q 5.5625 46.625 11.640625 50.953125 
Q 17.71875 55.28125 26.609375 55.28125 
Q 33.5 55.28125 39.40625 52.875 
L 39.40625 43.65625 
Q 33.34375 47.5625 25.6875 47.5625 
Q 21.09375 47.5625 18.203125 45.5625 
Q 15.328125 43.5625 15.328125 40.28125 
Q 15.328125 37.0625 17.40625 35.25 
Q 19.484375 33.453125 26.609375 30.609375 
Q 35.640625 27.25 38.8125 23.625 
Q 42 20.015625 42 14.703125 
Q 42 7.28125 35.90625 3 
Q 29.828125 -1.265625 20.171875 -1.265625 
Q 11.765625 -1.265625 5.515625 1.90625 
z
" id="MicrosoftYaHei-115"/>
     <path d="M 7.375 73.046875 
Q 7.375 75.59375 9.109375 77.3125 
Q 10.84375 79.046875 13.375 79.046875 
Q 15.96875 79.046875 17.75 77.34375 
Q 19.53125 75.640625 19.53125 73.046875 
Q 19.53125 70.515625 17.75 68.828125 
Q 15.96875 67.140625 13.375 67.140625 
Q 10.796875 67.140625 9.078125 68.828125 
Q 7.375 70.515625 7.375 73.046875 
z
M 8.5 0 
L 8.5 54 
L 18.0625 54 
L 18.0625 0 
z
" id="MicrosoftYaHei-105"/>
     <path d="M 54.203125 0 
L 44.671875 0 
L 44.671875 30.71875 
Q 44.671875 47.359375 32.515625 47.359375 
Q 26.21875 47.359375 22.15625 42.671875 
Q 18.109375 37.984375 18.109375 30.8125 
L 18.109375 0 
L 8.546875 0 
L 8.546875 54 
L 18.109375 54 
L 18.109375 45.0625 
L 18.3125 45.0625 
Q 24.421875 55.28125 36.03125 55.28125 
Q 44.921875 55.28125 49.5625 49.578125 
Q 54.203125 43.890625 54.203125 33.015625 
z
" id="MicrosoftYaHei-110"/>
     <path d="M 33.796875 83.15625 
L 41.015625 83.15625 
L 41.015625 67.046875 
L 58.984375 67.046875 
L 58.984375 83.25 
L 66.21875 83.25 
L 66.21875 67.046875 
L 91.40625 67.046875 
L 91.40625 -12.84375 
L 84.1875 -12.84375 
L 84.1875 -6.390625 
L 15.828125 -6.390625 
L 15.828125 -12.84375 
L 8.59375 -12.84375 
L 8.59375 67.046875 
L 33.796875 67.046875 
z
M 15.828125 0.640625 
L 33.796875 0.640625 
L 33.796875 27.390625 
L 15.828125 27.390625 
z
M 66.21875 0.640625 
L 84.1875 0.640625 
L 84.1875 27.390625 
L 66.21875 27.390625 
z
M 41.015625 0.640625 
L 58.984375 0.640625 
L 58.984375 27.390625 
L 41.015625 27.390625 
z
M 15.828125 34.421875 
L 33.796875 34.421875 
L 33.796875 60.015625 
L 15.828125 60.015625 
z
M 84.1875 60.015625 
L 66.21875 60.015625 
L 66.21875 34.421875 
L 84.1875 34.421875 
z
M 41.015625 34.421875 
L 58.984375 34.421875 
L 58.984375 60.015625 
L 41.015625 60.015625 
z
" id="MicrosoftYaHei-26354"/>
     <path d="M 30.765625 -5.421875 
Q 49.125 1.171875 62.546875 9.859375 
Q 59.078125 18.703125 57.078125 30.8125 
L 36.234375 27.875 
L 35.0625 34.90625 
L 56.109375 37.84375 
Q 55.28125 44.671875 54.890625 52.4375 
L 37.203125 50.4375 
L 36.03125 57.46875 
L 54.5 59.515625 
Q 53.953125 69.671875 53.515625 82.859375 
L 61.53125 82.859375 
Q 61.765625 70.265625 62.15625 60.40625 
L 94.828125 64.109375 
L 95.703125 57.171875 
L 62.453125 53.328125 
Q 62.796875 45.609375 63.578125 38.875 
L 97.265625 43.609375 
L 98.140625 36.671875 
L 64.5 31.890625 
Q 66.15625 21.78125 69 14.3125 
Q 79.34375 22.125 86.234375 31.390625 
L 92.578125 26.609375 
Q 83.796875 16.015625 72.171875 7.421875 
Q 75.921875 0.6875 81.15625 -2.875 
Q 87.59375 -6.6875 89.453125 1.03125 
Q 90.71875 7.28125 91.5 14.890625 
Q 96 12.9375 99.03125 12.0625 
Q 97.359375 1.515625 95.703125 -3.859375 
Q 92.875 -12.15625 86.03125 -12.15625 
Q 78.90625 -12.15625 72.859375 -6.296875 
Q 68.890625 -2.546875 65.765625 3.03125 
Q 52.34375 -5.671875 35.640625 -12.0625 
Q 33.890625 -9.328125 30.765625 -5.421875 
z
M 14.0625 24.078125 
Q 22.75 25.34375 34.578125 27.390625 
Q 33.984375 23.78125 33.6875 19.875 
Q 17.390625 17.328125 5.078125 15.28125 
L 3.515625 22.609375 
Q 10.296875 29.890625 18.40625 43.359375 
Q 10.5 42.921875 3.515625 42.234375 
L 1.65625 48.875 
Q 10.75 61.28125 20.3125 83.640625 
L 27.734375 80.71875 
Q 17.671875 60.890625 10.453125 49.46875 
Q 16.265625 49.65625 22.21875 49.90625 
Q 25.59375 55.90625 29.203125 62.9375 
L 36.421875 59.328125 
Q 24.515625 38.71875 14.0625 24.078125 
z
M 1.65625 1.515625 
Q 18.84375 5.21875 36.421875 9.625 
Q 36.140625 5.71875 36.140625 2.203125 
Q 19.828125 -1.609375 3.8125 -5.90625 
z
M 69.734375 77.6875 
L 73.921875 82.5625 
Q 80.859375 78.171875 88.765625 72.015625 
L 84.078125 66.359375 
Q 75.984375 73.296875 69.734375 77.6875 
z
" id="MicrosoftYaHei-32447"/>
    </defs>
    <g transform="translate(201.328125 28.56)scale(0.12 -0.12)">
     <use xlink:href="#MicrosoftYaHei-115"/>
     <use x="46.289062" xlink:href="#MicrosoftYaHei-105"/>
     <use x="72.900391" xlink:href="#MicrosoftYaHei-110"/>
     <use x="134.521484" xlink:href="#MicrosoftYaHei-26354"/>
     <use x="234.521484" xlink:href="#MicrosoftYaHei-32447"/>
    </g>
   </g>
  </g>
 </g>
 <defs>
  <clipPath id="pd3bb5286f0">
   <rect height="217.44" width="334.8" x="54" y="34.56"/>
  </clipPath>
 </defs>
</svg>
