<?xml version="1.0" encoding="utf-8" standalone="no"?>
<!DOCTYPE svg PUBLIC "-//W3C//DTD SVG 1.1//EN"
  "http://www.w3.org/Graphics/SVG/1.1/DTD/svg11.dtd">
<!-- Created with matplotlib (https://matplotlib.org/) -->
<svg height="504pt" version="1.1" viewBox="0 0 576 504" width="576pt" xmlns="http://www.w3.org/2000/svg" xmlns:xlink="http://www.w3.org/1999/xlink">
 <defs>
  <style type="text/css">
*{stroke-linecap:butt;stroke-linejoin:round;}
  </style>
 </defs>
 <g id="figure_1">
  <g id="patch_1">
   <path d="M 0 504 
L 576 504 
L 576 0 
L 0 0 
z
" style="fill:#ffffff;"/>
  </g>
  <g id="axes_1">
   <g id="patch_2">
    <path d="M 72 441 
L 518.4 441 
L 518.4 60.48 
L 72 60.48 
z
" style="fill:#ffffff;"/>
   </g>
   <g id="PathCollection_1">
    <defs>
     <path d="M 0 3 
C 0.795609 3 1.55874 2.683901 2.12132 2.12132 
C 2.683901 1.55874 3 0.795609 3 0 
C 3 -0.795609 2.683901 -1.55874 2.12132 -2.12132 
C 1.55874 -2.683901 0.795609 -3 0 -3 
C -0.795609 -3 -1.55874 -2.683901 -2.12132 -2.12132 
C -2.683901 -1.55874 -3 -0.795609 -3 0 
C -3 0.795609 -2.683901 1.55874 -2.12132 2.12132 
C -1.55874 2.683901 -0.795609 3 0 3 
z
" id="mf889cae123" style="stroke:#ff0000;"/>
    </defs>
    <g clip-path="url(#p8a6028cdc9)">
     <use style="fill:#ff0000;stroke:#ff0000;" x="96.447462" xlink:href="#mf889cae123" y="423.703609"/>
     <use style="fill:#ff0000;stroke:#ff0000;" x="102.293124" xlink:href="#mf889cae123" y="419.439369"/>
     <use style="fill:#ff0000;stroke:#ff0000;" x="108.138787" xlink:href="#mf889cae123" y="416.087749"/>
     <use style="fill:#ff0000;stroke:#ff0000;" x="113.98445" xlink:href="#mf889cae123" y="411.415133"/>
     <use style="fill:#ff0000;stroke:#ff0000;" x="119.830113" xlink:href="#mf889cae123" y="423.338561"/>
     <use style="fill:#ff0000;stroke:#ff0000;" x="125.675776" xlink:href="#mf889cae123" y="419.177353"/>
     <use style="fill:#ff0000;stroke:#ff0000;" x="131.521439" xlink:href="#mf889cae123" y="415.019216"/>
     <use style="fill:#ff0000;stroke:#ff0000;" x="137.367102" xlink:href="#mf889cae123" y="410.431891"/>
     <use style="fill:#ff0000;stroke:#ff0000;" x="143.212765" xlink:href="#mf889cae123" y="422.887198"/>
     <use style="fill:#ff0000;stroke:#ff0000;" x="149.058428" xlink:href="#mf889cae123" y="418.662874"/>
     <use style="fill:#ff0000;stroke:#ff0000;" x="154.904091" xlink:href="#mf889cae123" y="414.07282"/>
     <use style="fill:#ff0000;stroke:#ff0000;" x="160.749753" xlink:href="#mf889cae123" y="409.997927"/>
     <use style="fill:#ff0000;stroke:#ff0000;" x="166.595416" xlink:href="#mf889cae123" y="422.631664"/>
     <use style="fill:#ff0000;stroke:#ff0000;" x="172.441079" xlink:href="#mf889cae123" y="418.453398"/>
     <use style="fill:#ff0000;stroke:#ff0000;" x="178.286742" xlink:href="#mf889cae123" y="412.998487"/>
     <use style="fill:#ff0000;stroke:#ff0000;" x="184.132405" xlink:href="#mf889cae123" y="408.876172"/>
     <use style="fill:#ff0000;stroke:#ff0000;" x="189.978068" xlink:href="#mf889cae123" y="421.290539"/>
     <use style="fill:#ff0000;stroke:#ff0000;" x="195.823731" xlink:href="#mf889cae123" y="415.712807"/>
     <use style="fill:#ff0000;stroke:#ff0000;" x="201.669394" xlink:href="#mf889cae123" y="408.520676"/>
     <use style="fill:#ff0000;stroke:#ff0000;" x="207.515057" xlink:href="#mf889cae123" y="404.013525"/>
     <use style="fill:#ff0000;stroke:#ff0000;" x="213.360719" xlink:href="#mf889cae123" y="420.374848"/>
     <use style="fill:#ff0000;stroke:#ff0000;" x="219.206382" xlink:href="#mf889cae123" y="415.071073"/>
     <use style="fill:#ff0000;stroke:#ff0000;" x="225.052045" xlink:href="#mf889cae123" y="407.943763"/>
     <use style="fill:#ff0000;stroke:#ff0000;" x="230.897708" xlink:href="#mf889cae123" y="403.069517"/>
     <use style="fill:#ff0000;stroke:#ff0000;" x="236.743371" xlink:href="#mf889cae123" y="419.935766"/>
     <use style="fill:#ff0000;stroke:#ff0000;" x="242.589034" xlink:href="#mf889cae123" y="414.008681"/>
     <use style="fill:#ff0000;stroke:#ff0000;" x="248.434697" xlink:href="#mf889cae123" y="406.544981"/>
     <use style="fill:#ff0000;stroke:#ff0000;" x="254.28036" xlink:href="#mf889cae123" y="400.817136"/>
     <use style="fill:#ff0000;stroke:#ff0000;" x="260.126023" xlink:href="#mf889cae123" y="418.319661"/>
     <use style="fill:#ff0000;stroke:#ff0000;" x="265.971686" xlink:href="#mf889cae123" y="411.339053"/>
     <use style="fill:#ff0000;stroke:#ff0000;" x="271.817348" xlink:href="#mf889cae123" y="401.598407"/>
     <use style="fill:#ff0000;stroke:#ff0000;" x="277.663011" xlink:href="#mf889cae123" y="394.795888"/>
     <use style="fill:#ff0000;stroke:#ff0000;" x="283.508674" xlink:href="#mf889cae123" y="415.177517"/>
     <use style="fill:#ff0000;stroke:#ff0000;" x="289.354337" xlink:href="#mf889cae123" y="406.699529"/>
     <use style="fill:#ff0000;stroke:#ff0000;" x="295.2" xlink:href="#mf889cae123" y="396.398006"/>
     <use style="fill:#ff0000;stroke:#ff0000;" x="301.045663" xlink:href="#mf889cae123" y="390.838357"/>
     <use style="fill:#ff0000;stroke:#ff0000;" x="306.891326" xlink:href="#mf889cae123" y="415.062544"/>
     <use style="fill:#ff0000;stroke:#ff0000;" x="312.736989" xlink:href="#mf889cae123" y="406.376786"/>
     <use style="fill:#ff0000;stroke:#ff0000;" x="318.582652" xlink:href="#mf889cae123" y="395.531784"/>
     <use style="fill:#ff0000;stroke:#ff0000;" x="324.428314" xlink:href="#mf889cae123" y="387.336624"/>
     <use style="fill:#ff0000;stroke:#ff0000;" x="330.273977" xlink:href="#mf889cae123" y="413.344088"/>
     <use style="fill:#ff0000;stroke:#ff0000;" x="336.11964" xlink:href="#mf889cae123" y="403.005719"/>
     <use style="fill:#ff0000;stroke:#ff0000;" x="341.965303" xlink:href="#mf889cae123" y="389.566147"/>
     <use style="fill:#ff0000;stroke:#ff0000;" x="347.810966" xlink:href="#mf889cae123" y="380.648736"/>
     <use style="fill:#ff0000;stroke:#ff0000;" x="353.656629" xlink:href="#mf889cae123" y="410.537311"/>
     <use style="fill:#ff0000;stroke:#ff0000;" x="359.502292" xlink:href="#mf889cae123" y="398.054029"/>
     <use style="fill:#ff0000;stroke:#ff0000;" x="365.347955" xlink:href="#mf889cae123" y="381.492782"/>
     <use style="fill:#ff0000;stroke:#ff0000;" x="371.193618" xlink:href="#mf889cae123" y="373.279199"/>
     <use style="fill:#ff0000;stroke:#ff0000;" x="377.039281" xlink:href="#mf889cae123" y="407.400285"/>
     <use style="fill:#ff0000;stroke:#ff0000;" x="382.884943" xlink:href="#mf889cae123" y="395.142855"/>
     <use style="fill:#ff0000;stroke:#ff0000;" x="388.730606" xlink:href="#mf889cae123" y="378.367015"/>
     <use style="fill:#ff0000;stroke:#ff0000;" x="394.576269" xlink:href="#mf889cae123" y="366.284603"/>
     <use style="fill:#ff0000;stroke:#ff0000;" x="400.421932" xlink:href="#mf889cae123" y="405.753816"/>
     <use style="fill:#ff0000;stroke:#ff0000;" x="406.267595" xlink:href="#mf889cae123" y="393.223793"/>
     <use style="fill:#ff0000;stroke:#ff0000;" x="412.113258" xlink:href="#mf889cae123" y="373.603989"/>
     <use style="fill:#ff0000;stroke:#ff0000;" x="417.958921" xlink:href="#mf889cae123" y="359.5104"/>
     <use style="fill:#ff0000;stroke:#ff0000;" x="423.804584" xlink:href="#mf889cae123" y="404.654236"/>
     <use style="fill:#ff0000;stroke:#ff0000;" x="429.650247" xlink:href="#mf889cae123" y="390.456591"/>
     <use style="fill:#ff0000;stroke:#ff0000;" x="435.495909" xlink:href="#mf889cae123" y="369.910862"/>
     <use style="fill:#ff0000;stroke:#ff0000;" x="441.341572" xlink:href="#mf889cae123" y="356.785845"/>
     <use style="fill:#ff0000;stroke:#ff0000;" x="447.187235" xlink:href="#mf889cae123" y="403.704087"/>
     <use style="fill:#ff0000;stroke:#ff0000;" x="453.032898" xlink:href="#mf889cae123" y="387.613651"/>
     <use style="fill:#ff0000;stroke:#ff0000;" x="458.878561" xlink:href="#mf889cae123" y="368.505597"/>
     <use style="fill:#ff0000;stroke:#ff0000;" x="464.724224" xlink:href="#mf889cae123" y="353.39192"/>
     <use style="fill:#ff0000;stroke:#ff0000;" x="470.569887" xlink:href="#mf889cae123" y="400.181202"/>
     <use style="fill:#ff0000;stroke:#ff0000;" x="476.41555" xlink:href="#mf889cae123" y="384.860437"/>
     <use style="fill:#ff0000;stroke:#ff0000;" x="482.261213" xlink:href="#mf889cae123" y="366.86288"/>
     <use style="fill:#ff0000;stroke:#ff0000;" x="488.106876" xlink:href="#mf889cae123" y="351.728733"/>
     <use style="fill:#ff0000;stroke:#ff0000;" x="493.952538" xlink:href="#mf889cae123" y="400.68954"/>
    </g>
   </g>
   <g id="PathCollection_2">
    <defs>
     <path d="M 0 4.242641 
L 4.242641 0 
L 0 -4.242641 
L -4.242641 0 
z
" id="m710b362503" style="stroke:#0000ff;"/>
    </defs>
    <g clip-path="url(#p8a6028cdc9)">
     <use style="fill:#0000ff;stroke:#0000ff;" x="96.447462" xlink:href="#m710b362503" y="397.639511"/>
     <use style="fill:#0000ff;stroke:#0000ff;" x="102.293124" xlink:href="#m710b362503" y="392.250786"/>
     <use style="fill:#0000ff;stroke:#0000ff;" x="108.138787" xlink:href="#m710b362503" y="389.659626"/>
     <use style="fill:#0000ff;stroke:#0000ff;" x="113.98445" xlink:href="#m710b362503" y="385.51343"/>
     <use style="fill:#0000ff;stroke:#0000ff;" x="119.830113" xlink:href="#m710b362503" y="393.908173"/>
     <use style="fill:#0000ff;stroke:#0000ff;" x="125.675776" xlink:href="#m710b362503" y="388.206598"/>
     <use style="fill:#0000ff;stroke:#0000ff;" x="131.521439" xlink:href="#m710b362503" y="386.577869"/>
     <use style="fill:#0000ff;stroke:#0000ff;" x="137.367102" xlink:href="#m710b362503" y="382.73804"/>
     <use style="fill:#0000ff;stroke:#0000ff;" x="143.212765" xlink:href="#m710b362503" y="391.594041"/>
     <use style="fill:#0000ff;stroke:#0000ff;" x="149.058428" xlink:href="#m710b362503" y="384.838602"/>
     <use style="fill:#0000ff;stroke:#0000ff;" x="154.904091" xlink:href="#m710b362503" y="382.367875"/>
     <use style="fill:#0000ff;stroke:#0000ff;" x="160.749753" xlink:href="#m710b362503" y="377.466335"/>
     <use style="fill:#0000ff;stroke:#0000ff;" x="166.595416" xlink:href="#m710b362503" y="385.362293"/>
     <use style="fill:#0000ff;stroke:#0000ff;" x="172.441079" xlink:href="#m710b362503" y="378.288888"/>
     <use style="fill:#0000ff;stroke:#0000ff;" x="178.286742" xlink:href="#m710b362503" y="374.608042"/>
     <use style="fill:#0000ff;stroke:#0000ff;" x="184.132405" xlink:href="#m710b362503" y="368.694603"/>
     <use style="fill:#0000ff;stroke:#0000ff;" x="189.978068" xlink:href="#m710b362503" y="378.041201"/>
     <use style="fill:#0000ff;stroke:#0000ff;" x="195.823731" xlink:href="#m710b362503" y="368.511397"/>
     <use style="fill:#0000ff;stroke:#0000ff;" x="201.669394" xlink:href="#m710b362503" y="364.121266"/>
     <use style="fill:#0000ff;stroke:#0000ff;" x="207.515057" xlink:href="#m710b362503" y="356.740469"/>
     <use style="fill:#0000ff;stroke:#0000ff;" x="213.360719" xlink:href="#m710b362503" y="368.259957"/>
     <use style="fill:#0000ff;stroke:#0000ff;" x="219.206382" xlink:href="#m710b362503" y="357.116435"/>
     <use style="fill:#0000ff;stroke:#0000ff;" x="225.052045" xlink:href="#m710b362503" y="352.514781"/>
     <use style="fill:#0000ff;stroke:#0000ff;" x="230.897708" xlink:href="#m710b362503" y="342.45071"/>
     <use style="fill:#0000ff;stroke:#0000ff;" x="236.743371" xlink:href="#m710b362503" y="357.140658"/>
     <use style="fill:#0000ff;stroke:#0000ff;" x="242.589034" xlink:href="#m710b362503" y="342.959389"/>
     <use style="fill:#0000ff;stroke:#0000ff;" x="248.434697" xlink:href="#m710b362503" y="338.313384"/>
     <use style="fill:#0000ff;stroke:#0000ff;" x="254.28036" xlink:href="#m710b362503" y="326.395414"/>
     <use style="fill:#0000ff;stroke:#0000ff;" x="260.126023" xlink:href="#m710b362503" y="341.566065"/>
     <use style="fill:#0000ff;stroke:#0000ff;" x="265.971686" xlink:href="#m710b362503" y="324.01953"/>
     <use style="fill:#0000ff;stroke:#0000ff;" x="271.817348" xlink:href="#m710b362503" y="318.785695"/>
     <use style="fill:#0000ff;stroke:#0000ff;" x="277.663011" xlink:href="#m710b362503" y="304.45363"/>
     <use style="fill:#0000ff;stroke:#0000ff;" x="283.508674" xlink:href="#m710b362503" y="322.35839"/>
     <use style="fill:#0000ff;stroke:#0000ff;" x="289.354337" xlink:href="#m710b362503" y="299.720969"/>
     <use style="fill:#0000ff;stroke:#0000ff;" x="295.2" xlink:href="#m710b362503" y="297.515327"/>
     <use style="fill:#0000ff;stroke:#0000ff;" x="301.045663" xlink:href="#m710b362503" y="289.659968"/>
     <use style="fill:#0000ff;stroke:#0000ff;" x="306.891326" xlink:href="#m710b362503" y="319.165754"/>
     <use style="fill:#0000ff;stroke:#0000ff;" x="312.736989" xlink:href="#m710b362503" y="295.865105"/>
     <use style="fill:#0000ff;stroke:#0000ff;" x="318.582652" xlink:href="#m710b362503" y="289.26558"/>
     <use style="fill:#0000ff;stroke:#0000ff;" x="324.428314" xlink:href="#m710b362503" y="270.108056"/>
     <use style="fill:#0000ff;stroke:#0000ff;" x="330.273977" xlink:href="#m710b362503" y="295.913209"/>
     <use style="fill:#0000ff;stroke:#0000ff;" x="336.11964" xlink:href="#m710b362503" y="268.422694"/>
     <use style="fill:#0000ff;stroke:#0000ff;" x="341.965303" xlink:href="#m710b362503" y="263.3591"/>
     <use style="fill:#0000ff;stroke:#0000ff;" x="347.810966" xlink:href="#m710b362503" y="239.384988"/>
     <use style="fill:#0000ff;stroke:#0000ff;" x="353.656629" xlink:href="#m710b362503" y="269.200553"/>
     <use style="fill:#0000ff;stroke:#0000ff;" x="359.502292" xlink:href="#m710b362503" y="236.1422"/>
     <use style="fill:#0000ff;stroke:#0000ff;" x="365.347955" xlink:href="#m710b362503" y="230.210338"/>
     <use style="fill:#0000ff;stroke:#0000ff;" x="371.193618" xlink:href="#m710b362503" y="210.722907"/>
     <use style="fill:#0000ff;stroke:#0000ff;" x="377.039281" xlink:href="#m710b362503" y="251.72464"/>
     <use style="fill:#0000ff;stroke:#0000ff;" x="382.884943" xlink:href="#m710b362503" y="220.621512"/>
     <use style="fill:#0000ff;stroke:#0000ff;" x="388.730606" xlink:href="#m710b362503" y="217.813029"/>
     <use style="fill:#0000ff;stroke:#0000ff;" x="394.576269" xlink:href="#m710b362503" y="196.056158"/>
     <use style="fill:#0000ff;stroke:#0000ff;" x="400.421932" xlink:href="#m710b362503" y="239.630628"/>
     <use style="fill:#0000ff;stroke:#0000ff;" x="406.267595" xlink:href="#m710b362503" y="208.007904"/>
     <use style="fill:#0000ff;stroke:#0000ff;" x="412.113258" xlink:href="#m710b362503" y="202.485441"/>
     <use style="fill:#0000ff;stroke:#0000ff;" x="417.958921" xlink:href="#m710b362503" y="177.02589"/>
     <use style="fill:#0000ff;stroke:#0000ff;" x="423.804584" xlink:href="#m710b362503" y="228.170162"/>
     <use style="fill:#0000ff;stroke:#0000ff;" x="429.650247" xlink:href="#m710b362503" y="192.963143"/>
     <use style="fill:#0000ff;stroke:#0000ff;" x="435.495909" xlink:href="#m710b362503" y="187.901596"/>
     <use style="fill:#0000ff;stroke:#0000ff;" x="441.341572" xlink:href="#m710b362503" y="164.839422"/>
     <use style="fill:#0000ff;stroke:#0000ff;" x="447.187235" xlink:href="#m710b362503" y="223.041747"/>
     <use style="fill:#0000ff;stroke:#0000ff;" x="453.032898" xlink:href="#m710b362503" y="187.482985"/>
     <use style="fill:#0000ff;stroke:#0000ff;" x="458.878561" xlink:href="#m710b362503" y="185.716084"/>
     <use style="fill:#0000ff;stroke:#0000ff;" x="464.724224" xlink:href="#m710b362503" y="162.388482"/>
     <use style="fill:#0000ff;stroke:#0000ff;" x="470.569887" xlink:href="#m710b362503" y="220.993725"/>
     <use style="fill:#0000ff;stroke:#0000ff;" x="476.41555" xlink:href="#m710b362503" y="178.93574"/>
     <use style="fill:#0000ff;stroke:#0000ff;" x="482.261213" xlink:href="#m710b362503" y="172.439248"/>
     <use style="fill:#0000ff;stroke:#0000ff;" x="488.106876" xlink:href="#m710b362503" y="137.829269"/>
     <use style="fill:#0000ff;stroke:#0000ff;" x="493.952538" xlink:href="#m710b362503" y="191.382177"/>
    </g>
   </g>
   <g id="PathCollection_3">
    <defs>
     <path d="M -0 3 
L 3 -3 
L -3 -3 
z
" id="m7b9915fd95" style="stroke:#ffff00;"/>
    </defs>
    <g clip-path="url(#p8a6028cdc9)">
     <use style="fill:#ffff00;stroke:#ffff00;" x="96.447462" xlink:href="#m7b9915fd95" y="396.528673"/>
     <use style="fill:#ffff00;stroke:#ffff00;" x="102.293124" xlink:href="#m7b9915fd95" y="396.924085"/>
     <use style="fill:#ffff00;stroke:#ffff00;" x="108.138787" xlink:href="#m7b9915fd95" y="397.172454"/>
     <use style="fill:#ffff00;stroke:#ffff00;" x="113.98445" xlink:href="#m7b9915fd95" y="394.112873"/>
     <use style="fill:#ffff00;stroke:#ffff00;" x="119.830113" xlink:href="#m7b9915fd95" y="391.220804"/>
     <use style="fill:#ffff00;stroke:#ffff00;" x="125.675776" xlink:href="#m7b9915fd95" y="392.07645"/>
     <use style="fill:#ffff00;stroke:#ffff00;" x="131.521439" xlink:href="#m7b9915fd95" y="392.381112"/>
     <use style="fill:#ffff00;stroke:#ffff00;" x="137.367102" xlink:href="#m7b9915fd95" y="389.265238"/>
     <use style="fill:#ffff00;stroke:#ffff00;" x="143.212765" xlink:href="#m7b9915fd95" y="386.451638"/>
     <use style="fill:#ffff00;stroke:#ffff00;" x="149.058428" xlink:href="#m7b9915fd95" y="387.537912"/>
     <use style="fill:#ffff00;stroke:#ffff00;" x="154.904091" xlink:href="#m7b9915fd95" y="387.562135"/>
     <use style="fill:#ffff00;stroke:#ffff00;" x="160.749753" xlink:href="#m7b9915fd95" y="383.870713"/>
     <use style="fill:#ffff00;stroke:#ffff00;" x="166.595416" xlink:href="#m7b9915fd95" y="380.893694"/>
     <use style="fill:#ffff00;stroke:#ffff00;" x="172.441079" xlink:href="#m7b9915fd95" y="382.893612"/>
     <use style="fill:#ffff00;stroke:#ffff00;" x="178.286742" xlink:href="#m7b9915fd95" y="382.631937"/>
     <use style="fill:#ffff00;stroke:#ffff00;" x="184.132405" xlink:href="#m7b9915fd95" y="377.398443"/>
     <use style="fill:#ffff00;stroke:#ffff00;" x="189.978068" xlink:href="#m7b9915fd95" y="373.455582"/>
     <use style="fill:#ffff00;stroke:#ffff00;" x="195.823731" xlink:href="#m7b9915fd95" y="374.383896"/>
     <use style="fill:#ffff00;stroke:#ffff00;" x="201.669394" xlink:href="#m7b9915fd95" y="375.205084"/>
     <use style="fill:#ffff00;stroke:#ffff00;" x="207.515057" xlink:href="#m7b9915fd95" y="370.427729"/>
     <use style="fill:#ffff00;stroke:#ffff00;" x="213.360719" xlink:href="#m7b9915fd95" y="363.994352"/>
     <use style="fill:#ffff00;stroke:#ffff00;" x="219.206382" xlink:href="#m7b9915fd95" y="365.635704"/>
     <use style="fill:#ffff00;stroke:#ffff00;" x="225.052045" xlink:href="#m7b9915fd95" y="366.260721"/>
     <use style="fill:#ffff00;stroke:#ffff00;" x="230.897708" xlink:href="#m7b9915fd95" y="360.807857"/>
     <use style="fill:#ffff00;stroke:#ffff00;" x="236.743371" xlink:href="#m7b9915fd95" y="352.948745"/>
     <use style="fill:#ffff00;stroke:#ffff00;" x="242.589034" xlink:href="#m7b9915fd95" y="353.970538"/>
     <use style="fill:#ffff00;stroke:#ffff00;" x="248.434697" xlink:href="#m7b9915fd95" y="354.509923"/>
     <use style="fill:#ffff00;stroke:#ffff00;" x="254.28036" xlink:href="#m7b9915fd95" y="346.374125"/>
     <use style="fill:#ffff00;stroke:#ffff00;" x="260.126023" xlink:href="#m7b9915fd95" y="335.687766"/>
     <use style="fill:#ffff00;stroke:#ffff00;" x="265.971686" xlink:href="#m7b9915fd95" y="334.175034"/>
     <use style="fill:#ffff00;stroke:#ffff00;" x="271.817348" xlink:href="#m7b9915fd95" y="333.064537"/>
     <use style="fill:#ffff00;stroke:#ffff00;" x="277.663011" xlink:href="#m7b9915fd95" y="322.821694"/>
     <use style="fill:#ffff00;stroke:#ffff00;" x="283.508674" xlink:href="#m7b9915fd95" y="316.30132"/>
     <use style="fill:#ffff00;stroke:#ffff00;" x="289.354337" xlink:href="#m7b9915fd95" y="315.48832"/>
     <use style="fill:#ffff00;stroke:#ffff00;" x="295.2" xlink:href="#m7b9915fd95" y="315.123954"/>
     <use style="fill:#ffff00;stroke:#ffff00;" x="301.045663" xlink:href="#m7b9915fd95" y="307.207527"/>
     <use style="fill:#ffff00;stroke:#ffff00;" x="306.891326" xlink:href="#m7b9915fd95" y="303.769592"/>
     <use style="fill:#ffff00;stroke:#ffff00;" x="312.736989" xlink:href="#m7b9915fd95" y="301.884305"/>
     <use style="fill:#ffff00;stroke:#ffff00;" x="318.582652" xlink:href="#m7b9915fd95" y="298.746938"/>
     <use style="fill:#ffff00;stroke:#ffff00;" x="324.428314" xlink:href="#m7b9915fd95" y="288.507508"/>
     <use style="fill:#ffff00;stroke:#ffff00;" x="330.273977" xlink:href="#m7b9915fd95" y="282.466131"/>
     <use style="fill:#ffff00;stroke:#ffff00;" x="336.11964" xlink:href="#m7b9915fd95" y="279.642637"/>
     <use style="fill:#ffff00;stroke:#ffff00;" x="341.965303" xlink:href="#m7b9915fd95" y="275.266494"/>
     <use style="fill:#ffff00;stroke:#ffff00;" x="347.810966" xlink:href="#m7b9915fd95" y="262.428398"/>
     <use style="fill:#ffff00;stroke:#ffff00;" x="353.656629" xlink:href="#m7b9915fd95" y="253.90367"/>
     <use style="fill:#ffff00;stroke:#ffff00;" x="359.502292" xlink:href="#m7b9915fd95" y="249.862894"/>
     <use style="fill:#ffff00;stroke:#ffff00;" x="365.347955" xlink:href="#m7b9915fd95" y="245.72045"/>
     <use style="fill:#ffff00;stroke:#ffff00;" x="371.193618" xlink:href="#m7b9915fd95" y="234.113283"/>
     <use style="fill:#ffff00;stroke:#ffff00;" x="377.039281" xlink:href="#m7b9915fd95" y="230.326335"/>
     <use style="fill:#ffff00;stroke:#ffff00;" x="382.884943" xlink:href="#m7b9915fd95" y="225.621307"/>
     <use style="fill:#ffff00;stroke:#ffff00;" x="388.730606" xlink:href="#m7b9915fd95" y="221.529356"/>
     <use style="fill:#ffff00;stroke:#ffff00;" x="394.576269" xlink:href="#m7b9915fd95" y="208.128677"/>
     <use style="fill:#ffff00;stroke:#ffff00;" x="400.421932" xlink:href="#m7b9915fd95" y="202.60485"/>
     <use style="fill:#ffff00;stroke:#ffff00;" x="406.267595" xlink:href="#m7b9915fd95" y="198.243377"/>
     <use style="fill:#ffff00;stroke:#ffff00;" x="412.113258" xlink:href="#m7b9915fd95" y="192.890815"/>
     <use style="fill:#ffff00;stroke:#ffff00;" x="417.958921" xlink:href="#m7b9915fd95" y="178.813603"/>
     <use style="fill:#ffff00;stroke:#ffff00;" x="423.804584" xlink:href="#m7b9915fd95" y="178.074977"/>
     <use style="fill:#ffff00;stroke:#ffff00;" x="429.650247" xlink:href="#m7b9915fd95" y="173.428972"/>
     <use style="fill:#ffff00;stroke:#ffff00;" x="435.495909" xlink:href="#m7b9915fd95" y="167.476298"/>
     <use style="fill:#ffff00;stroke:#ffff00;" x="441.341572" xlink:href="#m7b9915fd95" y="150.882982"/>
     <use style="fill:#ffff00;stroke:#ffff00;" x="447.187235" xlink:href="#m7b9915fd95" y="148.780373"/>
     <use style="fill:#ffff00;stroke:#ffff00;" x="453.032898" xlink:href="#m7b9915fd95" y="140.669822"/>
     <use style="fill:#ffff00;stroke:#ffff00;" x="458.878561" xlink:href="#m7b9915fd95" y="133.543535"/>
     <use style="fill:#ffff00;stroke:#ffff00;" x="464.724224" xlink:href="#m7b9915fd95" y="116.915421"/>
     <use style="fill:#ffff00;stroke:#ffff00;" x="470.569887" xlink:href="#m7b9915fd95" y="118.235394"/>
     <use style="fill:#ffff00;stroke:#ffff00;" x="476.41555" xlink:href="#m7b9915fd95" y="110.209111"/>
     <use style="fill:#ffff00;stroke:#ffff00;" x="482.261213" xlink:href="#m7b9915fd95" y="101.316946"/>
     <use style="fill:#ffff00;stroke:#ffff00;" x="488.106876" xlink:href="#m7b9915fd95" y="80.26322"/>
     <use style="fill:#ffff00;stroke:#ffff00;" x="493.952538" xlink:href="#m7b9915fd95" y="82.141682"/>
    </g>
   </g>
   <g id="matplotlib.axis_1">
    <g id="xtick_1">
     <g id="line2d_1">
      <defs>
       <path d="M 0 0 
L 0 3.5 
" id="m409dc253db" style="stroke:#000000;stroke-width:0.8;"/>
      </defs>
      <g>
       <use style="stroke:#000000;stroke-width:0.8;" x="90.601799" xlink:href="#m409dc253db" y="441"/>
      </g>
     </g>
     <g id="text_1">
      <!-- 2000年第一季度 -->
      <defs>
       <path d="M 41.65625 55.8125 
Q 41.65625 61.921875 37.796875 65.40625 
Q 33.9375 68.890625 27.296875 68.890625 
Q 22.609375 68.890625 17.8125 66.5 
Q 13.03125 64.109375 8.890625 59.671875 
L 8.890625 68.953125 
Q 12.59375 72.796875 17.296875 74.84375 
Q 22.015625 76.90625 28.375 76.90625 
Q 38.625 76.90625 44.875 71.40625 
Q 51.125 65.921875 51.125 56.546875 
Q 51.125 48.1875 47.28125 42.078125 
Q 43.453125 35.984375 34.1875 29.59375 
Q 24.703125 23.046875 21.5 20.21875 
Q 18.3125 17.390625 17.03125 14.796875 
Q 15.765625 12.203125 15.765625 8.5 
L 53.375 8.5 
L 53.375 0 
L 5.8125 0 
L 5.8125 3.765625 
Q 5.8125 10.296875 7.59375 14.859375 
Q 9.375 19.4375 13.46875 23.75 
Q 17.578125 28.078125 26.265625 34.125 
Q 35.15625 40.375 38.40625 45.09375 
Q 41.65625 49.8125 41.65625 55.8125 
z
" id="MicrosoftYaHei-50"/>
       <path d="M 4.4375 36.328125 
Q 4.4375 56.34375 11.078125 66.625 
Q 17.71875 76.90625 30.328125 76.90625 
Q 54.34375 76.90625 54.34375 38.140625 
Q 54.34375 19 47.578125 8.859375 
Q 40.828125 -1.265625 28.609375 -1.265625 
Q 17.09375 -1.265625 10.765625 8.34375 
Q 4.4375 17.96875 4.4375 36.328125 
z
M 14.203125 36.765625 
Q 14.203125 6.640625 29.5 6.640625 
Q 44.53125 6.640625 44.53125 37.25 
Q 44.53125 68.953125 29.78125 68.953125 
Q 14.203125 68.953125 14.203125 36.765625 
z
" id="MicrosoftYaHei-48"/>
       <path d="M 1.859375 19.96875 
L 17.578125 19.96875 
L 17.578125 47.90625 
L 52.15625 47.90625 
L 52.15625 65.28125 
L 23.4375 65.28125 
Q 16.84375 53.421875 8.6875 43.40625 
Q 6.15625 46.140625 2.640625 48.875 
Q 16.5 64.5 23.4375 83.9375 
L 31.453125 81.6875 
Q 29.390625 76.859375 27.15625 72.3125 
L 94.34375 72.3125 
L 94.34375 65.28125 
L 60.0625 65.28125 
L 60.0625 47.90625 
L 92.671875 47.90625 
L 92.671875 41.0625 
L 60.0625 41.0625 
L 60.0625 19.96875 
L 98.734375 19.96875 
L 98.734375 12.9375 
L 60.0625 12.9375 
L 60.0625 -13.421875 
L 52.15625 -13.421875 
L 52.15625 12.9375 
L 1.859375 12.9375 
z
M 25.296875 19.96875 
L 52.15625 19.96875 
L 52.15625 41.0625 
L 25.296875 41.0625 
z
" id="MicrosoftYaHei-24180"/>
       <path d="M 62.59375 83.546875 
L 71 83.546875 
Q 68.84375 78.71875 66.5 74.359375 
L 97.265625 74.359375 
L 97.265625 68.3125 
L 72.65625 68.3125 
Q 76.90625 64.15625 80.671875 59.71875 
L 75.09375 55.515625 
L 87.703125 55.515625 
L 87.703125 29.4375 
L 80.171875 29.4375 
L 80.171875 32.953125 
L 53.609375 32.953125 
L 53.609375 23.1875 
L 92.875 23.1875 
Q 92.484375 14.40625 91.890625 6.5 
Q 91.21875 -5.8125 79.390625 -5.8125 
Q 73.4375 -5.8125 64.65625 -5.71875 
Q 63.96875 -2.09375 62.984375 2 
Q 72.5625 1.515625 77.9375 1.515625 
Q 83.6875 1.515625 84.1875 7.28125 
Q 84.671875 11.859375 84.859375 16.546875 
L 53.609375 16.546875 
L 53.609375 -13.328125 
L 45.796875 -13.328125 
L 45.796875 14.203125 
Q 32.171875 -2.296875 4.78125 -10.984375 
Q 3.03125 -8.15625 0.6875 -4.734375 
Q 24.46875 2.25 38.484375 16.546875 
L 8.796875 16.546875 
L 8.796875 23.1875 
L 13.484375 39.59375 
L 45.796875 39.59375 
L 45.796875 48.875 
L 11.625 48.875 
L 11.625 55.515625 
L 30.8125 55.515625 
Q 26.765625 60.796875 22.75 65.375 
L 26.65625 68.3125 
L 19.484375 68.3125 
Q 13.671875 60.546875 6.0625 54.046875 
Q 4.109375 56.390625 1.171875 59.328125 
Q 13.578125 69.390625 20.21875 83.546875 
L 28.609375 83.546875 
Q 26.375 78.765625 23.640625 74.359375 
L 51.953125 74.359375 
L 51.953125 68.3125 
L 28.515625 68.3125 
Q 32.421875 64.359375 36.421875 59.8125 
L 30.953125 55.515625 
L 74.90625 55.515625 
Q 70.953125 60.84375 67.09375 65.28125 
L 71.234375 68.3125 
L 62.9375 68.3125 
Q 59.125 62.25 54.78125 57.375 
Q 52.640625 59.515625 48.828125 62.15625 
Q 57.03125 70.5625 62.59375 83.546875 
z
M 16.796875 23.1875 
L 45.796875 23.1875 
L 45.796875 32.953125 
L 19.53125 32.953125 
z
M 80.171875 48.875 
L 53.609375 48.875 
L 53.609375 39.59375 
L 80.171875 39.59375 
z
" id="MicrosoftYaHei-31532"/>
       <path d="M 1.5625 42.234375 
L 98.640625 42.234375 
L 98.640625 33.640625 
L 1.5625 33.640625 
z
" id="MicrosoftYaHei-19968"/>
       <path d="M 2.828125 61.46875 
L 46.296875 61.46875 
L 46.296875 71.4375 
Q 28.375 70.90625 11.140625 70.5625 
Q 10.75 73.6875 9.578125 77.390625 
Q 51.5625 77.984375 87.59375 80.125 
L 88.875 73 
Q 71 72.265625 53.71875 71.6875 
L 53.71875 61.46875 
L 96.296875 61.46875 
L 96.296875 54.828125 
L 62.359375 54.828125 
Q 76.765625 44.53125 99.125 39.5 
Q 96.78125 36.1875 94.625 32.28125 
Q 68.65625 40.1875 53.71875 54.34375 
L 53.71875 38.921875 
L 46.296875 38.921875 
L 46.296875 54.5 
Q 32.234375 41.265625 5.171875 31.296875 
Q 3.515625 34.625 0.59375 37.9375 
Q 23.921875 45.265625 37.3125 54.828125 
L 2.828125 54.828125 
z
M 1.765625 16.453125 
L 48.53125 16.453125 
L 48.53125 20.75 
L 64.359375 29.25 
L 21.484375 29.25 
L 21.484375 35.890625 
L 76.5625 35.890625 
L 76.5625 29.15625 
L 55.953125 18.015625 
L 55.953125 16.453125 
L 98.34375 16.453125 
L 98.34375 9.625 
L 55.953125 9.625 
L 55.953125 0.828125 
Q 55.953125 -6.5 53.328125 -8.9375 
Q 50.875 -11.765625 44.046875 -11.765625 
Q 36.921875 -11.765625 28.515625 -11.578125 
Q 28.21875 -7.765625 27.34375 -3.078125 
Q 35.25 -3.953125 42.96875 -4.046875 
Q 48.53125 -4.15625 48.53125 1.515625 
L 48.53125 9.625 
L 1.765625 9.625 
z
" id="MicrosoftYaHei-23395"/>
       <path d="M 24.21875 19 
L 24.21875 25.4375 
L 85.453125 25.4375 
L 85.453125 19.09375 
Q 76.609375 9.578125 64.796875 2.546875 
Q 78.90625 -3.125 97.859375 -4.828125 
L 94.046875 -12.453125 
Q 72.265625 -9.421875 56.9375 -1.703125 
Q 40.625 -9.671875 19.53125 -13.53125 
Q 17.96875 -10.40625 15.53125 -6.5 
Q 34.859375 -3.46875 49.46875 2.59375 
Q 39.015625 9.375 32.28125 19 
z
M 21.296875 55.328125 
L 35.84375 55.328125 
L 35.84375 63.53125 
L 43.265625 63.53125 
L 43.265625 55.328125 
L 70.90625 55.328125 
L 70.90625 63.625 
L 78.328125 63.625 
L 78.328125 55.328125 
L 96.09375 55.328125 
L 96.09375 48.875 
L 78.328125 48.875 
L 78.328125 30.125 
L 70.90625 30.125 
L 70.90625 33.546875 
L 43.265625 33.546875 
L 43.265625 30.03125 
L 35.84375 30.03125 
L 35.84375 48.875 
L 21.296875 48.875 
z
M 47.265625 80.8125 
L 54.390625 84.234375 
Q 57.71875 79 61.078125 72.40625 
L 97.078125 72.40625 
L 97.078125 65.578125 
L 19.140625 65.578125 
L 19.140625 36.1875 
Q 19.140625 2.78125 6.15625 -13.625 
Q 3.71875 -10.40625 0.59375 -6.984375 
Q 11.328125 6.203125 11.53125 36.671875 
L 11.53125 72.40625 
L 52.046875 72.40625 
Q 49.8125 76.703125 47.265625 80.8125 
z
M 43.265625 39.796875 
L 70.90625 39.796875 
L 70.90625 48.875 
L 43.265625 48.875 
z
M 75.296875 19 
L 40.4375 19 
Q 47.359375 11.375 57.125 6.109375 
Q 67.71875 11.578125 75.296875 19 
z
" id="MicrosoftYaHei-24230"/>
      </defs>
      <g transform="translate(66.578398 505.593847)rotate(-45)scale(0.1 -0.1)">
       <use xlink:href="#MicrosoftYaHei-50"/>
       <use x="58.642578" xlink:href="#MicrosoftYaHei-48"/>
       <use x="117.285156" xlink:href="#MicrosoftYaHei-48"/>
       <use x="175.927734" xlink:href="#MicrosoftYaHei-48"/>
       <use x="234.570312" xlink:href="#MicrosoftYaHei-24180"/>
       <use x="334.570312" xlink:href="#MicrosoftYaHei-31532"/>
       <use x="434.570312" xlink:href="#MicrosoftYaHei-19968"/>
       <use x="534.570312" xlink:href="#MicrosoftYaHei-23395"/>
       <use x="634.570312" xlink:href="#MicrosoftYaHei-24230"/>
      </g>
     </g>
    </g>
    <g id="xtick_2">
     <g id="line2d_2">
      <g>
       <use style="stroke:#000000;stroke-width:0.8;" x="113.98445" xlink:href="#m409dc253db" y="441"/>
      </g>
     </g>
     <g id="text_2">
      <!-- 2001年第一季度 -->
      <defs>
       <path d="M 27.828125 0 
L 27.828125 64.703125 
Q 25.59375 62.453125 20.234375 59.671875 
Q 14.890625 56.890625 10.359375 55.765625 
L 10.359375 65.140625 
Q 16.359375 66.796875 23.1875 70.4375 
Q 30.03125 74.078125 33.6875 77.296875 
L 37.3125 77.296875 
L 37.3125 0 
z
" id="MicrosoftYaHei-49"/>
      </defs>
      <g transform="translate(89.96105 505.593847)rotate(-45)scale(0.1 -0.1)">
       <use xlink:href="#MicrosoftYaHei-50"/>
       <use x="58.642578" xlink:href="#MicrosoftYaHei-48"/>
       <use x="117.285156" xlink:href="#MicrosoftYaHei-48"/>
       <use x="175.927734" xlink:href="#MicrosoftYaHei-49"/>
       <use x="234.570312" xlink:href="#MicrosoftYaHei-24180"/>
       <use x="334.570312" xlink:href="#MicrosoftYaHei-31532"/>
       <use x="434.570312" xlink:href="#MicrosoftYaHei-19968"/>
       <use x="534.570312" xlink:href="#MicrosoftYaHei-23395"/>
       <use x="634.570312" xlink:href="#MicrosoftYaHei-24230"/>
      </g>
     </g>
    </g>
    <g id="xtick_3">
     <g id="line2d_3">
      <g>
       <use style="stroke:#000000;stroke-width:0.8;" x="137.367102" xlink:href="#m409dc253db" y="441"/>
      </g>
     </g>
     <g id="text_3">
      <!-- 2002年第一季度 -->
      <g transform="translate(113.343701 505.593847)rotate(-45)scale(0.1 -0.1)">
       <use xlink:href="#MicrosoftYaHei-50"/>
       <use x="58.642578" xlink:href="#MicrosoftYaHei-48"/>
       <use x="117.285156" xlink:href="#MicrosoftYaHei-48"/>
       <use x="175.927734" xlink:href="#MicrosoftYaHei-50"/>
       <use x="234.570312" xlink:href="#MicrosoftYaHei-24180"/>
       <use x="334.570312" xlink:href="#MicrosoftYaHei-31532"/>
       <use x="434.570312" xlink:href="#MicrosoftYaHei-19968"/>
       <use x="534.570312" xlink:href="#MicrosoftYaHei-23395"/>
       <use x="634.570312" xlink:href="#MicrosoftYaHei-24230"/>
      </g>
     </g>
    </g>
    <g id="xtick_4">
     <g id="line2d_4">
      <g>
       <use style="stroke:#000000;stroke-width:0.8;" x="160.749753" xlink:href="#m409dc253db" y="441"/>
      </g>
     </g>
     <g id="text_4">
      <!-- 2003年第一季度 -->
      <defs>
       <path d="M 6.984375 12.640625 
Q 14.75 6.640625 24.515625 6.640625 
Q 32.328125 6.640625 36.890625 10.46875 
Q 41.453125 14.3125 41.453125 20.75 
Q 41.453125 35.109375 20.90625 35.109375 
L 14.59375 35.109375 
L 14.59375 43.015625 
L 20.609375 43.015625 
Q 38.8125 43.015625 38.8125 56.5 
Q 38.8125 68.953125 24.90625 68.953125 
Q 16.9375 68.953125 9.90625 63.578125 
L 9.90625 72.609375 
Q 17.328125 76.90625 27.25 76.90625 
Q 36.921875 76.90625 42.78125 71.84375 
Q 48.640625 66.796875 48.640625 58.734375 
Q 48.640625 43.890625 33.5 39.65625 
L 33.5 39.453125 
Q 41.703125 38.578125 46.453125 33.671875 
Q 51.21875 28.765625 51.21875 21.4375 
Q 51.21875 11.234375 43.875 4.984375 
Q 36.53125 -1.265625 24.3125 -1.265625 
Q 13.578125 -1.265625 6.984375 2.734375 
z
" id="MicrosoftYaHei-51"/>
      </defs>
      <g transform="translate(136.726353 505.593847)rotate(-45)scale(0.1 -0.1)">
       <use xlink:href="#MicrosoftYaHei-50"/>
       <use x="58.642578" xlink:href="#MicrosoftYaHei-48"/>
       <use x="117.285156" xlink:href="#MicrosoftYaHei-48"/>
       <use x="175.927734" xlink:href="#MicrosoftYaHei-51"/>
       <use x="234.570312" xlink:href="#MicrosoftYaHei-24180"/>
       <use x="334.570312" xlink:href="#MicrosoftYaHei-31532"/>
       <use x="434.570312" xlink:href="#MicrosoftYaHei-19968"/>
       <use x="534.570312" xlink:href="#MicrosoftYaHei-23395"/>
       <use x="634.570312" xlink:href="#MicrosoftYaHei-24230"/>
      </g>
     </g>
    </g>
    <g id="xtick_5">
     <g id="line2d_5">
      <g>
       <use style="stroke:#000000;stroke-width:0.8;" x="184.132405" xlink:href="#m409dc253db" y="441"/>
      </g>
     </g>
     <g id="text_5">
      <!-- 2004年第一季度 -->
      <defs>
       <path d="M 45.40625 75.640625 
L 45.40625 25.6875 
L 56.734375 25.6875 
L 56.734375 17.78125 
L 45.40625 17.78125 
L 45.40625 0 
L 36.140625 0 
L 36.140625 17.78125 
L 0.828125 17.78125 
L 0.828125 25.25 
Q 10.25 35.84375 19.765625 49.65625 
Q 29.296875 63.484375 35.5 75.640625 
z
M 11.578125 25.6875 
L 36.140625 25.6875 
L 36.140625 61.71875 
Q 31.0625 52.59375 25.25 44.015625 
Q 19.4375 35.453125 11.578125 25.6875 
z
" id="MicrosoftYaHei-52"/>
      </defs>
      <g transform="translate(160.109005 505.593847)rotate(-45)scale(0.1 -0.1)">
       <use xlink:href="#MicrosoftYaHei-50"/>
       <use x="58.642578" xlink:href="#MicrosoftYaHei-48"/>
       <use x="117.285156" xlink:href="#MicrosoftYaHei-48"/>
       <use x="175.927734" xlink:href="#MicrosoftYaHei-52"/>
       <use x="234.570312" xlink:href="#MicrosoftYaHei-24180"/>
       <use x="334.570312" xlink:href="#MicrosoftYaHei-31532"/>
       <use x="434.570312" xlink:href="#MicrosoftYaHei-19968"/>
       <use x="534.570312" xlink:href="#MicrosoftYaHei-23395"/>
       <use x="634.570312" xlink:href="#MicrosoftYaHei-24230"/>
      </g>
     </g>
    </g>
    <g id="xtick_6">
     <g id="line2d_6">
      <g>
       <use style="stroke:#000000;stroke-width:0.8;" x="207.515057" xlink:href="#m409dc253db" y="441"/>
      </g>
     </g>
     <g id="text_6">
      <!-- 2005年第一季度 -->
      <defs>
       <path d="M 51.46875 23.34375 
Q 51.46875 12.25 44.109375 5.46875 
Q 36.765625 -1.3125 24.359375 -1.3125 
Q 13.71875 -1.3125 8.5 1.859375 
L 8.5 11.625 
Q 16.15625 6.640625 24.125 6.640625 
Q 32.03125 6.640625 36.890625 11 
Q 41.75 15.375 41.75 22.609375 
Q 41.75 29.828125 36.6875 33.859375 
Q 31.640625 37.890625 22.40625 37.890625 
Q 15.28125 37.890625 9.578125 37.25 
L 12.359375 75.640625 
L 47.703125 75.640625 
L 47.703125 67.234375 
L 20.40625 67.234375 
L 18.84375 45.796875 
L 25.734375 46.09375 
Q 37.75 46.09375 44.609375 40.109375 
Q 51.46875 34.125 51.46875 23.34375 
z
" id="MicrosoftYaHei-53"/>
      </defs>
      <g transform="translate(183.491656 505.593847)rotate(-45)scale(0.1 -0.1)">
       <use xlink:href="#MicrosoftYaHei-50"/>
       <use x="58.642578" xlink:href="#MicrosoftYaHei-48"/>
       <use x="117.285156" xlink:href="#MicrosoftYaHei-48"/>
       <use x="175.927734" xlink:href="#MicrosoftYaHei-53"/>
       <use x="234.570312" xlink:href="#MicrosoftYaHei-24180"/>
       <use x="334.570312" xlink:href="#MicrosoftYaHei-31532"/>
       <use x="434.570312" xlink:href="#MicrosoftYaHei-19968"/>
       <use x="534.570312" xlink:href="#MicrosoftYaHei-23395"/>
       <use x="634.570312" xlink:href="#MicrosoftYaHei-24230"/>
      </g>
     </g>
    </g>
    <g id="xtick_7">
     <g id="line2d_7">
      <g>
       <use style="stroke:#000000;stroke-width:0.8;" x="230.897708" xlink:href="#m409dc253db" y="441"/>
      </g>
     </g>
     <g id="text_7">
      <!-- 2006年第一季度 -->
      <defs>
       <path d="M 49.703125 65.921875 
Q 43.796875 68.953125 37.359375 68.953125 
Q 27.546875 68.953125 21.578125 60.40625 
Q 15.625 51.859375 15.53125 37.0625 
L 15.765625 37.0625 
Q 21.140625 47.46875 32.90625 47.46875 
Q 42.71875 47.46875 48.578125 41.0625 
Q 54.4375 34.671875 54.4375 24.078125 
Q 54.4375 12.984375 47.671875 5.859375 
Q 40.921875 -1.265625 30.421875 -1.265625 
Q 18.890625 -1.265625 12.328125 7.734375 
Q 5.765625 16.75 5.765625 33.296875 
Q 5.765625 53.328125 14.375 65.109375 
Q 23 76.90625 37.0625 76.90625 
Q 45.125 76.90625 49.703125 74.703125 
z
M 16.109375 24.75 
Q 16.109375 17.28125 20.09375 11.953125 
Q 24.078125 6.640625 30.671875 6.640625 
Q 36.921875 6.640625 40.828125 11.234375 
Q 44.734375 15.828125 44.734375 23.046875 
Q 44.734375 30.859375 41.046875 35.203125 
Q 37.359375 39.546875 30.5625 39.546875 
Q 24.125 39.546875 20.109375 35.15625 
Q 16.109375 30.765625 16.109375 24.75 
z
" id="MicrosoftYaHei-54"/>
      </defs>
      <g transform="translate(206.874308 505.593847)rotate(-45)scale(0.1 -0.1)">
       <use xlink:href="#MicrosoftYaHei-50"/>
       <use x="58.642578" xlink:href="#MicrosoftYaHei-48"/>
       <use x="117.285156" xlink:href="#MicrosoftYaHei-48"/>
       <use x="175.927734" xlink:href="#MicrosoftYaHei-54"/>
       <use x="234.570312" xlink:href="#MicrosoftYaHei-24180"/>
       <use x="334.570312" xlink:href="#MicrosoftYaHei-31532"/>
       <use x="434.570312" xlink:href="#MicrosoftYaHei-19968"/>
       <use x="534.570312" xlink:href="#MicrosoftYaHei-23395"/>
       <use x="634.570312" xlink:href="#MicrosoftYaHei-24230"/>
      </g>
     </g>
    </g>
    <g id="xtick_8">
     <g id="line2d_8">
      <g>
       <use style="stroke:#000000;stroke-width:0.8;" x="254.28036" xlink:href="#m409dc253db" y="441"/>
      </g>
     </g>
     <g id="text_8">
      <!-- 2007年第一季度 -->
      <defs>
       <path d="M 53.46875 69.734375 
Q 41.546875 48.921875 34.734375 31.21875 
Q 27.9375 13.53125 26.3125 0 
L 16.359375 0 
Q 18.171875 13.328125 24.90625 30.421875 
Q 31.640625 47.515625 42.921875 67.1875 
L 5.421875 67.1875 
L 5.421875 75.640625 
L 53.46875 75.640625 
z
" id="MicrosoftYaHei-55"/>
      </defs>
      <g transform="translate(230.256959 505.593847)rotate(-45)scale(0.1 -0.1)">
       <use xlink:href="#MicrosoftYaHei-50"/>
       <use x="58.642578" xlink:href="#MicrosoftYaHei-48"/>
       <use x="117.285156" xlink:href="#MicrosoftYaHei-48"/>
       <use x="175.927734" xlink:href="#MicrosoftYaHei-55"/>
       <use x="234.570312" xlink:href="#MicrosoftYaHei-24180"/>
       <use x="334.570312" xlink:href="#MicrosoftYaHei-31532"/>
       <use x="434.570312" xlink:href="#MicrosoftYaHei-19968"/>
       <use x="534.570312" xlink:href="#MicrosoftYaHei-23395"/>
       <use x="634.570312" xlink:href="#MicrosoftYaHei-24230"/>
      </g>
     </g>
    </g>
    <g id="xtick_9">
     <g id="line2d_9">
      <g>
       <use style="stroke:#000000;stroke-width:0.8;" x="277.663011" xlink:href="#m409dc253db" y="441"/>
      </g>
     </g>
     <g id="text_9">
      <!-- 2008年第一季度 -->
      <defs>
       <path d="M 4.78125 21.09375 
Q 4.78125 27.640625 8.6875 33.15625 
Q 12.59375 38.671875 18.75 41.015625 
Q 13.8125 43.796875 10.9375 48.140625 
Q 8.0625 52.484375 8.0625 57.5625 
Q 8.0625 62.9375 10.8125 67.375 
Q 13.578125 71.828125 18.484375 74.359375 
Q 23.390625 76.90625 29.296875 76.90625 
Q 35.25 76.90625 40.1875 74.390625 
Q 45.125 71.875 47.859375 67.421875 
Q 50.59375 62.984375 50.59375 57.5625 
Q 50.59375 52.59375 47.78125 48.21875 
Q 44.96875 43.84375 39.984375 41.015625 
Q 46.140625 38.625 50 33.109375 
Q 53.859375 27.59375 53.859375 21.09375 
Q 53.859375 14.65625 50.78125 9.546875 
Q 47.703125 4.4375 42.03125 1.609375 
Q 36.375 -1.21875 29.296875 -1.21875 
Q 22.265625 -1.21875 16.640625 1.609375 
Q 11.03125 4.4375 7.90625 9.5625 
Q 4.78125 14.703125 4.78125 21.09375 
z
M 14.15625 21.53125 
Q 14.15625 14.796875 18.3125 10.734375 
Q 22.46875 6.6875 29.34375 6.6875 
Q 36.078125 6.6875 40.34375 10.8125 
Q 44.625 14.9375 44.625 21.53125 
Q 44.625 27.78125 40.296875 32.046875 
Q 35.984375 36.328125 29.34375 36.328125 
Q 22.75 36.328125 18.453125 32.15625 
Q 14.15625 27.984375 14.15625 21.53125 
z
M 16.890625 56.78125 
Q 16.890625 51.703125 20.5 48.0625 
Q 24.125 44.4375 29.34375 44.4375 
Q 34.46875 44.4375 38.203125 48.09375 
Q 41.9375 51.765625 41.9375 56.78125 
Q 41.9375 61.921875 38.34375 65.484375 
Q 34.765625 69.046875 29.34375 69.046875 
Q 23.96875 69.046875 20.421875 65.546875 
Q 16.890625 62.0625 16.890625 56.78125 
z
" id="MicrosoftYaHei-56"/>
      </defs>
      <g transform="translate(253.639611 505.593847)rotate(-45)scale(0.1 -0.1)">
       <use xlink:href="#MicrosoftYaHei-50"/>
       <use x="58.642578" xlink:href="#MicrosoftYaHei-48"/>
       <use x="117.285156" xlink:href="#MicrosoftYaHei-48"/>
       <use x="175.927734" xlink:href="#MicrosoftYaHei-56"/>
       <use x="234.570312" xlink:href="#MicrosoftYaHei-24180"/>
       <use x="334.570312" xlink:href="#MicrosoftYaHei-31532"/>
       <use x="434.570312" xlink:href="#MicrosoftYaHei-19968"/>
       <use x="534.570312" xlink:href="#MicrosoftYaHei-23395"/>
       <use x="634.570312" xlink:href="#MicrosoftYaHei-24230"/>
      </g>
     </g>
    </g>
    <g id="xtick_10">
     <g id="line2d_10">
      <g>
       <use style="stroke:#000000;stroke-width:0.8;" x="301.045663" xlink:href="#m409dc253db" y="441"/>
      </g>
     </g>
     <g id="text_10">
      <!-- 2009年第一季度 -->
      <defs>
       <path d="M 9.03125 10.25 
Q 15.28125 6.640625 22.515625 6.640625 
Q 32.671875 6.640625 38.25 14.640625 
Q 43.84375 22.65625 43.84375 37.40625 
Q 43.75 37.3125 43.65625 37.40625 
Q 38.671875 27.9375 26.90625 27.9375 
Q 17.390625 27.9375 11.140625 34.46875 
Q 4.890625 41.015625 4.890625 51.46875 
Q 4.890625 62.59375 11.71875 69.75 
Q 18.5625 76.90625 29.4375 76.90625 
Q 40.71875 76.90625 47.0625 68.046875 
Q 53.421875 59.1875 53.421875 42.234375 
Q 53.421875 21.296875 45.21875 10.015625 
Q 37.015625 -1.265625 22.515625 -1.265625 
Q 14.546875 -1.265625 9.03125 1.3125 
z
M 14.546875 52.6875 
Q 14.546875 45.0625 18.453125 40.59375 
Q 22.359375 36.140625 29.25 36.140625 
Q 35.203125 36.140625 39.25 40.203125 
Q 43.3125 44.28125 43.3125 50.09375 
Q 43.3125 58.25 39.28125 63.59375 
Q 35.25 68.953125 28.65625 68.953125 
Q 22.5625 68.953125 18.546875 64.3125 
Q 14.546875 59.671875 14.546875 52.6875 
z
" id="MicrosoftYaHei-57"/>
      </defs>
      <g transform="translate(277.022262 505.593847)rotate(-45)scale(0.1 -0.1)">
       <use xlink:href="#MicrosoftYaHei-50"/>
       <use x="58.642578" xlink:href="#MicrosoftYaHei-48"/>
       <use x="117.285156" xlink:href="#MicrosoftYaHei-48"/>
       <use x="175.927734" xlink:href="#MicrosoftYaHei-57"/>
       <use x="234.570312" xlink:href="#MicrosoftYaHei-24180"/>
       <use x="334.570312" xlink:href="#MicrosoftYaHei-31532"/>
       <use x="434.570312" xlink:href="#MicrosoftYaHei-19968"/>
       <use x="534.570312" xlink:href="#MicrosoftYaHei-23395"/>
       <use x="634.570312" xlink:href="#MicrosoftYaHei-24230"/>
      </g>
     </g>
    </g>
    <g id="xtick_11">
     <g id="line2d_11">
      <g>
       <use style="stroke:#000000;stroke-width:0.8;" x="324.428314" xlink:href="#m409dc253db" y="441"/>
      </g>
     </g>
     <g id="text_11">
      <!-- 2010年第一季度 -->
      <g transform="translate(300.404914 505.593847)rotate(-45)scale(0.1 -0.1)">
       <use xlink:href="#MicrosoftYaHei-50"/>
       <use x="58.642578" xlink:href="#MicrosoftYaHei-48"/>
       <use x="117.285156" xlink:href="#MicrosoftYaHei-49"/>
       <use x="175.927734" xlink:href="#MicrosoftYaHei-48"/>
       <use x="234.570312" xlink:href="#MicrosoftYaHei-24180"/>
       <use x="334.570312" xlink:href="#MicrosoftYaHei-31532"/>
       <use x="434.570312" xlink:href="#MicrosoftYaHei-19968"/>
       <use x="534.570312" xlink:href="#MicrosoftYaHei-23395"/>
       <use x="634.570312" xlink:href="#MicrosoftYaHei-24230"/>
      </g>
     </g>
    </g>
    <g id="xtick_12">
     <g id="line2d_12">
      <g>
       <use style="stroke:#000000;stroke-width:0.8;" x="347.810966" xlink:href="#m409dc253db" y="441"/>
      </g>
     </g>
     <g id="text_12">
      <!-- 2011年第一季度 -->
      <g transform="translate(323.787566 505.593847)rotate(-45)scale(0.1 -0.1)">
       <use xlink:href="#MicrosoftYaHei-50"/>
       <use x="58.642578" xlink:href="#MicrosoftYaHei-48"/>
       <use x="117.285156" xlink:href="#MicrosoftYaHei-49"/>
       <use x="175.927734" xlink:href="#MicrosoftYaHei-49"/>
       <use x="234.570312" xlink:href="#MicrosoftYaHei-24180"/>
       <use x="334.570312" xlink:href="#MicrosoftYaHei-31532"/>
       <use x="434.570312" xlink:href="#MicrosoftYaHei-19968"/>
       <use x="534.570312" xlink:href="#MicrosoftYaHei-23395"/>
       <use x="634.570312" xlink:href="#MicrosoftYaHei-24230"/>
      </g>
     </g>
    </g>
    <g id="xtick_13">
     <g id="line2d_13">
      <g>
       <use style="stroke:#000000;stroke-width:0.8;" x="371.193618" xlink:href="#m409dc253db" y="441"/>
      </g>
     </g>
     <g id="text_13">
      <!-- 2012年第一季度 -->
      <g transform="translate(347.170217 505.593847)rotate(-45)scale(0.1 -0.1)">
       <use xlink:href="#MicrosoftYaHei-50"/>
       <use x="58.642578" xlink:href="#MicrosoftYaHei-48"/>
       <use x="117.285156" xlink:href="#MicrosoftYaHei-49"/>
       <use x="175.927734" xlink:href="#MicrosoftYaHei-50"/>
       <use x="234.570312" xlink:href="#MicrosoftYaHei-24180"/>
       <use x="334.570312" xlink:href="#MicrosoftYaHei-31532"/>
       <use x="434.570312" xlink:href="#MicrosoftYaHei-19968"/>
       <use x="534.570312" xlink:href="#MicrosoftYaHei-23395"/>
       <use x="634.570312" xlink:href="#MicrosoftYaHei-24230"/>
      </g>
     </g>
    </g>
    <g id="xtick_14">
     <g id="line2d_14">
      <g>
       <use style="stroke:#000000;stroke-width:0.8;" x="394.576269" xlink:href="#m409dc253db" y="441"/>
      </g>
     </g>
     <g id="text_14">
      <!-- 2013年第一季度 -->
      <g transform="translate(370.552869 505.593847)rotate(-45)scale(0.1 -0.1)">
       <use xlink:href="#MicrosoftYaHei-50"/>
       <use x="58.642578" xlink:href="#MicrosoftYaHei-48"/>
       <use x="117.285156" xlink:href="#MicrosoftYaHei-49"/>
       <use x="175.927734" xlink:href="#MicrosoftYaHei-51"/>
       <use x="234.570312" xlink:href="#MicrosoftYaHei-24180"/>
       <use x="334.570312" xlink:href="#MicrosoftYaHei-31532"/>
       <use x="434.570312" xlink:href="#MicrosoftYaHei-19968"/>
       <use x="534.570312" xlink:href="#MicrosoftYaHei-23395"/>
       <use x="634.570312" xlink:href="#MicrosoftYaHei-24230"/>
      </g>
     </g>
    </g>
    <g id="xtick_15">
     <g id="line2d_15">
      <g>
       <use style="stroke:#000000;stroke-width:0.8;" x="417.958921" xlink:href="#m409dc253db" y="441"/>
      </g>
     </g>
     <g id="text_15">
      <!-- 2014年第一季度 -->
      <g transform="translate(393.93552 505.593847)rotate(-45)scale(0.1 -0.1)">
       <use xlink:href="#MicrosoftYaHei-50"/>
       <use x="58.642578" xlink:href="#MicrosoftYaHei-48"/>
       <use x="117.285156" xlink:href="#MicrosoftYaHei-49"/>
       <use x="175.927734" xlink:href="#MicrosoftYaHei-52"/>
       <use x="234.570312" xlink:href="#MicrosoftYaHei-24180"/>
       <use x="334.570312" xlink:href="#MicrosoftYaHei-31532"/>
       <use x="434.570312" xlink:href="#MicrosoftYaHei-19968"/>
       <use x="534.570312" xlink:href="#MicrosoftYaHei-23395"/>
       <use x="634.570312" xlink:href="#MicrosoftYaHei-24230"/>
      </g>
     </g>
    </g>
    <g id="xtick_16">
     <g id="line2d_16">
      <g>
       <use style="stroke:#000000;stroke-width:0.8;" x="441.341572" xlink:href="#m409dc253db" y="441"/>
      </g>
     </g>
     <g id="text_16">
      <!-- 2015年第一季度 -->
      <g transform="translate(417.318172 505.593847)rotate(-45)scale(0.1 -0.1)">
       <use xlink:href="#MicrosoftYaHei-50"/>
       <use x="58.642578" xlink:href="#MicrosoftYaHei-48"/>
       <use x="117.285156" xlink:href="#MicrosoftYaHei-49"/>
       <use x="175.927734" xlink:href="#MicrosoftYaHei-53"/>
       <use x="234.570312" xlink:href="#MicrosoftYaHei-24180"/>
       <use x="334.570312" xlink:href="#MicrosoftYaHei-31532"/>
       <use x="434.570312" xlink:href="#MicrosoftYaHei-19968"/>
       <use x="534.570312" xlink:href="#MicrosoftYaHei-23395"/>
       <use x="634.570312" xlink:href="#MicrosoftYaHei-24230"/>
      </g>
     </g>
    </g>
    <g id="xtick_17">
     <g id="line2d_17">
      <g>
       <use style="stroke:#000000;stroke-width:0.8;" x="464.724224" xlink:href="#m409dc253db" y="441"/>
      </g>
     </g>
     <g id="text_17">
      <!-- 2016年第一季度 -->
      <g transform="translate(440.700824 505.593847)rotate(-45)scale(0.1 -0.1)">
       <use xlink:href="#MicrosoftYaHei-50"/>
       <use x="58.642578" xlink:href="#MicrosoftYaHei-48"/>
       <use x="117.285156" xlink:href="#MicrosoftYaHei-49"/>
       <use x="175.927734" xlink:href="#MicrosoftYaHei-54"/>
       <use x="234.570312" xlink:href="#MicrosoftYaHei-24180"/>
       <use x="334.570312" xlink:href="#MicrosoftYaHei-31532"/>
       <use x="434.570312" xlink:href="#MicrosoftYaHei-19968"/>
       <use x="534.570312" xlink:href="#MicrosoftYaHei-23395"/>
       <use x="634.570312" xlink:href="#MicrosoftYaHei-24230"/>
      </g>
     </g>
    </g>
    <g id="xtick_18">
     <g id="line2d_18">
      <g>
       <use style="stroke:#000000;stroke-width:0.8;" x="488.106876" xlink:href="#m409dc253db" y="441"/>
      </g>
     </g>
     <g id="text_18">
      <!-- 2017年第一季度 -->
      <g transform="translate(464.083475 505.593847)rotate(-45)scale(0.1 -0.1)">
       <use xlink:href="#MicrosoftYaHei-50"/>
       <use x="58.642578" xlink:href="#MicrosoftYaHei-48"/>
       <use x="117.285156" xlink:href="#MicrosoftYaHei-49"/>
       <use x="175.927734" xlink:href="#MicrosoftYaHei-55"/>
       <use x="234.570312" xlink:href="#MicrosoftYaHei-24180"/>
       <use x="334.570312" xlink:href="#MicrosoftYaHei-31532"/>
       <use x="434.570312" xlink:href="#MicrosoftYaHei-19968"/>
       <use x="534.570312" xlink:href="#MicrosoftYaHei-23395"/>
       <use x="634.570312" xlink:href="#MicrosoftYaHei-24230"/>
      </g>
     </g>
    </g>
    <g id="text_19">
     <!-- 年份 -->
     <defs>
      <path d="M 35.453125 41.453125 
L 84.28125 41.453125 
Q 84.1875 40.09375 82.8125 5.71875 
Q 82.421875 -11.078125 67.484375 -11.28125 
Q 59.46875 -11.28125 53.515625 -10.984375 
Q 53.03125 -6.5 52.046875 -2.875 
Q 58.796875 -3.765625 65.625 -3.953125 
Q 75.09375 -4.640625 75.203125 6.59375 
Q 75.984375 19.671875 76.375 34.625 
L 54.390625 34.625 
Q 54.109375 19.09375 49.703125 8.9375 
Q 44.4375 -2.6875 31.546875 -12.84375 
Q 29 -9.71875 25.875 -6.5 
Q 38.28125 3.171875 42.390625 12.0625 
Q 46.390625 19.921875 46.828125 34.625 
L 35.453125 34.625 
z
M 1.171875 36.765625 
Q 15.140625 55.21875 23.828125 82.5625 
L 31.453125 79.9375 
Q 26.703125 66.9375 21.09375 55.609375 
L 21.09375 -12.640625 
L 13.671875 -12.640625 
L 13.671875 42.046875 
Q 9.1875 34.625 4.296875 28.078125 
Q 2.828125 32.28125 1.171875 36.765625 
z
M 62.59375 79.9375 
L 69.046875 82.671875 
Q 78.71875 57.859375 98.828125 46.4375 
Q 95.125 42.140625 93.265625 39.3125 
Q 71.484375 54.25 62.59375 79.9375 
z
M 24.8125 42.828125 
Q 40.046875 56.203125 49.421875 78.65625 
L 56.34375 76.03125 
Q 47.265625 53.265625 30.671875 37.453125 
Q 27.15625 41.0625 24.8125 42.828125 
z
" id="MicrosoftYaHei-20221"/>
     </defs>
     <g transform="translate(285.2 519.345421)scale(0.1 -0.1)">
      <use xlink:href="#MicrosoftYaHei-24180"/>
      <use x="100" xlink:href="#MicrosoftYaHei-20221"/>
     </g>
    </g>
   </g>
   <g id="matplotlib.axis_2">
    <g id="ytick_1">
     <g id="line2d_19">
      <defs>
       <path d="M 0 0 
L -3.5 0 
" id="md0cbfcba5e" style="stroke:#000000;stroke-width:0.8;"/>
      </defs>
      <g>
       <use style="stroke:#000000;stroke-width:0.8;" x="72" xlink:href="#md0cbfcba5e" y="430.21409"/>
      </g>
     </g>
     <g id="text_20">
      <!-- 0 -->
      <g transform="translate(59.135937 434.210965)scale(0.1 -0.1)">
       <use xlink:href="#MicrosoftYaHei-48"/>
      </g>
     </g>
    </g>
    <g id="ytick_2">
     <g id="line2d_20">
      <g>
       <use style="stroke:#000000;stroke-width:0.8;" x="72" xlink:href="#md0cbfcba5e" y="361.980787"/>
      </g>
     </g>
     <g id="text_21">
      <!-- 20000 -->
      <g transform="translate(35.679688 365.977662)scale(0.1 -0.1)">
       <use xlink:href="#MicrosoftYaHei-50"/>
       <use x="58.642578" xlink:href="#MicrosoftYaHei-48"/>
       <use x="117.285156" xlink:href="#MicrosoftYaHei-48"/>
       <use x="175.927734" xlink:href="#MicrosoftYaHei-48"/>
       <use x="234.570312" xlink:href="#MicrosoftYaHei-48"/>
      </g>
     </g>
    </g>
    <g id="ytick_3">
     <g id="line2d_21">
      <g>
       <use style="stroke:#000000;stroke-width:0.8;" x="72" xlink:href="#md0cbfcba5e" y="293.747484"/>
      </g>
     </g>
     <g id="text_22">
      <!-- 40000 -->
      <g transform="translate(35.679688 297.744359)scale(0.1 -0.1)">
       <use xlink:href="#MicrosoftYaHei-52"/>
       <use x="58.642578" xlink:href="#MicrosoftYaHei-48"/>
       <use x="117.285156" xlink:href="#MicrosoftYaHei-48"/>
       <use x="175.927734" xlink:href="#MicrosoftYaHei-48"/>
       <use x="234.570312" xlink:href="#MicrosoftYaHei-48"/>
      </g>
     </g>
    </g>
    <g id="ytick_4">
     <g id="line2d_22">
      <g>
       <use style="stroke:#000000;stroke-width:0.8;" x="72" xlink:href="#md0cbfcba5e" y="225.514181"/>
      </g>
     </g>
     <g id="text_23">
      <!-- 60000 -->
      <g transform="translate(35.679688 229.511056)scale(0.1 -0.1)">
       <use xlink:href="#MicrosoftYaHei-54"/>
       <use x="58.642578" xlink:href="#MicrosoftYaHei-48"/>
       <use x="117.285156" xlink:href="#MicrosoftYaHei-48"/>
       <use x="175.927734" xlink:href="#MicrosoftYaHei-48"/>
       <use x="234.570312" xlink:href="#MicrosoftYaHei-48"/>
      </g>
     </g>
    </g>
    <g id="ytick_5">
     <g id="line2d_23">
      <g>
       <use style="stroke:#000000;stroke-width:0.8;" x="72" xlink:href="#md0cbfcba5e" y="157.280878"/>
      </g>
     </g>
     <g id="text_24">
      <!-- 80000 -->
      <g transform="translate(35.679688 161.277753)scale(0.1 -0.1)">
       <use xlink:href="#MicrosoftYaHei-56"/>
       <use x="58.642578" xlink:href="#MicrosoftYaHei-48"/>
       <use x="117.285156" xlink:href="#MicrosoftYaHei-48"/>
       <use x="175.927734" xlink:href="#MicrosoftYaHei-48"/>
       <use x="234.570312" xlink:href="#MicrosoftYaHei-48"/>
      </g>
     </g>
    </g>
    <g id="ytick_6">
     <g id="line2d_24">
      <g>
       <use style="stroke:#000000;stroke-width:0.8;" x="72" xlink:href="#md0cbfcba5e" y="89.047575"/>
      </g>
     </g>
     <g id="text_25">
      <!-- 100000 -->
      <g transform="translate(29.815625 93.04445)scale(0.1 -0.1)">
       <use xlink:href="#MicrosoftYaHei-49"/>
       <use x="58.642578" xlink:href="#MicrosoftYaHei-48"/>
       <use x="117.285156" xlink:href="#MicrosoftYaHei-48"/>
       <use x="175.927734" xlink:href="#MicrosoftYaHei-48"/>
       <use x="234.570312" xlink:href="#MicrosoftYaHei-48"/>
       <use x="293.212891" xlink:href="#MicrosoftYaHei-48"/>
      </g>
     </g>
    </g>
    <g id="text_26">
     <!-- 生产总值（亿元人民币） -->
     <defs>
      <path d="M 1.953125 0.25 
L 47.265625 0.25 
L 47.265625 25.140625 
L 12.703125 25.140625 
L 12.703125 32.671875 
L 47.265625 32.671875 
L 47.265625 55.21875 
L 21.484375 55.21875 
Q 14.984375 43.5 6.546875 34.03125 
Q 4.5 37.25 1.265625 40.875 
Q 15.046875 56.296875 23.046875 78.5625 
L 31.0625 76.421875 
Q 28.46875 69.28125 25.34375 62.75 
L 47.265625 62.75 
L 47.265625 83.453125 
L 55.671875 83.453125 
L 55.671875 62.75 
L 92.96875 62.75 
L 92.96875 55.21875 
L 55.671875 55.21875 
L 55.671875 32.671875 
L 90.234375 32.671875 
L 90.234375 25.140625 
L 55.671875 25.140625 
L 55.671875 0.25 
L 98.25 0.25 
L 98.25 -7.078125 
L 1.953125 -7.078125 
z
" id="MicrosoftYaHei-29983"/>
      <path d="M 11.625 43.890625 
L 57.8125 43.890625 
Q 64.40625 53.609375 69.625 63.234375 
L 77.15625 58.453125 
Q 71.96875 51.171875 66.3125 43.890625 
L 95.21875 43.890625 
L 95.21875 37.0625 
L 19.53125 37.0625 
L 19.53125 30.21875 
Q 19.53125 12.9375 16.890625 4.4375 
Q 14.15625 -5.03125 6.546875 -13.328125 
Q 4 -10.203125 1.265625 -6.6875 
Q 7.03125 -0.53125 9.375 7.765625 
Q 11.625 15.875 11.625 30.21875 
z
M 3.609375 71.828125 
L 48.1875 71.828125 
Q 46.046875 75.828125 43.453125 80.03125 
L 50.6875 83.640625 
Q 53.859375 78.46875 57.171875 71.828125 
L 97.75 71.828125 
L 97.75 64.890625 
L 3.609375 64.890625 
z
M 24.03125 59.328125 
L 30.46875 63.625 
Q 36.53125 56 41.21875 49.171875 
L 34.28125 44.390625 
Q 30.46875 50.828125 24.03125 59.328125 
z
" id="MicrosoftYaHei-20135"/>
      <path d="M 14.0625 66.453125 
L 56.734375 66.453125 
Q 62.84375 75.34375 67.671875 83.640625 
L 75.203125 79.734375 
Q 70.3125 73.046875 65.234375 66.453125 
L 85.9375 66.453125 
L 85.9375 26.609375 
L 78.125 26.609375 
L 78.125 30.90625 
L 21.875 30.90625 
L 21.875 26.609375 
L 14.0625 26.609375 
z
M 78.125 59.421875 
L 21.875 59.421875 
L 21.875 37.9375 
L 78.125 37.9375 
z
M 26.46875 21.53125 
L 34.078125 21.53125 
L 34.078125 4.4375 
Q 34.078125 -3.171875 40.921875 -3.171875 
L 60.546875 -3.171875 
Q 66.3125 -3.171875 67.78125 2.6875 
Q 68.65625 5.71875 69.53125 13.625 
Q 72.359375 12.359375 77.046875 10.6875 
Q 75.78125 3.265625 74.21875 -1.515625 
Q 71.1875 -10.015625 60.9375 -10.015625 
L 39.359375 -10.015625 
Q 26.46875 -10.015625 26.46875 3.078125 
z
M 11.234375 22.21875 
L 18.5625 19.875 
Q 14.546875 7.671875 8.40625 -5.21875 
Q 5.28125 -3.859375 1.265625 -2.09375 
Q 6.9375 9.328125 11.234375 22.21875 
z
M 76.265625 18.796875 
L 81.84375 23.09375 
Q 90.828125 13.140625 98.734375 3.078125 
L 92.1875 -2.09375 
Q 85.25 7.671875 76.265625 18.796875 
z
M 41.609375 24.859375 
L 47.5625 28.765625 
Q 54.5 21.4375 60.359375 13.140625 
L 53.8125 8.546875 
Q 47.953125 17.328125 41.609375 24.859375 
z
M 24.90625 79.828125 
L 30.859375 83.640625 
Q 36.71875 77.484375 41.40625 70.953125 
L 34.765625 66.65625 
Q 30.5625 72.703125 24.90625 79.828125 
z
" id="MicrosoftYaHei-24635"/>
      <path d="M 25.296875 -3.375 
L 35.15625 -3.375 
L 35.15625 57.078125 
L 58.203125 57.078125 
L 58.203125 65.96875 
L 29.890625 65.96875 
L 29.890625 72.609375 
L 58.203125 72.609375 
L 58.203125 82.953125 
L 65.625 82.953125 
L 65.625 72.609375 
L 96.390625 72.609375 
L 96.390625 65.96875 
L 65.625 65.96875 
L 65.625 57.078125 
L 89.265625 57.078125 
L 89.265625 -3.375 
L 98.53125 -3.375 
L 98.53125 -10.015625 
L 25.296875 -10.015625 
z
M 1.078125 35.109375 
Q 14.15625 54.640625 21.390625 82.46875 
L 28.609375 80.328125 
Q 24.703125 67.71875 20.125 56.6875 
L 20.125 -12.75 
L 12.984375 -12.75 
L 12.984375 41.65625 
Q 8.796875 33.84375 4.109375 27.09375 
Q 2.734375 31.203125 1.078125 35.109375 
z
M 42.390625 -3.375 
L 82.03125 -3.375 
L 82.03125 5.515625 
L 42.390625 5.515625 
z
M 82.03125 50.640625 
L 42.390625 50.640625 
L 42.390625 41.84375 
L 82.03125 41.84375 
z
M 42.390625 26.8125 
L 82.03125 26.8125 
L 82.03125 35.59375 
L 42.390625 35.59375 
z
M 42.390625 11.765625 
L 82.03125 11.765625 
L 82.03125 20.5625 
L 42.390625 20.5625 
z
" id="MicrosoftYaHei-20540"/>
      <path d="M 82.625 -17.1875 
Q 65.1875 1.859375 65.1875 28.90625 
Q 65.1875 56.296875 82.625 75.59375 
L 91.015625 75.59375 
Q 73.6875 55.8125 73.6875 29 
Q 73.6875 2.59375 90.921875 -17.1875 
z
" id="MicrosoftYaHei-65288"/>
      <path d="M 90.53125 25.828125 
Q 92.96875 24.65625 98.734375 22.90625 
Q 97.859375 12.0625 96.484375 4.046875 
Q 94.34375 -8.34375 79.203125 -8.453125 
Q 63.671875 -9.03125 49.703125 -8.453125 
Q 36.71875 -7.765625 33.984375 -0.140625 
Q 31.453125 7.671875 40.140625 19.78125 
Q 48.640625 31.390625 79.984375 67.625 
L 36.71875 67.625 
L 36.71875 75.34375 
L 90.140625 75.34375 
L 90.140625 66.265625 
Q 66.5 40.484375 49.03125 18.40625 
Q 40.828125 7.375 41.796875 3.375 
Q 42.1875 -0.734375 52.640625 -1.03125 
Q 64.546875 -1.515625 76.375 -0.921875 
Q 83.296875 -0.640625 85.546875 1.03125 
Q 88.09375 2.6875 88.875 7.859375 
Q 89.84375 13.234375 90.53125 25.828125 
z
M 1.375 34.515625 
Q 15.625 54.25 23.921875 82.859375 
L 31.9375 80.515625 
Q 27.9375 68.5625 23.25 58.0625 
L 23.25 -12.453125 
L 15.625 -12.453125 
L 15.625 42.828125 
Q 10.5 33.640625 4.6875 25.921875 
Q 3.328125 30.21875 1.375 34.515625 
z
" id="MicrosoftYaHei-20159"/>
      <path d="M 2.9375 48.1875 
L 97.265625 48.1875 
L 97.265625 40.765625 
L 66.40625 40.765625 
L 66.40625 2.6875 
Q 66.40625 -3.078125 72.265625 -3.078125 
L 80.671875 -3.078125 
Q 87.703125 -3.078125 88.671875 3.375 
Q 89.546875 8.84375 90.140625 17.234375 
Q 94.046875 15.875 98.640625 14.796875 
Q 97.65625 6.390625 96.578125 0.734375 
Q 94.625 -10.015625 82.421875 -10.015625 
L 70.515625 -10.015625 
Q 58.203125 -10.015625 58.203125 2 
L 58.203125 40.765625 
L 38.28125 40.765625 
L 38.28125 37.640625 
Q 38.28125 16.9375 32.03125 6.984375 
Q 25.78125 -3.859375 7.328125 -13.234375 
Q 3.8125 -8.9375 1.5625 -6.6875 
Q 18.453125 1.609375 24.3125 10.796875 
Q 30.078125 19.578125 30.078125 37.25 
L 30.078125 40.765625 
L 2.9375 40.765625 
z
M 12.3125 76.609375 
L 88.09375 76.609375 
L 88.09375 69.1875 
L 12.3125 69.1875 
z
" id="MicrosoftYaHei-20803"/>
      <path d="M 1.5625 -4.734375 
Q 44.140625 19.875 46.578125 81.59375 
L 55.171875 81.59375 
Q 54.640625 71.140625 53.125 61.671875 
Q 65.234375 12.84375 98.640625 -2.59375 
Q 94.53125 -7.078125 91.40625 -11.078125 
Q 62.40625 5.328125 50.046875 46.96875 
Q 39.359375 6.734375 7.71875 -12.15625 
Q 5.078125 -8.546875 1.5625 -4.734375 
z
" id="MicrosoftYaHei-20154"/>
      <path d="M 11.328125 79.046875 
L 89.546875 79.046875 
L 89.546875 43.40625 
L 81.84375 43.40625 
L 81.84375 47.703125 
L 59.90625 47.703125 
Q 60.75 38.09375 62.40625 30.125 
L 97.171875 30.125 
L 97.171875 23.09375 
L 64.15625 23.09375 
Q 69.140625 6 79 -2 
Q 83.890625 -6 86.625 -0.4375 
Q 88.96875 4.34375 90.140625 16.15625 
Q 94.625 14.203125 97.65625 13.328125 
Q 96 2.296875 93.65625 -3.953125 
Q 90.4375 -12.25 83.984375 -12.25 
Q 78.125 -12.25 72.46875 -7.28125 
Q 61.71875 1.90625 56.25 23.09375 
L 18.953125 23.09375 
L 18.953125 -2.390625 
Q 30.171875 1.125 42.875 6.5 
Q 42.484375 2 42.78125 -2.09375 
Q 26.953125 -7.46875 16.5 -11.671875 
Q 15.328125 -12.25 12.890625 -13.53125 
L 8.59375 -6.296875 
Q 11.328125 -4.34375 11.328125 -0.828125 
z
M 81.84375 72.015625 
L 18.953125 72.015625 
L 18.953125 54.734375 
L 81.84375 54.734375 
z
M 52.09375 47.703125 
L 18.953125 47.703125 
L 18.953125 30.125 
L 54.6875 30.125 
Q 53.078125 38.1875 52.09375 47.703125 
z
" id="MicrosoftYaHei-27665"/>
      <path d="M 19.140625 -2 
L 11.328125 -2 
L 11.328125 51.3125 
L 45.796875 51.3125 
L 45.796875 69.140625 
Q 27.59375 68.5 7.125 68.015625 
Q 6.546875 71.4375 5.765625 75.25 
Q 55.859375 75.828125 92.578125 78.46875 
L 93.75 71.234375 
Q 75.4375 70.265625 53.8125 69.4375 
L 53.8125 51.3125 
L 88.765625 51.3125 
L 88.765625 10.984375 
Q 88.765625 -1.421875 76.078125 -1.421875 
Q 71.6875 -1.421875 63.375 -1.3125 
Q 62.796875 2.296875 61.921875 6.59375 
Q 69.34375 6 74.703125 6 
Q 80.953125 6 80.953125 11.96875 
L 80.953125 44.28125 
L 53.8125 44.28125 
L 53.8125 -12.84375 
L 45.796875 -12.84375 
L 45.796875 44.28125 
L 19.140625 44.28125 
z
" id="MicrosoftYaHei-24065"/>
      <path d="M 17.390625 -17.1875 
L 8.984375 -17.1875 
Q 26.3125 2.546875 26.3125 29.5 
Q 26.3125 55.953125 9.078125 75.59375 
L 17.390625 75.59375 
Q 34.71875 56.6875 34.71875 29.5 
Q 34.71875 2 17.390625 -17.1875 
z
" id="MicrosoftYaHei-65289"/>
     </defs>
     <g transform="translate(23.329687 305.74)rotate(-90)scale(0.1 -0.1)">
      <use xlink:href="#MicrosoftYaHei-29983"/>
      <use x="100" xlink:href="#MicrosoftYaHei-20135"/>
      <use x="200" xlink:href="#MicrosoftYaHei-24635"/>
      <use x="300" xlink:href="#MicrosoftYaHei-20540"/>
      <use x="400" xlink:href="#MicrosoftYaHei-65288"/>
      <use x="500" xlink:href="#MicrosoftYaHei-20159"/>
      <use x="600" xlink:href="#MicrosoftYaHei-20803"/>
      <use x="700" xlink:href="#MicrosoftYaHei-20154"/>
      <use x="800" xlink:href="#MicrosoftYaHei-27665"/>
      <use x="900" xlink:href="#MicrosoftYaHei-24065"/>
      <use x="1000" xlink:href="#MicrosoftYaHei-65289"/>
     </g>
    </g>
   </g>
   <g id="patch_3">
    <path d="M 72 441 
L 72 60.48 
" style="fill:none;stroke:#000000;stroke-linecap:square;stroke-linejoin:miter;stroke-width:0.8;"/>
   </g>
   <g id="patch_4">
    <path d="M 518.4 441 
L 518.4 60.48 
" style="fill:none;stroke:#000000;stroke-linecap:square;stroke-linejoin:miter;stroke-width:0.8;"/>
   </g>
   <g id="patch_5">
    <path d="M 72 441 
L 518.4 441 
" style="fill:none;stroke:#000000;stroke-linecap:square;stroke-linejoin:miter;stroke-width:0.8;"/>
   </g>
   <g id="patch_6">
    <path d="M 72 60.48 
L 518.4 60.48 
" style="fill:none;stroke:#000000;stroke-linecap:square;stroke-linejoin:miter;stroke-width:0.8;"/>
   </g>
   <g id="text_27">
    <!-- 2000~2017年各产业各季度国民生产总值散点图 -->
    <defs>
     <path d="M 63.328125 39.703125 
Q 62.890625 31.6875 58.9375 27.34375 
Q 54.984375 23 48.34375 23 
Q 42.578125 23 34.421875 28.65625 
Q 29.203125 32.125 26.078125 32.125 
Q 18.796875 32.125 18.5 22.953125 
L 10.9375 22.953125 
Q 11.28125 30.953125 15.328125 35.296875 
Q 19.390625 39.65625 25.984375 39.65625 
Q 31.5 39.65625 38.375 35.0625 
Q 45.265625 30.421875 48.6875 30.421875 
Q 51.90625 30.421875 53.8125 32.953125 
Q 55.71875 35.5 55.8125 39.703125 
z
" id="MicrosoftYaHei-126"/>
     <path d="M 28.71875 83.84375 
L 36.328125 81.109375 
Q 34.234375 77.09375 31.84375 73.296875 
L 85.359375 73.296875 
L 85.359375 66.15625 
Q 75.296875 53.5625 59.46875 44.234375 
Q 76.265625 36.96875 99.609375 35.40625 
Q 96.390625 30.515625 94.140625 26.609375 
Q 68.5625 30.421875 51.125 39.75 
Q 31.59375 30.078125 4.6875 24.65625 
Q 2.640625 28.5625 0.484375 32.171875 
Q 24.859375 35.984375 43.359375 44.4375 
Q 31.890625 52.296875 24.8125 63.09375 
Q 17.78125 53.8125 8.890625 45.5625 
Q 6.25 48.78125 3.515625 51.21875 
Q 20.125 65.484375 28.71875 83.84375 
z
M 17.1875 26.03125 
L 83.796875 26.03125 
L 83.796875 -12.546875 
L 76.171875 -12.546875 
L 76.171875 -6.890625 
L 24.8125 -6.890625 
L 24.8125 -12.546875 
L 17.1875 -12.546875 
z
M 76.171875 19 
L 24.8125 19 
L 24.8125 -0.046875 
L 76.171875 -0.046875 
z
M 74.90625 66.265625 
L 31.0625 66.265625 
Q 38.96875 55.421875 51.171875 48.34375 
Q 64.890625 55.859375 74.90625 66.265625 
z
" id="MicrosoftYaHei-21508"/>
     <path d="M 1.859375 0.734375 
L 33.203125 0.734375 
L 33.203125 81.390625 
L 41.40625 81.390625 
L 41.40625 0.734375 
L 58.5 0.734375 
L 58.5 81.390625 
L 66.703125 81.390625 
L 66.703125 0.734375 
L 98.34375 0.734375 
L 98.34375 -6.5 
L 1.859375 -6.5 
z
M 13.1875 62.25 
Q 21.1875 43.40625 28.71875 22.21875 
L 20.703125 18.609375 
Q 14.15625 39.203125 6.0625 59.125 
z
M 70.21875 21.34375 
Q 79.984375 42.046875 86.625 61.375 
L 94.53125 58.25 
Q 85.453125 34.90625 77.25 18.109375 
z
" id="MicrosoftYaHei-19994"/>
     <path d="M 7.328125 78.078125 
L 92.78125 78.078125 
L 92.78125 -13.03125 
L 85.25 -13.03125 
L 85.25 -8.15625 
L 14.84375 -8.15625 
L 14.84375 -13.140625 
L 7.328125 -13.140625 
z
M 85.25 71.140625 
L 14.84375 71.140625 
L 14.84375 -1.21875 
L 85.25 -1.21875 
z
M 19.34375 15.765625 
L 46.296875 15.765625 
L 46.296875 35.109375 
L 22.75 35.109375 
L 22.75 41.75 
L 46.296875 41.75 
L 46.296875 54.828125 
L 20.90625 54.828125 
L 20.90625 61.46875 
L 79.109375 61.46875 
L 79.109375 54.828125 
L 53.515625 54.828125 
L 53.515625 41.75 
L 77.15625 41.75 
L 77.15625 35.109375 
L 53.515625 35.109375 
L 53.515625 15.765625 
L 80.671875 15.765625 
L 80.671875 9.125 
L 19.34375 9.125 
z
M 58.59375 28.859375 
L 64.0625 32.953125 
Q 69.4375 27.390625 73.25 22.515625 
L 67.484375 18.109375 
Q 62.796875 24.46875 58.59375 28.859375 
z
" id="MicrosoftYaHei-22269"/>
     <path d="M 65.234375 83.25 
L 73.046875 82.078125 
Q 70.796875 72.609375 68.0625 64.40625 
L 98.140625 64.40625 
L 98.140625 57.765625 
L 91.265625 57.765625 
Q 89.15625 28.421875 79.5 11.8125 
Q 87.25 2.046875 99.3125 -4.734375 
Q 96.1875 -8.84375 94.046875 -12.25 
Q 82.71875 -4.5 75 5.125 
Q 67.046875 -5.125 54.296875 -13.71875 
Q 52.15625 -10.890625 49.125 -7.765625 
Q 62.40625 1.21875 70.359375 11.8125 
Q 62.0625 25.6875 59.515625 44.1875 
Q 57.03125 39.546875 54.296875 35.5 
Q 52.34375 38.328125 49.421875 41.359375 
Q 51.375 44.4375 53.125 47.796875 
L 1.953125 47.796875 
L 1.953125 54.046875 
L 14.359375 54.046875 
L 14.359375 65.578125 
L 3.90625 65.578125 
L 3.90625 71.828125 
L 14.359375 71.828125 
L 14.359375 82.953125 
L 21.390625 82.953125 
L 21.390625 71.828125 
L 35.15625 71.828125 
L 35.15625 82.953125 
L 42.1875 82.953125 
L 42.1875 71.828125 
L 51.765625 71.828125 
L 51.765625 65.578125 
L 42.1875 65.578125 
L 42.1875 54.046875 
L 53.515625 54.046875 
L 53.515625 48.53125 
Q 61.234375 63.578125 65.234375 83.25 
z
M 14.84375 -13.03125 
L 7.8125 -13.03125 
L 7.8125 40.375 
L 48.4375 40.375 
L 48.4375 -0.640625 
Q 48.4375 -11.859375 37.890625 -11.859375 
Q 33.59375 -11.859375 28.515625 -11.765625 
Q 27.9375 -7.953125 27.15625 -4.546875 
Q 32.125 -4.9375 36.328125 -4.9375 
Q 41.40625 -4.9375 41.40625 0.53125 
L 41.40625 5.8125 
L 14.84375 5.8125 
z
M 84.03125 57.765625 
L 65.625 57.765625 
Q 65.234375 56.640625 64.796875 55.5625 
Q 66.890625 33.0625 74.8125 18.84375 
Q 82.421875 33.109375 84.03125 57.765625 
z
M 14.84375 11.96875 
L 41.40625 11.96875 
L 41.40625 19.96875 
L 14.84375 19.96875 
z
M 41.40625 34.125 
L 14.84375 34.125 
L 14.84375 26.125 
L 41.40625 26.125 
z
M 21.390625 54.046875 
L 35.15625 54.046875 
L 35.15625 65.578125 
L 21.390625 65.578125 
z
" id="MicrosoftYaHei-25955"/>
     <path d="M 14.0625 52.78125 
L 44.734375 52.78125 
L 44.734375 83.453125 
L 52.9375 83.453125 
L 52.9375 71.734375 
L 96.578125 71.734375 
L 96.578125 64.703125 
L 52.9375 64.703125 
L 52.9375 52.78125 
L 87.5 52.78125 
L 87.5 15.484375 
L 79.5 15.484375 
L 79.5 19.578125 
L 22.078125 19.578125 
L 22.078125 15.484375 
L 14.0625 15.484375 
z
M 79.5 45.75 
L 22.078125 45.75 
L 22.078125 26.609375 
L 79.5 26.609375 
z
M 84.765625 13.234375 
Q 92.578125 1.421875 97.265625 -8.0625 
L 89.84375 -12.0625 
Q 84.96875 -2.09375 78.03125 9.71875 
z
M 21.390625 8.640625 
Q 13.96875 -4.734375 8.296875 -12.359375 
L 1.5625 -7.5625 
Q 7.90625 0.828125 14.546875 12.546875 
z
M 37.703125 12.9375 
Q 42.1875 3.078125 45.515625 -7.859375 
L 37.59375 -10.59375 
Q 34.578125 0.046875 30.671875 10.40625 
z
M 61.03125 13.625 
Q 65.71875 3.953125 69.53125 -6.59375 
L 61.8125 -9.625 
Q 59.078125 -0.828125 53.90625 10.890625 
z
" id="MicrosoftYaHei-28857"/>
     <path d="M 6.734375 79.25 
L 92.875 79.25 
L 92.875 -12.640625 
L 85.546875 -12.640625 
L 85.546875 -7.953125 
L 14.0625 -7.953125 
L 14.0625 -12.640625 
L 6.734375 -12.640625 
z
M 85.546875 72.21875 
L 14.0625 72.21875 
L 14.0625 -0.921875 
L 85.546875 -0.921875 
z
M 17.390625 48.296875 
Q 30.765625 57.953125 39.359375 71.046875 
L 45.796875 68.015625 
Q 44 65.328125 41.890625 62.75 
L 76.46875 62.75 
L 76.46875 56.984375 
Q 69.28125 48.296875 58.15625 41.3125 
Q 68.453125 37.84375 83.40625 35.890625 
Q 81.15625 31.5 80.171875 28.5625 
Q 62.84375 32.515625 50.875 37.5 
Q 38.921875 32.125 19.140625 27 
Q 17.78125 30.21875 15.828125 33.25 
Q 32.953125 36.765625 44.140625 41.3125 
Q 37.25 46.046875 32.28125 52.203125 
Q 27.640625 47.75 22.171875 43.5 
Q 20.21875 45.5625 17.390625 48.296875 
z
M 24.421875 10.5 
L 26.46875 17.234375 
Q 50.875 14.015625 73.4375 9.71875 
L 70.796875 2.296875 
Q 49.21875 7.078125 24.421875 10.5 
z
M 66.796875 56.6875 
L 36.671875 56.6875 
Q 36.53125 56.5 36.375 56.34375 
Q 42.046875 49.078125 50.6875 44.390625 
Q 60.796875 49.8125 66.796875 56.6875 
z
M 34.671875 23.484375 
L 36.625 30.03125 
Q 50.984375 27.875 66.796875 25.140625 
L 64.75 18.3125 
Q 48.734375 21.53125 34.671875 23.484375 
z
" id="MicrosoftYaHei-22270"/>
    </defs>
    <g transform="translate(166.602187 54.48)scale(0.12 -0.12)">
     <use xlink:href="#MicrosoftYaHei-50"/>
     <use x="58.642578" xlink:href="#MicrosoftYaHei-48"/>
     <use x="117.285156" xlink:href="#MicrosoftYaHei-48"/>
     <use x="175.927734" xlink:href="#MicrosoftYaHei-48"/>
     <use x="234.570312" xlink:href="#MicrosoftYaHei-126"/>
     <use x="308.740234" xlink:href="#MicrosoftYaHei-50"/>
     <use x="367.382812" xlink:href="#MicrosoftYaHei-48"/>
     <use x="426.025391" xlink:href="#MicrosoftYaHei-49"/>
     <use x="484.667969" xlink:href="#MicrosoftYaHei-55"/>
     <use x="543.310547" xlink:href="#MicrosoftYaHei-24180"/>
     <use x="643.310547" xlink:href="#MicrosoftYaHei-21508"/>
     <use x="743.310547" xlink:href="#MicrosoftYaHei-20135"/>
     <use x="843.310547" xlink:href="#MicrosoftYaHei-19994"/>
     <use x="943.310547" xlink:href="#MicrosoftYaHei-21508"/>
     <use x="1043.310547" xlink:href="#MicrosoftYaHei-23395"/>
     <use x="1143.310547" xlink:href="#MicrosoftYaHei-24230"/>
     <use x="1243.310547" xlink:href="#MicrosoftYaHei-22269"/>
     <use x="1343.310547" xlink:href="#MicrosoftYaHei-27665"/>
     <use x="1443.310547" xlink:href="#MicrosoftYaHei-29983"/>
     <use x="1543.310547" xlink:href="#MicrosoftYaHei-20135"/>
     <use x="1643.310547" xlink:href="#MicrosoftYaHei-24635"/>
     <use x="1743.310547" xlink:href="#MicrosoftYaHei-20540"/>
     <use x="1843.310547" xlink:href="#MicrosoftYaHei-25955"/>
     <use x="1943.310547" xlink:href="#MicrosoftYaHei-28857"/>
     <use x="2043.310547" xlink:href="#MicrosoftYaHei-22270"/>
    </g>
   </g>
   <g id="legend_1">
    <g id="patch_7">
     <path d="M 79 114.919062 
L 151 114.919062 
Q 153 114.919062 153 112.919062 
L 153 67.48 
Q 153 65.48 151 65.48 
L 79 65.48 
Q 77 65.48 77 67.48 
L 77 112.919062 
Q 77 114.919062 79 114.919062 
z
" style="fill:#ffffff;opacity:0.8;stroke:#cccccc;stroke-linejoin:miter;"/>
    </g>
    <g id="PathCollection_4">
     <g>
      <use style="fill:#ff0000;stroke:#ff0000;" x="91" xlink:href="#mf889cae123" y="74.84875"/>
     </g>
    </g>
    <g id="text_28">
     <!-- 第一产业 -->
     <g transform="translate(109 77.47375)scale(0.1 -0.1)">
      <use xlink:href="#MicrosoftYaHei-31532"/>
      <use x="100" xlink:href="#MicrosoftYaHei-19968"/>
      <use x="200" xlink:href="#MicrosoftYaHei-20135"/>
      <use x="300" xlink:href="#MicrosoftYaHei-19994"/>
     </g>
    </g>
    <g id="PathCollection_5">
     <g>
      <use style="fill:#0000ff;stroke:#0000ff;" x="91" xlink:href="#m710b362503" y="90.328438"/>
     </g>
    </g>
    <g id="text_29">
     <!-- 第二产业 -->
     <defs>
      <path d="M 10.15625 70.5625 
L 89.84375 70.5625 
L 89.84375 62.15625 
L 10.15625 62.15625 
z
M 2.9375 6.59375 
L 96.78125 6.59375 
L 96.78125 -1.609375 
L 2.9375 -1.609375 
z
" id="MicrosoftYaHei-20108"/>
     </defs>
     <g transform="translate(109 92.953438)scale(0.1 -0.1)">
      <use xlink:href="#MicrosoftYaHei-31532"/>
      <use x="100" xlink:href="#MicrosoftYaHei-20108"/>
      <use x="200" xlink:href="#MicrosoftYaHei-20135"/>
      <use x="300" xlink:href="#MicrosoftYaHei-19994"/>
     </g>
    </g>
    <g id="PathCollection_6">
     <g>
      <use style="fill:#ffff00;stroke:#ffff00;" x="91" xlink:href="#m7b9915fd95" y="105.808125"/>
     </g>
    </g>
    <g id="text_30">
     <!-- 第三产业 -->
     <defs>
      <path d="M 8.984375 73.296875 
L 90.828125 73.296875 
L 90.828125 64.890625 
L 8.984375 64.890625 
z
M 2.9375 2.59375 
L 97.265625 2.59375 
L 97.265625 -5.609375 
L 2.9375 -5.609375 
z
M 13.375 39.796875 
L 86.421875 39.796875 
L 86.421875 31.5 
L 13.375 31.5 
z
" id="MicrosoftYaHei-19977"/>
     </defs>
     <g transform="translate(109 108.433125)scale(0.1 -0.1)">
      <use xlink:href="#MicrosoftYaHei-31532"/>
      <use x="100" xlink:href="#MicrosoftYaHei-19977"/>
      <use x="200" xlink:href="#MicrosoftYaHei-20135"/>
      <use x="300" xlink:href="#MicrosoftYaHei-19994"/>
     </g>
    </g>
   </g>
  </g>
 </g>
 <defs>
  <clipPath id="p8a6028cdc9">
   <rect height="380.52" width="446.4" x="72" y="60.48"/>
  </clipPath>
 </defs>
</svg>
