<?xml version="1.0" encoding="utf-8" standalone="no"?>
<!DOCTYPE svg PUBLIC "-//W3C//DTD SVG 1.1//EN"
  "http://www.w3.org/Graphics/SVG/1.1/DTD/svg11.dtd">
<!-- Created with matplotlib (https://matplotlib.org/) -->
<svg height="504pt" version="1.1" viewBox="0 0 576 504" width="576pt" xmlns="http://www.w3.org/2000/svg" xmlns:xlink="http://www.w3.org/1999/xlink">
 <defs>
  <style type="text/css">
*{stroke-linecap:butt;stroke-linejoin:round;}
  </style>
 </defs>
 <g id="figure_1">
  <g id="patch_1">
   <path d="M 0 504 
L 576 504 
L 576 0 
L 0 0 
z
" style="fill:#ffffff;"/>
  </g>
  <g id="axes_1">
   <g id="patch_2">
    <path d="M 72 441 
L 518.4 441 
L 518.4 60.48 
L 72 60.48 
z
" style="fill:#ffffff;"/>
   </g>
   <g id="matplotlib.axis_1">
    <g id="xtick_1">
     <g id="line2d_1">
      <defs>
       <path d="M 0 0 
L 0 3.5 
" id="m1c6dd2e4f8" style="stroke:#000000;stroke-width:0.8;"/>
      </defs>
      <g>
       <use style="stroke:#000000;stroke-width:0.8;" x="86.322995" xlink:href="#m1c6dd2e4f8" y="441"/>
      </g>
     </g>
     <g id="text_1">
      <!-- 2000年第一季度 -->
      <defs>
       <path d="M 41.65625 55.8125 
Q 41.65625 61.921875 37.796875 65.40625 
Q 33.9375 68.890625 27.296875 68.890625 
Q 22.609375 68.890625 17.8125 66.5 
Q 13.03125 64.109375 8.890625 59.671875 
L 8.890625 68.953125 
Q 12.59375 72.796875 17.296875 74.84375 
Q 22.015625 76.90625 28.375 76.90625 
Q 38.625 76.90625 44.875 71.40625 
Q 51.125 65.921875 51.125 56.546875 
Q 51.125 48.1875 47.28125 42.078125 
Q 43.453125 35.984375 34.1875 29.59375 
Q 24.703125 23.046875 21.5 20.21875 
Q 18.3125 17.390625 17.03125 14.796875 
Q 15.765625 12.203125 15.765625 8.5 
L 53.375 8.5 
L 53.375 0 
L 5.8125 0 
L 5.8125 3.765625 
Q 5.8125 10.296875 7.59375 14.859375 
Q 9.375 19.4375 13.46875 23.75 
Q 17.578125 28.078125 26.265625 34.125 
Q 35.15625 40.375 38.40625 45.09375 
Q 41.65625 49.8125 41.65625 55.8125 
z
" id="MicrosoftYaHei-50"/>
       <path d="M 4.4375 36.328125 
Q 4.4375 56.34375 11.078125 66.625 
Q 17.71875 76.90625 30.328125 76.90625 
Q 54.34375 76.90625 54.34375 38.140625 
Q 54.34375 19 47.578125 8.859375 
Q 40.828125 -1.265625 28.609375 -1.265625 
Q 17.09375 -1.265625 10.765625 8.34375 
Q 4.4375 17.96875 4.4375 36.328125 
z
M 14.203125 36.765625 
Q 14.203125 6.640625 29.5 6.640625 
Q 44.53125 6.640625 44.53125 37.25 
Q 44.53125 68.953125 29.78125 68.953125 
Q 14.203125 68.953125 14.203125 36.765625 
z
" id="MicrosoftYaHei-48"/>
       <path d="M 1.859375 19.96875 
L 17.578125 19.96875 
L 17.578125 47.90625 
L 52.15625 47.90625 
L 52.15625 65.28125 
L 23.4375 65.28125 
Q 16.84375 53.421875 8.6875 43.40625 
Q 6.15625 46.140625 2.640625 48.875 
Q 16.5 64.5 23.4375 83.9375 
L 31.453125 81.6875 
Q 29.390625 76.859375 27.15625 72.3125 
L 94.34375 72.3125 
L 94.34375 65.28125 
L 60.0625 65.28125 
L 60.0625 47.90625 
L 92.671875 47.90625 
L 92.671875 41.0625 
L 60.0625 41.0625 
L 60.0625 19.96875 
L 98.734375 19.96875 
L 98.734375 12.9375 
L 60.0625 12.9375 
L 60.0625 -13.421875 
L 52.15625 -13.421875 
L 52.15625 12.9375 
L 1.859375 12.9375 
z
M 25.296875 19.96875 
L 52.15625 19.96875 
L 52.15625 41.0625 
L 25.296875 41.0625 
z
" id="MicrosoftYaHei-24180"/>
       <path d="M 62.59375 83.546875 
L 71 83.546875 
Q 68.84375 78.71875 66.5 74.359375 
L 97.265625 74.359375 
L 97.265625 68.3125 
L 72.65625 68.3125 
Q 76.90625 64.15625 80.671875 59.71875 
L 75.09375 55.515625 
L 87.703125 55.515625 
L 87.703125 29.4375 
L 80.171875 29.4375 
L 80.171875 32.953125 
L 53.609375 32.953125 
L 53.609375 23.1875 
L 92.875 23.1875 
Q 92.484375 14.40625 91.890625 6.5 
Q 91.21875 -5.8125 79.390625 -5.8125 
Q 73.4375 -5.8125 64.65625 -5.71875 
Q 63.96875 -2.09375 62.984375 2 
Q 72.5625 1.515625 77.9375 1.515625 
Q 83.6875 1.515625 84.1875 7.28125 
Q 84.671875 11.859375 84.859375 16.546875 
L 53.609375 16.546875 
L 53.609375 -13.328125 
L 45.796875 -13.328125 
L 45.796875 14.203125 
Q 32.171875 -2.296875 4.78125 -10.984375 
Q 3.03125 -8.15625 0.6875 -4.734375 
Q 24.46875 2.25 38.484375 16.546875 
L 8.796875 16.546875 
L 8.796875 23.1875 
L 13.484375 39.59375 
L 45.796875 39.59375 
L 45.796875 48.875 
L 11.625 48.875 
L 11.625 55.515625 
L 30.8125 55.515625 
Q 26.765625 60.796875 22.75 65.375 
L 26.65625 68.3125 
L 19.484375 68.3125 
Q 13.671875 60.546875 6.0625 54.046875 
Q 4.109375 56.390625 1.171875 59.328125 
Q 13.578125 69.390625 20.21875 83.546875 
L 28.609375 83.546875 
Q 26.375 78.765625 23.640625 74.359375 
L 51.953125 74.359375 
L 51.953125 68.3125 
L 28.515625 68.3125 
Q 32.421875 64.359375 36.421875 59.8125 
L 30.953125 55.515625 
L 74.90625 55.515625 
Q 70.953125 60.84375 67.09375 65.28125 
L 71.234375 68.3125 
L 62.9375 68.3125 
Q 59.125 62.25 54.78125 57.375 
Q 52.640625 59.515625 48.828125 62.15625 
Q 57.03125 70.5625 62.59375 83.546875 
z
M 16.796875 23.1875 
L 45.796875 23.1875 
L 45.796875 32.953125 
L 19.53125 32.953125 
z
M 80.171875 48.875 
L 53.609375 48.875 
L 53.609375 39.59375 
L 80.171875 39.59375 
z
" id="MicrosoftYaHei-31532"/>
       <path d="M 1.5625 42.234375 
L 98.640625 42.234375 
L 98.640625 33.640625 
L 1.5625 33.640625 
z
" id="MicrosoftYaHei-19968"/>
       <path d="M 2.828125 61.46875 
L 46.296875 61.46875 
L 46.296875 71.4375 
Q 28.375 70.90625 11.140625 70.5625 
Q 10.75 73.6875 9.578125 77.390625 
Q 51.5625 77.984375 87.59375 80.125 
L 88.875 73 
Q 71 72.265625 53.71875 71.6875 
L 53.71875 61.46875 
L 96.296875 61.46875 
L 96.296875 54.828125 
L 62.359375 54.828125 
Q 76.765625 44.53125 99.125 39.5 
Q 96.78125 36.1875 94.625 32.28125 
Q 68.65625 40.1875 53.71875 54.34375 
L 53.71875 38.921875 
L 46.296875 38.921875 
L 46.296875 54.5 
Q 32.234375 41.265625 5.171875 31.296875 
Q 3.515625 34.625 0.59375 37.9375 
Q 23.921875 45.265625 37.3125 54.828125 
L 2.828125 54.828125 
z
M 1.765625 16.453125 
L 48.53125 16.453125 
L 48.53125 20.75 
L 64.359375 29.25 
L 21.484375 29.25 
L 21.484375 35.890625 
L 76.5625 35.890625 
L 76.5625 29.15625 
L 55.953125 18.015625 
L 55.953125 16.453125 
L 98.34375 16.453125 
L 98.34375 9.625 
L 55.953125 9.625 
L 55.953125 0.828125 
Q 55.953125 -6.5 53.328125 -8.9375 
Q 50.875 -11.765625 44.046875 -11.765625 
Q 36.921875 -11.765625 28.515625 -11.578125 
Q 28.21875 -7.765625 27.34375 -3.078125 
Q 35.25 -3.953125 42.96875 -4.046875 
Q 48.53125 -4.15625 48.53125 1.515625 
L 48.53125 9.625 
L 1.765625 9.625 
z
" id="MicrosoftYaHei-23395"/>
       <path d="M 24.21875 19 
L 24.21875 25.4375 
L 85.453125 25.4375 
L 85.453125 19.09375 
Q 76.609375 9.578125 64.796875 2.546875 
Q 78.90625 -3.125 97.859375 -4.828125 
L 94.046875 -12.453125 
Q 72.265625 -9.421875 56.9375 -1.703125 
Q 40.625 -9.671875 19.53125 -13.53125 
Q 17.96875 -10.40625 15.53125 -6.5 
Q 34.859375 -3.46875 49.46875 2.59375 
Q 39.015625 9.375 32.28125 19 
z
M 21.296875 55.328125 
L 35.84375 55.328125 
L 35.84375 63.53125 
L 43.265625 63.53125 
L 43.265625 55.328125 
L 70.90625 55.328125 
L 70.90625 63.625 
L 78.328125 63.625 
L 78.328125 55.328125 
L 96.09375 55.328125 
L 96.09375 48.875 
L 78.328125 48.875 
L 78.328125 30.125 
L 70.90625 30.125 
L 70.90625 33.546875 
L 43.265625 33.546875 
L 43.265625 30.03125 
L 35.84375 30.03125 
L 35.84375 48.875 
L 21.296875 48.875 
z
M 47.265625 80.8125 
L 54.390625 84.234375 
Q 57.71875 79 61.078125 72.40625 
L 97.078125 72.40625 
L 97.078125 65.578125 
L 19.140625 65.578125 
L 19.140625 36.1875 
Q 19.140625 2.78125 6.15625 -13.625 
Q 3.71875 -10.40625 0.59375 -6.984375 
Q 11.328125 6.203125 11.53125 36.671875 
L 11.53125 72.40625 
L 52.046875 72.40625 
Q 49.8125 76.703125 47.265625 80.8125 
z
M 43.265625 39.796875 
L 70.90625 39.796875 
L 70.90625 48.875 
L 43.265625 48.875 
z
M 75.296875 19 
L 40.4375 19 
Q 47.359375 11.375 57.125 6.109375 
Q 67.71875 11.578125 75.296875 19 
z
" id="MicrosoftYaHei-24230"/>
      </defs>
      <g transform="translate(62.299594 505.593847)rotate(-45)scale(0.1 -0.1)">
       <use xlink:href="#MicrosoftYaHei-50"/>
       <use x="58.642578" xlink:href="#MicrosoftYaHei-48"/>
       <use x="117.285156" xlink:href="#MicrosoftYaHei-48"/>
       <use x="175.927734" xlink:href="#MicrosoftYaHei-48"/>
       <use x="234.570312" xlink:href="#MicrosoftYaHei-24180"/>
       <use x="334.570312" xlink:href="#MicrosoftYaHei-31532"/>
       <use x="434.570312" xlink:href="#MicrosoftYaHei-19968"/>
       <use x="534.570312" xlink:href="#MicrosoftYaHei-23395"/>
       <use x="634.570312" xlink:href="#MicrosoftYaHei-24230"/>
      </g>
     </g>
    </g>
    <g id="xtick_2">
     <g id="line2d_2">
      <g>
       <use style="stroke:#000000;stroke-width:0.8;" x="110.194652" xlink:href="#m1c6dd2e4f8" y="441"/>
      </g>
     </g>
     <g id="text_2">
      <!-- 2001年第一季度 -->
      <defs>
       <path d="M 27.828125 0 
L 27.828125 64.703125 
Q 25.59375 62.453125 20.234375 59.671875 
Q 14.890625 56.890625 10.359375 55.765625 
L 10.359375 65.140625 
Q 16.359375 66.796875 23.1875 70.4375 
Q 30.03125 74.078125 33.6875 77.296875 
L 37.3125 77.296875 
L 37.3125 0 
z
" id="MicrosoftYaHei-49"/>
      </defs>
      <g transform="translate(86.171252 505.593847)rotate(-45)scale(0.1 -0.1)">
       <use xlink:href="#MicrosoftYaHei-50"/>
       <use x="58.642578" xlink:href="#MicrosoftYaHei-48"/>
       <use x="117.285156" xlink:href="#MicrosoftYaHei-48"/>
       <use x="175.927734" xlink:href="#MicrosoftYaHei-49"/>
       <use x="234.570312" xlink:href="#MicrosoftYaHei-24180"/>
       <use x="334.570312" xlink:href="#MicrosoftYaHei-31532"/>
       <use x="434.570312" xlink:href="#MicrosoftYaHei-19968"/>
       <use x="534.570312" xlink:href="#MicrosoftYaHei-23395"/>
       <use x="634.570312" xlink:href="#MicrosoftYaHei-24230"/>
      </g>
     </g>
    </g>
    <g id="xtick_3">
     <g id="line2d_3">
      <g>
       <use style="stroke:#000000;stroke-width:0.8;" x="134.06631" xlink:href="#m1c6dd2e4f8" y="441"/>
      </g>
     </g>
     <g id="text_3">
      <!-- 2002年第一季度 -->
      <g transform="translate(110.04291 505.593847)rotate(-45)scale(0.1 -0.1)">
       <use xlink:href="#MicrosoftYaHei-50"/>
       <use x="58.642578" xlink:href="#MicrosoftYaHei-48"/>
       <use x="117.285156" xlink:href="#MicrosoftYaHei-48"/>
       <use x="175.927734" xlink:href="#MicrosoftYaHei-50"/>
       <use x="234.570312" xlink:href="#MicrosoftYaHei-24180"/>
       <use x="334.570312" xlink:href="#MicrosoftYaHei-31532"/>
       <use x="434.570312" xlink:href="#MicrosoftYaHei-19968"/>
       <use x="534.570312" xlink:href="#MicrosoftYaHei-23395"/>
       <use x="634.570312" xlink:href="#MicrosoftYaHei-24230"/>
      </g>
     </g>
    </g>
    <g id="xtick_4">
     <g id="line2d_4">
      <g>
       <use style="stroke:#000000;stroke-width:0.8;" x="157.937968" xlink:href="#m1c6dd2e4f8" y="441"/>
      </g>
     </g>
     <g id="text_4">
      <!-- 2003年第一季度 -->
      <defs>
       <path d="M 6.984375 12.640625 
Q 14.75 6.640625 24.515625 6.640625 
Q 32.328125 6.640625 36.890625 10.46875 
Q 41.453125 14.3125 41.453125 20.75 
Q 41.453125 35.109375 20.90625 35.109375 
L 14.59375 35.109375 
L 14.59375 43.015625 
L 20.609375 43.015625 
Q 38.8125 43.015625 38.8125 56.5 
Q 38.8125 68.953125 24.90625 68.953125 
Q 16.9375 68.953125 9.90625 63.578125 
L 9.90625 72.609375 
Q 17.328125 76.90625 27.25 76.90625 
Q 36.921875 76.90625 42.78125 71.84375 
Q 48.640625 66.796875 48.640625 58.734375 
Q 48.640625 43.890625 33.5 39.65625 
L 33.5 39.453125 
Q 41.703125 38.578125 46.453125 33.671875 
Q 51.21875 28.765625 51.21875 21.4375 
Q 51.21875 11.234375 43.875 4.984375 
Q 36.53125 -1.265625 24.3125 -1.265625 
Q 13.578125 -1.265625 6.984375 2.734375 
z
" id="MicrosoftYaHei-51"/>
      </defs>
      <g transform="translate(133.914567 505.593847)rotate(-45)scale(0.1 -0.1)">
       <use xlink:href="#MicrosoftYaHei-50"/>
       <use x="58.642578" xlink:href="#MicrosoftYaHei-48"/>
       <use x="117.285156" xlink:href="#MicrosoftYaHei-48"/>
       <use x="175.927734" xlink:href="#MicrosoftYaHei-51"/>
       <use x="234.570312" xlink:href="#MicrosoftYaHei-24180"/>
       <use x="334.570312" xlink:href="#MicrosoftYaHei-31532"/>
       <use x="434.570312" xlink:href="#MicrosoftYaHei-19968"/>
       <use x="534.570312" xlink:href="#MicrosoftYaHei-23395"/>
       <use x="634.570312" xlink:href="#MicrosoftYaHei-24230"/>
      </g>
     </g>
    </g>
    <g id="xtick_5">
     <g id="line2d_5">
      <g>
       <use style="stroke:#000000;stroke-width:0.8;" x="181.809626" xlink:href="#m1c6dd2e4f8" y="441"/>
      </g>
     </g>
     <g id="text_5">
      <!-- 2004年第一季度 -->
      <defs>
       <path d="M 45.40625 75.640625 
L 45.40625 25.6875 
L 56.734375 25.6875 
L 56.734375 17.78125 
L 45.40625 17.78125 
L 45.40625 0 
L 36.140625 0 
L 36.140625 17.78125 
L 0.828125 17.78125 
L 0.828125 25.25 
Q 10.25 35.84375 19.765625 49.65625 
Q 29.296875 63.484375 35.5 75.640625 
z
M 11.578125 25.6875 
L 36.140625 25.6875 
L 36.140625 61.71875 
Q 31.0625 52.59375 25.25 44.015625 
Q 19.4375 35.453125 11.578125 25.6875 
z
" id="MicrosoftYaHei-52"/>
      </defs>
      <g transform="translate(157.786225 505.593847)rotate(-45)scale(0.1 -0.1)">
       <use xlink:href="#MicrosoftYaHei-50"/>
       <use x="58.642578" xlink:href="#MicrosoftYaHei-48"/>
       <use x="117.285156" xlink:href="#MicrosoftYaHei-48"/>
       <use x="175.927734" xlink:href="#MicrosoftYaHei-52"/>
       <use x="234.570312" xlink:href="#MicrosoftYaHei-24180"/>
       <use x="334.570312" xlink:href="#MicrosoftYaHei-31532"/>
       <use x="434.570312" xlink:href="#MicrosoftYaHei-19968"/>
       <use x="534.570312" xlink:href="#MicrosoftYaHei-23395"/>
       <use x="634.570312" xlink:href="#MicrosoftYaHei-24230"/>
      </g>
     </g>
    </g>
    <g id="xtick_6">
     <g id="line2d_6">
      <g>
       <use style="stroke:#000000;stroke-width:0.8;" x="205.681283" xlink:href="#m1c6dd2e4f8" y="441"/>
      </g>
     </g>
     <g id="text_6">
      <!-- 2005年第一季度 -->
      <defs>
       <path d="M 51.46875 23.34375 
Q 51.46875 12.25 44.109375 5.46875 
Q 36.765625 -1.3125 24.359375 -1.3125 
Q 13.71875 -1.3125 8.5 1.859375 
L 8.5 11.625 
Q 16.15625 6.640625 24.125 6.640625 
Q 32.03125 6.640625 36.890625 11 
Q 41.75 15.375 41.75 22.609375 
Q 41.75 29.828125 36.6875 33.859375 
Q 31.640625 37.890625 22.40625 37.890625 
Q 15.28125 37.890625 9.578125 37.25 
L 12.359375 75.640625 
L 47.703125 75.640625 
L 47.703125 67.234375 
L 20.40625 67.234375 
L 18.84375 45.796875 
L 25.734375 46.09375 
Q 37.75 46.09375 44.609375 40.109375 
Q 51.46875 34.125 51.46875 23.34375 
z
" id="MicrosoftYaHei-53"/>
      </defs>
      <g transform="translate(181.657883 505.593847)rotate(-45)scale(0.1 -0.1)">
       <use xlink:href="#MicrosoftYaHei-50"/>
       <use x="58.642578" xlink:href="#MicrosoftYaHei-48"/>
       <use x="117.285156" xlink:href="#MicrosoftYaHei-48"/>
       <use x="175.927734" xlink:href="#MicrosoftYaHei-53"/>
       <use x="234.570312" xlink:href="#MicrosoftYaHei-24180"/>
       <use x="334.570312" xlink:href="#MicrosoftYaHei-31532"/>
       <use x="434.570312" xlink:href="#MicrosoftYaHei-19968"/>
       <use x="534.570312" xlink:href="#MicrosoftYaHei-23395"/>
       <use x="634.570312" xlink:href="#MicrosoftYaHei-24230"/>
      </g>
     </g>
    </g>
    <g id="xtick_7">
     <g id="line2d_7">
      <g>
       <use style="stroke:#000000;stroke-width:0.8;" x="229.552941" xlink:href="#m1c6dd2e4f8" y="441"/>
      </g>
     </g>
     <g id="text_7">
      <!-- 2006年第一季度 -->
      <defs>
       <path d="M 49.703125 65.921875 
Q 43.796875 68.953125 37.359375 68.953125 
Q 27.546875 68.953125 21.578125 60.40625 
Q 15.625 51.859375 15.53125 37.0625 
L 15.765625 37.0625 
Q 21.140625 47.46875 32.90625 47.46875 
Q 42.71875 47.46875 48.578125 41.0625 
Q 54.4375 34.671875 54.4375 24.078125 
Q 54.4375 12.984375 47.671875 5.859375 
Q 40.921875 -1.265625 30.421875 -1.265625 
Q 18.890625 -1.265625 12.328125 7.734375 
Q 5.765625 16.75 5.765625 33.296875 
Q 5.765625 53.328125 14.375 65.109375 
Q 23 76.90625 37.0625 76.90625 
Q 45.125 76.90625 49.703125 74.703125 
z
M 16.109375 24.75 
Q 16.109375 17.28125 20.09375 11.953125 
Q 24.078125 6.640625 30.671875 6.640625 
Q 36.921875 6.640625 40.828125 11.234375 
Q 44.734375 15.828125 44.734375 23.046875 
Q 44.734375 30.859375 41.046875 35.203125 
Q 37.359375 39.546875 30.5625 39.546875 
Q 24.125 39.546875 20.109375 35.15625 
Q 16.109375 30.765625 16.109375 24.75 
z
" id="MicrosoftYaHei-54"/>
      </defs>
      <g transform="translate(205.529541 505.593847)rotate(-45)scale(0.1 -0.1)">
       <use xlink:href="#MicrosoftYaHei-50"/>
       <use x="58.642578" xlink:href="#MicrosoftYaHei-48"/>
       <use x="117.285156" xlink:href="#MicrosoftYaHei-48"/>
       <use x="175.927734" xlink:href="#MicrosoftYaHei-54"/>
       <use x="234.570312" xlink:href="#MicrosoftYaHei-24180"/>
       <use x="334.570312" xlink:href="#MicrosoftYaHei-31532"/>
       <use x="434.570312" xlink:href="#MicrosoftYaHei-19968"/>
       <use x="534.570312" xlink:href="#MicrosoftYaHei-23395"/>
       <use x="634.570312" xlink:href="#MicrosoftYaHei-24230"/>
      </g>
     </g>
    </g>
    <g id="xtick_8">
     <g id="line2d_8">
      <g>
       <use style="stroke:#000000;stroke-width:0.8;" x="253.424599" xlink:href="#m1c6dd2e4f8" y="441"/>
      </g>
     </g>
     <g id="text_8">
      <!-- 2007年第一季度 -->
      <defs>
       <path d="M 53.46875 69.734375 
Q 41.546875 48.921875 34.734375 31.21875 
Q 27.9375 13.53125 26.3125 0 
L 16.359375 0 
Q 18.171875 13.328125 24.90625 30.421875 
Q 31.640625 47.515625 42.921875 67.1875 
L 5.421875 67.1875 
L 5.421875 75.640625 
L 53.46875 75.640625 
z
" id="MicrosoftYaHei-55"/>
      </defs>
      <g transform="translate(229.401198 505.593847)rotate(-45)scale(0.1 -0.1)">
       <use xlink:href="#MicrosoftYaHei-50"/>
       <use x="58.642578" xlink:href="#MicrosoftYaHei-48"/>
       <use x="117.285156" xlink:href="#MicrosoftYaHei-48"/>
       <use x="175.927734" xlink:href="#MicrosoftYaHei-55"/>
       <use x="234.570312" xlink:href="#MicrosoftYaHei-24180"/>
       <use x="334.570312" xlink:href="#MicrosoftYaHei-31532"/>
       <use x="434.570312" xlink:href="#MicrosoftYaHei-19968"/>
       <use x="534.570312" xlink:href="#MicrosoftYaHei-23395"/>
       <use x="634.570312" xlink:href="#MicrosoftYaHei-24230"/>
      </g>
     </g>
    </g>
    <g id="xtick_9">
     <g id="line2d_9">
      <g>
       <use style="stroke:#000000;stroke-width:0.8;" x="277.296257" xlink:href="#m1c6dd2e4f8" y="441"/>
      </g>
     </g>
     <g id="text_9">
      <!-- 2008年第一季度 -->
      <defs>
       <path d="M 4.78125 21.09375 
Q 4.78125 27.640625 8.6875 33.15625 
Q 12.59375 38.671875 18.75 41.015625 
Q 13.8125 43.796875 10.9375 48.140625 
Q 8.0625 52.484375 8.0625 57.5625 
Q 8.0625 62.9375 10.8125 67.375 
Q 13.578125 71.828125 18.484375 74.359375 
Q 23.390625 76.90625 29.296875 76.90625 
Q 35.25 76.90625 40.1875 74.390625 
Q 45.125 71.875 47.859375 67.421875 
Q 50.59375 62.984375 50.59375 57.5625 
Q 50.59375 52.59375 47.78125 48.21875 
Q 44.96875 43.84375 39.984375 41.015625 
Q 46.140625 38.625 50 33.109375 
Q 53.859375 27.59375 53.859375 21.09375 
Q 53.859375 14.65625 50.78125 9.546875 
Q 47.703125 4.4375 42.03125 1.609375 
Q 36.375 -1.21875 29.296875 -1.21875 
Q 22.265625 -1.21875 16.640625 1.609375 
Q 11.03125 4.4375 7.90625 9.5625 
Q 4.78125 14.703125 4.78125 21.09375 
z
M 14.15625 21.53125 
Q 14.15625 14.796875 18.3125 10.734375 
Q 22.46875 6.6875 29.34375 6.6875 
Q 36.078125 6.6875 40.34375 10.8125 
Q 44.625 14.9375 44.625 21.53125 
Q 44.625 27.78125 40.296875 32.046875 
Q 35.984375 36.328125 29.34375 36.328125 
Q 22.75 36.328125 18.453125 32.15625 
Q 14.15625 27.984375 14.15625 21.53125 
z
M 16.890625 56.78125 
Q 16.890625 51.703125 20.5 48.0625 
Q 24.125 44.4375 29.34375 44.4375 
Q 34.46875 44.4375 38.203125 48.09375 
Q 41.9375 51.765625 41.9375 56.78125 
Q 41.9375 61.921875 38.34375 65.484375 
Q 34.765625 69.046875 29.34375 69.046875 
Q 23.96875 69.046875 20.421875 65.546875 
Q 16.890625 62.0625 16.890625 56.78125 
z
" id="MicrosoftYaHei-56"/>
      </defs>
      <g transform="translate(253.272856 505.593847)rotate(-45)scale(0.1 -0.1)">
       <use xlink:href="#MicrosoftYaHei-50"/>
       <use x="58.642578" xlink:href="#MicrosoftYaHei-48"/>
       <use x="117.285156" xlink:href="#MicrosoftYaHei-48"/>
       <use x="175.927734" xlink:href="#MicrosoftYaHei-56"/>
       <use x="234.570312" xlink:href="#MicrosoftYaHei-24180"/>
       <use x="334.570312" xlink:href="#MicrosoftYaHei-31532"/>
       <use x="434.570312" xlink:href="#MicrosoftYaHei-19968"/>
       <use x="534.570312" xlink:href="#MicrosoftYaHei-23395"/>
       <use x="634.570312" xlink:href="#MicrosoftYaHei-24230"/>
      </g>
     </g>
    </g>
    <g id="xtick_10">
     <g id="line2d_10">
      <g>
       <use style="stroke:#000000;stroke-width:0.8;" x="301.167914" xlink:href="#m1c6dd2e4f8" y="441"/>
      </g>
     </g>
     <g id="text_10">
      <!-- 2009年第一季度 -->
      <defs>
       <path d="M 9.03125 10.25 
Q 15.28125 6.640625 22.515625 6.640625 
Q 32.671875 6.640625 38.25 14.640625 
Q 43.84375 22.65625 43.84375 37.40625 
Q 43.75 37.3125 43.65625 37.40625 
Q 38.671875 27.9375 26.90625 27.9375 
Q 17.390625 27.9375 11.140625 34.46875 
Q 4.890625 41.015625 4.890625 51.46875 
Q 4.890625 62.59375 11.71875 69.75 
Q 18.5625 76.90625 29.4375 76.90625 
Q 40.71875 76.90625 47.0625 68.046875 
Q 53.421875 59.1875 53.421875 42.234375 
Q 53.421875 21.296875 45.21875 10.015625 
Q 37.015625 -1.265625 22.515625 -1.265625 
Q 14.546875 -1.265625 9.03125 1.3125 
z
M 14.546875 52.6875 
Q 14.546875 45.0625 18.453125 40.59375 
Q 22.359375 36.140625 29.25 36.140625 
Q 35.203125 36.140625 39.25 40.203125 
Q 43.3125 44.28125 43.3125 50.09375 
Q 43.3125 58.25 39.28125 63.59375 
Q 35.25 68.953125 28.65625 68.953125 
Q 22.5625 68.953125 18.546875 64.3125 
Q 14.546875 59.671875 14.546875 52.6875 
z
" id="MicrosoftYaHei-57"/>
      </defs>
      <g transform="translate(277.144514 505.593847)rotate(-45)scale(0.1 -0.1)">
       <use xlink:href="#MicrosoftYaHei-50"/>
       <use x="58.642578" xlink:href="#MicrosoftYaHei-48"/>
       <use x="117.285156" xlink:href="#MicrosoftYaHei-48"/>
       <use x="175.927734" xlink:href="#MicrosoftYaHei-57"/>
       <use x="234.570312" xlink:href="#MicrosoftYaHei-24180"/>
       <use x="334.570312" xlink:href="#MicrosoftYaHei-31532"/>
       <use x="434.570312" xlink:href="#MicrosoftYaHei-19968"/>
       <use x="534.570312" xlink:href="#MicrosoftYaHei-23395"/>
       <use x="634.570312" xlink:href="#MicrosoftYaHei-24230"/>
      </g>
     </g>
    </g>
    <g id="xtick_11">
     <g id="line2d_11">
      <g>
       <use style="stroke:#000000;stroke-width:0.8;" x="325.039572" xlink:href="#m1c6dd2e4f8" y="441"/>
      </g>
     </g>
     <g id="text_11">
      <!-- 2010年第一季度 -->
      <g transform="translate(301.016172 505.593847)rotate(-45)scale(0.1 -0.1)">
       <use xlink:href="#MicrosoftYaHei-50"/>
       <use x="58.642578" xlink:href="#MicrosoftYaHei-48"/>
       <use x="117.285156" xlink:href="#MicrosoftYaHei-49"/>
       <use x="175.927734" xlink:href="#MicrosoftYaHei-48"/>
       <use x="234.570312" xlink:href="#MicrosoftYaHei-24180"/>
       <use x="334.570312" xlink:href="#MicrosoftYaHei-31532"/>
       <use x="434.570312" xlink:href="#MicrosoftYaHei-19968"/>
       <use x="534.570312" xlink:href="#MicrosoftYaHei-23395"/>
       <use x="634.570312" xlink:href="#MicrosoftYaHei-24230"/>
      </g>
     </g>
    </g>
    <g id="xtick_12">
     <g id="line2d_12">
      <g>
       <use style="stroke:#000000;stroke-width:0.8;" x="348.91123" xlink:href="#m1c6dd2e4f8" y="441"/>
      </g>
     </g>
     <g id="text_12">
      <!-- 2011年第一季度 -->
      <g transform="translate(324.887829 505.593847)rotate(-45)scale(0.1 -0.1)">
       <use xlink:href="#MicrosoftYaHei-50"/>
       <use x="58.642578" xlink:href="#MicrosoftYaHei-48"/>
       <use x="117.285156" xlink:href="#MicrosoftYaHei-49"/>
       <use x="175.927734" xlink:href="#MicrosoftYaHei-49"/>
       <use x="234.570312" xlink:href="#MicrosoftYaHei-24180"/>
       <use x="334.570312" xlink:href="#MicrosoftYaHei-31532"/>
       <use x="434.570312" xlink:href="#MicrosoftYaHei-19968"/>
       <use x="534.570312" xlink:href="#MicrosoftYaHei-23395"/>
       <use x="634.570312" xlink:href="#MicrosoftYaHei-24230"/>
      </g>
     </g>
    </g>
    <g id="xtick_13">
     <g id="line2d_13">
      <g>
       <use style="stroke:#000000;stroke-width:0.8;" x="372.782888" xlink:href="#m1c6dd2e4f8" y="441"/>
      </g>
     </g>
     <g id="text_13">
      <!-- 2012年第一季度 -->
      <g transform="translate(348.759487 505.593847)rotate(-45)scale(0.1 -0.1)">
       <use xlink:href="#MicrosoftYaHei-50"/>
       <use x="58.642578" xlink:href="#MicrosoftYaHei-48"/>
       <use x="117.285156" xlink:href="#MicrosoftYaHei-49"/>
       <use x="175.927734" xlink:href="#MicrosoftYaHei-50"/>
       <use x="234.570312" xlink:href="#MicrosoftYaHei-24180"/>
       <use x="334.570312" xlink:href="#MicrosoftYaHei-31532"/>
       <use x="434.570312" xlink:href="#MicrosoftYaHei-19968"/>
       <use x="534.570312" xlink:href="#MicrosoftYaHei-23395"/>
       <use x="634.570312" xlink:href="#MicrosoftYaHei-24230"/>
      </g>
     </g>
    </g>
    <g id="xtick_14">
     <g id="line2d_14">
      <g>
       <use style="stroke:#000000;stroke-width:0.8;" x="396.654545" xlink:href="#m1c6dd2e4f8" y="441"/>
      </g>
     </g>
     <g id="text_14">
      <!-- 2013年第一季度 -->
      <g transform="translate(372.631145 505.593847)rotate(-45)scale(0.1 -0.1)">
       <use xlink:href="#MicrosoftYaHei-50"/>
       <use x="58.642578" xlink:href="#MicrosoftYaHei-48"/>
       <use x="117.285156" xlink:href="#MicrosoftYaHei-49"/>
       <use x="175.927734" xlink:href="#MicrosoftYaHei-51"/>
       <use x="234.570312" xlink:href="#MicrosoftYaHei-24180"/>
       <use x="334.570312" xlink:href="#MicrosoftYaHei-31532"/>
       <use x="434.570312" xlink:href="#MicrosoftYaHei-19968"/>
       <use x="534.570312" xlink:href="#MicrosoftYaHei-23395"/>
       <use x="634.570312" xlink:href="#MicrosoftYaHei-24230"/>
      </g>
     </g>
    </g>
    <g id="xtick_15">
     <g id="line2d_15">
      <g>
       <use style="stroke:#000000;stroke-width:0.8;" x="420.526203" xlink:href="#m1c6dd2e4f8" y="441"/>
      </g>
     </g>
     <g id="text_15">
      <!-- 2014年第一季度 -->
      <g transform="translate(396.502803 505.593847)rotate(-45)scale(0.1 -0.1)">
       <use xlink:href="#MicrosoftYaHei-50"/>
       <use x="58.642578" xlink:href="#MicrosoftYaHei-48"/>
       <use x="117.285156" xlink:href="#MicrosoftYaHei-49"/>
       <use x="175.927734" xlink:href="#MicrosoftYaHei-52"/>
       <use x="234.570312" xlink:href="#MicrosoftYaHei-24180"/>
       <use x="334.570312" xlink:href="#MicrosoftYaHei-31532"/>
       <use x="434.570312" xlink:href="#MicrosoftYaHei-19968"/>
       <use x="534.570312" xlink:href="#MicrosoftYaHei-23395"/>
       <use x="634.570312" xlink:href="#MicrosoftYaHei-24230"/>
      </g>
     </g>
    </g>
    <g id="xtick_16">
     <g id="line2d_16">
      <g>
       <use style="stroke:#000000;stroke-width:0.8;" x="444.397861" xlink:href="#m1c6dd2e4f8" y="441"/>
      </g>
     </g>
     <g id="text_16">
      <!-- 2015年第一季度 -->
      <g transform="translate(420.37446 505.593847)rotate(-45)scale(0.1 -0.1)">
       <use xlink:href="#MicrosoftYaHei-50"/>
       <use x="58.642578" xlink:href="#MicrosoftYaHei-48"/>
       <use x="117.285156" xlink:href="#MicrosoftYaHei-49"/>
       <use x="175.927734" xlink:href="#MicrosoftYaHei-53"/>
       <use x="234.570312" xlink:href="#MicrosoftYaHei-24180"/>
       <use x="334.570312" xlink:href="#MicrosoftYaHei-31532"/>
       <use x="434.570312" xlink:href="#MicrosoftYaHei-19968"/>
       <use x="534.570312" xlink:href="#MicrosoftYaHei-23395"/>
       <use x="634.570312" xlink:href="#MicrosoftYaHei-24230"/>
      </g>
     </g>
    </g>
    <g id="xtick_17">
     <g id="line2d_17">
      <g>
       <use style="stroke:#000000;stroke-width:0.8;" x="468.269519" xlink:href="#m1c6dd2e4f8" y="441"/>
      </g>
     </g>
     <g id="text_17">
      <!-- 2016年第一季度 -->
      <g transform="translate(444.246118 505.593847)rotate(-45)scale(0.1 -0.1)">
       <use xlink:href="#MicrosoftYaHei-50"/>
       <use x="58.642578" xlink:href="#MicrosoftYaHei-48"/>
       <use x="117.285156" xlink:href="#MicrosoftYaHei-49"/>
       <use x="175.927734" xlink:href="#MicrosoftYaHei-54"/>
       <use x="234.570312" xlink:href="#MicrosoftYaHei-24180"/>
       <use x="334.570312" xlink:href="#MicrosoftYaHei-31532"/>
       <use x="434.570312" xlink:href="#MicrosoftYaHei-19968"/>
       <use x="534.570312" xlink:href="#MicrosoftYaHei-23395"/>
       <use x="634.570312" xlink:href="#MicrosoftYaHei-24230"/>
      </g>
     </g>
    </g>
    <g id="xtick_18">
     <g id="line2d_18">
      <g>
       <use style="stroke:#000000;stroke-width:0.8;" x="492.141176" xlink:href="#m1c6dd2e4f8" y="441"/>
      </g>
     </g>
     <g id="text_18">
      <!-- 2017年第一季度 -->
      <g transform="translate(468.117776 505.593847)rotate(-45)scale(0.1 -0.1)">
       <use xlink:href="#MicrosoftYaHei-50"/>
       <use x="58.642578" xlink:href="#MicrosoftYaHei-48"/>
       <use x="117.285156" xlink:href="#MicrosoftYaHei-49"/>
       <use x="175.927734" xlink:href="#MicrosoftYaHei-55"/>
       <use x="234.570312" xlink:href="#MicrosoftYaHei-24180"/>
       <use x="334.570312" xlink:href="#MicrosoftYaHei-31532"/>
       <use x="434.570312" xlink:href="#MicrosoftYaHei-19968"/>
       <use x="534.570312" xlink:href="#MicrosoftYaHei-23395"/>
       <use x="634.570312" xlink:href="#MicrosoftYaHei-24230"/>
      </g>
     </g>
    </g>
    <g id="text_19">
     <!-- 年份 -->
     <defs>
      <path d="M 35.453125 41.453125 
L 84.28125 41.453125 
Q 84.1875 40.09375 82.8125 5.71875 
Q 82.421875 -11.078125 67.484375 -11.28125 
Q 59.46875 -11.28125 53.515625 -10.984375 
Q 53.03125 -6.5 52.046875 -2.875 
Q 58.796875 -3.765625 65.625 -3.953125 
Q 75.09375 -4.640625 75.203125 6.59375 
Q 75.984375 19.671875 76.375 34.625 
L 54.390625 34.625 
Q 54.109375 19.09375 49.703125 8.9375 
Q 44.4375 -2.6875 31.546875 -12.84375 
Q 29 -9.71875 25.875 -6.5 
Q 38.28125 3.171875 42.390625 12.0625 
Q 46.390625 19.921875 46.828125 34.625 
L 35.453125 34.625 
z
M 1.171875 36.765625 
Q 15.140625 55.21875 23.828125 82.5625 
L 31.453125 79.9375 
Q 26.703125 66.9375 21.09375 55.609375 
L 21.09375 -12.640625 
L 13.671875 -12.640625 
L 13.671875 42.046875 
Q 9.1875 34.625 4.296875 28.078125 
Q 2.828125 32.28125 1.171875 36.765625 
z
M 62.59375 79.9375 
L 69.046875 82.671875 
Q 78.71875 57.859375 98.828125 46.4375 
Q 95.125 42.140625 93.265625 39.3125 
Q 71.484375 54.25 62.59375 79.9375 
z
M 24.8125 42.828125 
Q 40.046875 56.203125 49.421875 78.65625 
L 56.34375 76.03125 
Q 47.265625 53.265625 30.671875 37.453125 
Q 27.15625 41.0625 24.8125 42.828125 
z
" id="MicrosoftYaHei-20221"/>
     </defs>
     <g transform="translate(285.2 519.345421)scale(0.1 -0.1)">
      <use xlink:href="#MicrosoftYaHei-24180"/>
      <use x="100" xlink:href="#MicrosoftYaHei-20221"/>
     </g>
    </g>
   </g>
   <g id="matplotlib.axis_2">
    <g id="ytick_1">
     <g id="line2d_19">
      <defs>
       <path d="M 0 0 
L -3.5 0 
" id="m4dab26e422" style="stroke:#000000;stroke-width:0.8;"/>
      </defs>
      <g>
       <use style="stroke:#000000;stroke-width:0.8;" x="72" xlink:href="#m4dab26e422" y="430.26126"/>
      </g>
     </g>
     <g id="text_20">
      <!-- 0 -->
      <g transform="translate(59.135937 434.258135)scale(0.1 -0.1)">
       <use xlink:href="#MicrosoftYaHei-48"/>
      </g>
     </g>
    </g>
    <g id="ytick_2">
     <g id="line2d_20">
      <g>
       <use style="stroke:#000000;stroke-width:0.8;" x="72" xlink:href="#m4dab26e422" y="361.533873"/>
      </g>
     </g>
     <g id="text_21">
      <!-- 20000 -->
      <g transform="translate(35.679688 365.530748)scale(0.1 -0.1)">
       <use xlink:href="#MicrosoftYaHei-50"/>
       <use x="58.642578" xlink:href="#MicrosoftYaHei-48"/>
       <use x="117.285156" xlink:href="#MicrosoftYaHei-48"/>
       <use x="175.927734" xlink:href="#MicrosoftYaHei-48"/>
       <use x="234.570312" xlink:href="#MicrosoftYaHei-48"/>
      </g>
     </g>
    </g>
    <g id="ytick_3">
     <g id="line2d_21">
      <g>
       <use style="stroke:#000000;stroke-width:0.8;" x="72" xlink:href="#m4dab26e422" y="292.806487"/>
      </g>
     </g>
     <g id="text_22">
      <!-- 40000 -->
      <g transform="translate(35.679688 296.803362)scale(0.1 -0.1)">
       <use xlink:href="#MicrosoftYaHei-52"/>
       <use x="58.642578" xlink:href="#MicrosoftYaHei-48"/>
       <use x="117.285156" xlink:href="#MicrosoftYaHei-48"/>
       <use x="175.927734" xlink:href="#MicrosoftYaHei-48"/>
       <use x="234.570312" xlink:href="#MicrosoftYaHei-48"/>
      </g>
     </g>
    </g>
    <g id="ytick_4">
     <g id="line2d_22">
      <g>
       <use style="stroke:#000000;stroke-width:0.8;" x="72" xlink:href="#m4dab26e422" y="224.0791"/>
      </g>
     </g>
     <g id="text_23">
      <!-- 60000 -->
      <g transform="translate(35.679688 228.075975)scale(0.1 -0.1)">
       <use xlink:href="#MicrosoftYaHei-54"/>
       <use x="58.642578" xlink:href="#MicrosoftYaHei-48"/>
       <use x="117.285156" xlink:href="#MicrosoftYaHei-48"/>
       <use x="175.927734" xlink:href="#MicrosoftYaHei-48"/>
       <use x="234.570312" xlink:href="#MicrosoftYaHei-48"/>
      </g>
     </g>
    </g>
    <g id="ytick_5">
     <g id="line2d_23">
      <g>
       <use style="stroke:#000000;stroke-width:0.8;" x="72" xlink:href="#m4dab26e422" y="155.351714"/>
      </g>
     </g>
     <g id="text_24">
      <!-- 80000 -->
      <g transform="translate(35.679688 159.348589)scale(0.1 -0.1)">
       <use xlink:href="#MicrosoftYaHei-56"/>
       <use x="58.642578" xlink:href="#MicrosoftYaHei-48"/>
       <use x="117.285156" xlink:href="#MicrosoftYaHei-48"/>
       <use x="175.927734" xlink:href="#MicrosoftYaHei-48"/>
       <use x="234.570312" xlink:href="#MicrosoftYaHei-48"/>
      </g>
     </g>
    </g>
    <g id="ytick_6">
     <g id="line2d_24">
      <g>
       <use style="stroke:#000000;stroke-width:0.8;" x="72" xlink:href="#m4dab26e422" y="86.624327"/>
      </g>
     </g>
     <g id="text_25">
      <!-- 100000 -->
      <g transform="translate(29.815625 90.621202)scale(0.1 -0.1)">
       <use xlink:href="#MicrosoftYaHei-49"/>
       <use x="58.642578" xlink:href="#MicrosoftYaHei-48"/>
       <use x="117.285156" xlink:href="#MicrosoftYaHei-48"/>
       <use x="175.927734" xlink:href="#MicrosoftYaHei-48"/>
       <use x="234.570312" xlink:href="#MicrosoftYaHei-48"/>
       <use x="293.212891" xlink:href="#MicrosoftYaHei-48"/>
      </g>
     </g>
    </g>
    <g id="text_26">
     <!-- 生产总值（亿元人民币） -->
     <defs>
      <path d="M 1.953125 0.25 
L 47.265625 0.25 
L 47.265625 25.140625 
L 12.703125 25.140625 
L 12.703125 32.671875 
L 47.265625 32.671875 
L 47.265625 55.21875 
L 21.484375 55.21875 
Q 14.984375 43.5 6.546875 34.03125 
Q 4.5 37.25 1.265625 40.875 
Q 15.046875 56.296875 23.046875 78.5625 
L 31.0625 76.421875 
Q 28.46875 69.28125 25.34375 62.75 
L 47.265625 62.75 
L 47.265625 83.453125 
L 55.671875 83.453125 
L 55.671875 62.75 
L 92.96875 62.75 
L 92.96875 55.21875 
L 55.671875 55.21875 
L 55.671875 32.671875 
L 90.234375 32.671875 
L 90.234375 25.140625 
L 55.671875 25.140625 
L 55.671875 0.25 
L 98.25 0.25 
L 98.25 -7.078125 
L 1.953125 -7.078125 
z
" id="MicrosoftYaHei-29983"/>
      <path d="M 11.625 43.890625 
L 57.8125 43.890625 
Q 64.40625 53.609375 69.625 63.234375 
L 77.15625 58.453125 
Q 71.96875 51.171875 66.3125 43.890625 
L 95.21875 43.890625 
L 95.21875 37.0625 
L 19.53125 37.0625 
L 19.53125 30.21875 
Q 19.53125 12.9375 16.890625 4.4375 
Q 14.15625 -5.03125 6.546875 -13.328125 
Q 4 -10.203125 1.265625 -6.6875 
Q 7.03125 -0.53125 9.375 7.765625 
Q 11.625 15.875 11.625 30.21875 
z
M 3.609375 71.828125 
L 48.1875 71.828125 
Q 46.046875 75.828125 43.453125 80.03125 
L 50.6875 83.640625 
Q 53.859375 78.46875 57.171875 71.828125 
L 97.75 71.828125 
L 97.75 64.890625 
L 3.609375 64.890625 
z
M 24.03125 59.328125 
L 30.46875 63.625 
Q 36.53125 56 41.21875 49.171875 
L 34.28125 44.390625 
Q 30.46875 50.828125 24.03125 59.328125 
z
" id="MicrosoftYaHei-20135"/>
      <path d="M 14.0625 66.453125 
L 56.734375 66.453125 
Q 62.84375 75.34375 67.671875 83.640625 
L 75.203125 79.734375 
Q 70.3125 73.046875 65.234375 66.453125 
L 85.9375 66.453125 
L 85.9375 26.609375 
L 78.125 26.609375 
L 78.125 30.90625 
L 21.875 30.90625 
L 21.875 26.609375 
L 14.0625 26.609375 
z
M 78.125 59.421875 
L 21.875 59.421875 
L 21.875 37.9375 
L 78.125 37.9375 
z
M 26.46875 21.53125 
L 34.078125 21.53125 
L 34.078125 4.4375 
Q 34.078125 -3.171875 40.921875 -3.171875 
L 60.546875 -3.171875 
Q 66.3125 -3.171875 67.78125 2.6875 
Q 68.65625 5.71875 69.53125 13.625 
Q 72.359375 12.359375 77.046875 10.6875 
Q 75.78125 3.265625 74.21875 -1.515625 
Q 71.1875 -10.015625 60.9375 -10.015625 
L 39.359375 -10.015625 
Q 26.46875 -10.015625 26.46875 3.078125 
z
M 11.234375 22.21875 
L 18.5625 19.875 
Q 14.546875 7.671875 8.40625 -5.21875 
Q 5.28125 -3.859375 1.265625 -2.09375 
Q 6.9375 9.328125 11.234375 22.21875 
z
M 76.265625 18.796875 
L 81.84375 23.09375 
Q 90.828125 13.140625 98.734375 3.078125 
L 92.1875 -2.09375 
Q 85.25 7.671875 76.265625 18.796875 
z
M 41.609375 24.859375 
L 47.5625 28.765625 
Q 54.5 21.4375 60.359375 13.140625 
L 53.8125 8.546875 
Q 47.953125 17.328125 41.609375 24.859375 
z
M 24.90625 79.828125 
L 30.859375 83.640625 
Q 36.71875 77.484375 41.40625 70.953125 
L 34.765625 66.65625 
Q 30.5625 72.703125 24.90625 79.828125 
z
" id="MicrosoftYaHei-24635"/>
      <path d="M 25.296875 -3.375 
L 35.15625 -3.375 
L 35.15625 57.078125 
L 58.203125 57.078125 
L 58.203125 65.96875 
L 29.890625 65.96875 
L 29.890625 72.609375 
L 58.203125 72.609375 
L 58.203125 82.953125 
L 65.625 82.953125 
L 65.625 72.609375 
L 96.390625 72.609375 
L 96.390625 65.96875 
L 65.625 65.96875 
L 65.625 57.078125 
L 89.265625 57.078125 
L 89.265625 -3.375 
L 98.53125 -3.375 
L 98.53125 -10.015625 
L 25.296875 -10.015625 
z
M 1.078125 35.109375 
Q 14.15625 54.640625 21.390625 82.46875 
L 28.609375 80.328125 
Q 24.703125 67.71875 20.125 56.6875 
L 20.125 -12.75 
L 12.984375 -12.75 
L 12.984375 41.65625 
Q 8.796875 33.84375 4.109375 27.09375 
Q 2.734375 31.203125 1.078125 35.109375 
z
M 42.390625 -3.375 
L 82.03125 -3.375 
L 82.03125 5.515625 
L 42.390625 5.515625 
z
M 82.03125 50.640625 
L 42.390625 50.640625 
L 42.390625 41.84375 
L 82.03125 41.84375 
z
M 42.390625 26.8125 
L 82.03125 26.8125 
L 82.03125 35.59375 
L 42.390625 35.59375 
z
M 42.390625 11.765625 
L 82.03125 11.765625 
L 82.03125 20.5625 
L 42.390625 20.5625 
z
" id="MicrosoftYaHei-20540"/>
      <path d="M 82.625 -17.1875 
Q 65.1875 1.859375 65.1875 28.90625 
Q 65.1875 56.296875 82.625 75.59375 
L 91.015625 75.59375 
Q 73.6875 55.8125 73.6875 29 
Q 73.6875 2.59375 90.921875 -17.1875 
z
" id="MicrosoftYaHei-65288"/>
      <path d="M 90.53125 25.828125 
Q 92.96875 24.65625 98.734375 22.90625 
Q 97.859375 12.0625 96.484375 4.046875 
Q 94.34375 -8.34375 79.203125 -8.453125 
Q 63.671875 -9.03125 49.703125 -8.453125 
Q 36.71875 -7.765625 33.984375 -0.140625 
Q 31.453125 7.671875 40.140625 19.78125 
Q 48.640625 31.390625 79.984375 67.625 
L 36.71875 67.625 
L 36.71875 75.34375 
L 90.140625 75.34375 
L 90.140625 66.265625 
Q 66.5 40.484375 49.03125 18.40625 
Q 40.828125 7.375 41.796875 3.375 
Q 42.1875 -0.734375 52.640625 -1.03125 
Q 64.546875 -1.515625 76.375 -0.921875 
Q 83.296875 -0.640625 85.546875 1.03125 
Q 88.09375 2.6875 88.875 7.859375 
Q 89.84375 13.234375 90.53125 25.828125 
z
M 1.375 34.515625 
Q 15.625 54.25 23.921875 82.859375 
L 31.9375 80.515625 
Q 27.9375 68.5625 23.25 58.0625 
L 23.25 -12.453125 
L 15.625 -12.453125 
L 15.625 42.828125 
Q 10.5 33.640625 4.6875 25.921875 
Q 3.328125 30.21875 1.375 34.515625 
z
" id="MicrosoftYaHei-20159"/>
      <path d="M 2.9375 48.1875 
L 97.265625 48.1875 
L 97.265625 40.765625 
L 66.40625 40.765625 
L 66.40625 2.6875 
Q 66.40625 -3.078125 72.265625 -3.078125 
L 80.671875 -3.078125 
Q 87.703125 -3.078125 88.671875 3.375 
Q 89.546875 8.84375 90.140625 17.234375 
Q 94.046875 15.875 98.640625 14.796875 
Q 97.65625 6.390625 96.578125 0.734375 
Q 94.625 -10.015625 82.421875 -10.015625 
L 70.515625 -10.015625 
Q 58.203125 -10.015625 58.203125 2 
L 58.203125 40.765625 
L 38.28125 40.765625 
L 38.28125 37.640625 
Q 38.28125 16.9375 32.03125 6.984375 
Q 25.78125 -3.859375 7.328125 -13.234375 
Q 3.8125 -8.9375 1.5625 -6.6875 
Q 18.453125 1.609375 24.3125 10.796875 
Q 30.078125 19.578125 30.078125 37.25 
L 30.078125 40.765625 
L 2.9375 40.765625 
z
M 12.3125 76.609375 
L 88.09375 76.609375 
L 88.09375 69.1875 
L 12.3125 69.1875 
z
" id="MicrosoftYaHei-20803"/>
      <path d="M 1.5625 -4.734375 
Q 44.140625 19.875 46.578125 81.59375 
L 55.171875 81.59375 
Q 54.640625 71.140625 53.125 61.671875 
Q 65.234375 12.84375 98.640625 -2.59375 
Q 94.53125 -7.078125 91.40625 -11.078125 
Q 62.40625 5.328125 50.046875 46.96875 
Q 39.359375 6.734375 7.71875 -12.15625 
Q 5.078125 -8.546875 1.5625 -4.734375 
z
" id="MicrosoftYaHei-20154"/>
      <path d="M 11.328125 79.046875 
L 89.546875 79.046875 
L 89.546875 43.40625 
L 81.84375 43.40625 
L 81.84375 47.703125 
L 59.90625 47.703125 
Q 60.75 38.09375 62.40625 30.125 
L 97.171875 30.125 
L 97.171875 23.09375 
L 64.15625 23.09375 
Q 69.140625 6 79 -2 
Q 83.890625 -6 86.625 -0.4375 
Q 88.96875 4.34375 90.140625 16.15625 
Q 94.625 14.203125 97.65625 13.328125 
Q 96 2.296875 93.65625 -3.953125 
Q 90.4375 -12.25 83.984375 -12.25 
Q 78.125 -12.25 72.46875 -7.28125 
Q 61.71875 1.90625 56.25 23.09375 
L 18.953125 23.09375 
L 18.953125 -2.390625 
Q 30.171875 1.125 42.875 6.5 
Q 42.484375 2 42.78125 -2.09375 
Q 26.953125 -7.46875 16.5 -11.671875 
Q 15.328125 -12.25 12.890625 -13.53125 
L 8.59375 -6.296875 
Q 11.328125 -4.34375 11.328125 -0.828125 
z
M 81.84375 72.015625 
L 18.953125 72.015625 
L 18.953125 54.734375 
L 81.84375 54.734375 
z
M 52.09375 47.703125 
L 18.953125 47.703125 
L 18.953125 30.125 
L 54.6875 30.125 
Q 53.078125 38.1875 52.09375 47.703125 
z
" id="MicrosoftYaHei-27665"/>
      <path d="M 19.140625 -2 
L 11.328125 -2 
L 11.328125 51.3125 
L 45.796875 51.3125 
L 45.796875 69.140625 
Q 27.59375 68.5 7.125 68.015625 
Q 6.546875 71.4375 5.765625 75.25 
Q 55.859375 75.828125 92.578125 78.46875 
L 93.75 71.234375 
Q 75.4375 70.265625 53.8125 69.4375 
L 53.8125 51.3125 
L 88.765625 51.3125 
L 88.765625 10.984375 
Q 88.765625 -1.421875 76.078125 -1.421875 
Q 71.6875 -1.421875 63.375 -1.3125 
Q 62.796875 2.296875 61.921875 6.59375 
Q 69.34375 6 74.703125 6 
Q 80.953125 6 80.953125 11.96875 
L 80.953125 44.28125 
L 53.8125 44.28125 
L 53.8125 -12.84375 
L 45.796875 -12.84375 
L 45.796875 44.28125 
L 19.140625 44.28125 
z
" id="MicrosoftYaHei-24065"/>
      <path d="M 17.390625 -17.1875 
L 8.984375 -17.1875 
Q 26.3125 2.546875 26.3125 29.5 
Q 26.3125 55.953125 9.078125 75.59375 
L 17.390625 75.59375 
Q 34.71875 56.6875 34.71875 29.5 
Q 34.71875 2 17.390625 -17.1875 
z
" id="MicrosoftYaHei-65289"/>
     </defs>
     <g transform="translate(23.329687 305.74)rotate(-90)scale(0.1 -0.1)">
      <use xlink:href="#MicrosoftYaHei-29983"/>
      <use x="100" xlink:href="#MicrosoftYaHei-20135"/>
      <use x="200" xlink:href="#MicrosoftYaHei-24635"/>
      <use x="300" xlink:href="#MicrosoftYaHei-20540"/>
      <use x="400" xlink:href="#MicrosoftYaHei-65288"/>
      <use x="500" xlink:href="#MicrosoftYaHei-20159"/>
      <use x="600" xlink:href="#MicrosoftYaHei-20803"/>
      <use x="700" xlink:href="#MicrosoftYaHei-20154"/>
      <use x="800" xlink:href="#MicrosoftYaHei-27665"/>
      <use x="900" xlink:href="#MicrosoftYaHei-24065"/>
      <use x="1000" xlink:href="#MicrosoftYaHei-65289"/>
     </g>
    </g>
   </g>
   <g id="line2d_25">
    <path clip-path="url(#p9fd0c3e6b5)" d="M 92.290909 423.703636 
L 98.258824 419.408518 
L 104.226738 416.032629 
L 110.194652 411.326178 
L 116.162567 423.335945 
L 122.130481 419.144605 
L 128.098396 414.956358 
L 134.06631 410.335816 
L 140.034225 422.881313 
L 146.002139 418.626401 
L 151.970053 414.003109 
L 157.937968 409.89871 
L 163.905882 422.623929 
L 169.873797 418.415408 
L 175.841711 412.920997 
L 181.809626 408.768832 
L 187.77754 421.273092 
L 193.745455 415.654972 
L 199.713369 408.410762 
L 205.681283 403.870974 
L 211.649198 420.350771 
L 217.617112 415.008591 
L 223.585027 407.829672 
L 229.552941 402.920131 
L 235.520856 419.90851 
L 241.48877 413.938506 
L 247.456684 406.42076 
L 253.424599 400.65144 
L 259.392513 418.280702 
L 265.360428 411.249547 
L 271.328342 401.438369 
L 277.296257 394.586592 
L 283.264171 415.115806 
L 289.232086 406.576428 
L 295.2 396.200311 
L 301.167914 390.600403 
L 307.135829 415 
L 313.103743 406.251347 
L 319.071658 395.327817 
L 325.039572 387.073314 
L 331.007487 413.269101 
L 336.975401 402.855871 
L 342.943316 389.318981 
L 348.91123 380.336999 
L 354.879144 410.442 
L 360.847059 397.868324 
L 366.814973 381.187157 
L 372.782888 372.914098 
L 378.750802 407.282258 
L 384.718717 394.936071 
L 390.686631 378.038755 
L 396.654545 365.868853 
L 402.62246 405.623866 
L 408.590374 393.003113 
L 414.558289 373.24124 
L 420.526203 359.045598 
L 426.494118 404.516325 
L 432.462032 390.215874 
L 438.429947 369.52137 
L 444.397861 356.301314 
L 450.365775 403.559296 
L 456.33369 387.352347 
L 462.301604 368.10593 
L 468.269519 352.882814 
L 474.237433 400.010901 
L 480.205348 384.579197 
L 486.173262 366.451318 
L 492.141176 351.207584 
L 498.109091 400.52292 
" style="fill:none;stroke:#0000ff;stroke-linecap:square;stroke-width:1.5;"/>
    <defs>
     <path d="M -3 3 
L 3 3 
L 3 -3 
L -3 -3 
z
" id="m17dacced0b" style="stroke:#0000ff;stroke-linejoin:miter;"/>
    </defs>
    <g clip-path="url(#p9fd0c3e6b5)">
     <use style="fill:#0000ff;stroke:#0000ff;stroke-linejoin:miter;" x="92.290909" xlink:href="#m17dacced0b" y="423.703636"/>
     <use style="fill:#0000ff;stroke:#0000ff;stroke-linejoin:miter;" x="98.258824" xlink:href="#m17dacced0b" y="419.408518"/>
     <use style="fill:#0000ff;stroke:#0000ff;stroke-linejoin:miter;" x="104.226738" xlink:href="#m17dacced0b" y="416.032629"/>
     <use style="fill:#0000ff;stroke:#0000ff;stroke-linejoin:miter;" x="110.194652" xlink:href="#m17dacced0b" y="411.326178"/>
     <use style="fill:#0000ff;stroke:#0000ff;stroke-linejoin:miter;" x="116.162567" xlink:href="#m17dacced0b" y="423.335945"/>
     <use style="fill:#0000ff;stroke:#0000ff;stroke-linejoin:miter;" x="122.130481" xlink:href="#m17dacced0b" y="419.144605"/>
     <use style="fill:#0000ff;stroke:#0000ff;stroke-linejoin:miter;" x="128.098396" xlink:href="#m17dacced0b" y="414.956358"/>
     <use style="fill:#0000ff;stroke:#0000ff;stroke-linejoin:miter;" x="134.06631" xlink:href="#m17dacced0b" y="410.335816"/>
     <use style="fill:#0000ff;stroke:#0000ff;stroke-linejoin:miter;" x="140.034225" xlink:href="#m17dacced0b" y="422.881313"/>
     <use style="fill:#0000ff;stroke:#0000ff;stroke-linejoin:miter;" x="146.002139" xlink:href="#m17dacced0b" y="418.626401"/>
     <use style="fill:#0000ff;stroke:#0000ff;stroke-linejoin:miter;" x="151.970053" xlink:href="#m17dacced0b" y="414.003109"/>
     <use style="fill:#0000ff;stroke:#0000ff;stroke-linejoin:miter;" x="157.937968" xlink:href="#m17dacced0b" y="409.89871"/>
     <use style="fill:#0000ff;stroke:#0000ff;stroke-linejoin:miter;" x="163.905882" xlink:href="#m17dacced0b" y="422.623929"/>
     <use style="fill:#0000ff;stroke:#0000ff;stroke-linejoin:miter;" x="169.873797" xlink:href="#m17dacced0b" y="418.415408"/>
     <use style="fill:#0000ff;stroke:#0000ff;stroke-linejoin:miter;" x="175.841711" xlink:href="#m17dacced0b" y="412.920997"/>
     <use style="fill:#0000ff;stroke:#0000ff;stroke-linejoin:miter;" x="181.809626" xlink:href="#m17dacced0b" y="408.768832"/>
     <use style="fill:#0000ff;stroke:#0000ff;stroke-linejoin:miter;" x="187.77754" xlink:href="#m17dacced0b" y="421.273092"/>
     <use style="fill:#0000ff;stroke:#0000ff;stroke-linejoin:miter;" x="193.745455" xlink:href="#m17dacced0b" y="415.654972"/>
     <use style="fill:#0000ff;stroke:#0000ff;stroke-linejoin:miter;" x="199.713369" xlink:href="#m17dacced0b" y="408.410762"/>
     <use style="fill:#0000ff;stroke:#0000ff;stroke-linejoin:miter;" x="205.681283" xlink:href="#m17dacced0b" y="403.870974"/>
     <use style="fill:#0000ff;stroke:#0000ff;stroke-linejoin:miter;" x="211.649198" xlink:href="#m17dacced0b" y="420.350771"/>
     <use style="fill:#0000ff;stroke:#0000ff;stroke-linejoin:miter;" x="217.617112" xlink:href="#m17dacced0b" y="415.008591"/>
     <use style="fill:#0000ff;stroke:#0000ff;stroke-linejoin:miter;" x="223.585027" xlink:href="#m17dacced0b" y="407.829672"/>
     <use style="fill:#0000ff;stroke:#0000ff;stroke-linejoin:miter;" x="229.552941" xlink:href="#m17dacced0b" y="402.920131"/>
     <use style="fill:#0000ff;stroke:#0000ff;stroke-linejoin:miter;" x="235.520856" xlink:href="#m17dacced0b" y="419.90851"/>
     <use style="fill:#0000ff;stroke:#0000ff;stroke-linejoin:miter;" x="241.48877" xlink:href="#m17dacced0b" y="413.938506"/>
     <use style="fill:#0000ff;stroke:#0000ff;stroke-linejoin:miter;" x="247.456684" xlink:href="#m17dacced0b" y="406.42076"/>
     <use style="fill:#0000ff;stroke:#0000ff;stroke-linejoin:miter;" x="253.424599" xlink:href="#m17dacced0b" y="400.65144"/>
     <use style="fill:#0000ff;stroke:#0000ff;stroke-linejoin:miter;" x="259.392513" xlink:href="#m17dacced0b" y="418.280702"/>
     <use style="fill:#0000ff;stroke:#0000ff;stroke-linejoin:miter;" x="265.360428" xlink:href="#m17dacced0b" y="411.249547"/>
     <use style="fill:#0000ff;stroke:#0000ff;stroke-linejoin:miter;" x="271.328342" xlink:href="#m17dacced0b" y="401.438369"/>
     <use style="fill:#0000ff;stroke:#0000ff;stroke-linejoin:miter;" x="277.296257" xlink:href="#m17dacced0b" y="394.586592"/>
     <use style="fill:#0000ff;stroke:#0000ff;stroke-linejoin:miter;" x="283.264171" xlink:href="#m17dacced0b" y="415.115806"/>
     <use style="fill:#0000ff;stroke:#0000ff;stroke-linejoin:miter;" x="289.232086" xlink:href="#m17dacced0b" y="406.576428"/>
     <use style="fill:#0000ff;stroke:#0000ff;stroke-linejoin:miter;" x="295.2" xlink:href="#m17dacced0b" y="396.200311"/>
     <use style="fill:#0000ff;stroke:#0000ff;stroke-linejoin:miter;" x="301.167914" xlink:href="#m17dacced0b" y="390.600403"/>
     <use style="fill:#0000ff;stroke:#0000ff;stroke-linejoin:miter;" x="307.135829" xlink:href="#m17dacced0b" y="415"/>
     <use style="fill:#0000ff;stroke:#0000ff;stroke-linejoin:miter;" x="313.103743" xlink:href="#m17dacced0b" y="406.251347"/>
     <use style="fill:#0000ff;stroke:#0000ff;stroke-linejoin:miter;" x="319.071658" xlink:href="#m17dacced0b" y="395.327817"/>
     <use style="fill:#0000ff;stroke:#0000ff;stroke-linejoin:miter;" x="325.039572" xlink:href="#m17dacced0b" y="387.073314"/>
     <use style="fill:#0000ff;stroke:#0000ff;stroke-linejoin:miter;" x="331.007487" xlink:href="#m17dacced0b" y="413.269101"/>
     <use style="fill:#0000ff;stroke:#0000ff;stroke-linejoin:miter;" x="336.975401" xlink:href="#m17dacced0b" y="402.855871"/>
     <use style="fill:#0000ff;stroke:#0000ff;stroke-linejoin:miter;" x="342.943316" xlink:href="#m17dacced0b" y="389.318981"/>
     <use style="fill:#0000ff;stroke:#0000ff;stroke-linejoin:miter;" x="348.91123" xlink:href="#m17dacced0b" y="380.336999"/>
     <use style="fill:#0000ff;stroke:#0000ff;stroke-linejoin:miter;" x="354.879144" xlink:href="#m17dacced0b" y="410.442"/>
     <use style="fill:#0000ff;stroke:#0000ff;stroke-linejoin:miter;" x="360.847059" xlink:href="#m17dacced0b" y="397.868324"/>
     <use style="fill:#0000ff;stroke:#0000ff;stroke-linejoin:miter;" x="366.814973" xlink:href="#m17dacced0b" y="381.187157"/>
     <use style="fill:#0000ff;stroke:#0000ff;stroke-linejoin:miter;" x="372.782888" xlink:href="#m17dacced0b" y="372.914098"/>
     <use style="fill:#0000ff;stroke:#0000ff;stroke-linejoin:miter;" x="378.750802" xlink:href="#m17dacced0b" y="407.282258"/>
     <use style="fill:#0000ff;stroke:#0000ff;stroke-linejoin:miter;" x="384.718717" xlink:href="#m17dacced0b" y="394.936071"/>
     <use style="fill:#0000ff;stroke:#0000ff;stroke-linejoin:miter;" x="390.686631" xlink:href="#m17dacced0b" y="378.038755"/>
     <use style="fill:#0000ff;stroke:#0000ff;stroke-linejoin:miter;" x="396.654545" xlink:href="#m17dacced0b" y="365.868853"/>
     <use style="fill:#0000ff;stroke:#0000ff;stroke-linejoin:miter;" x="402.62246" xlink:href="#m17dacced0b" y="405.623866"/>
     <use style="fill:#0000ff;stroke:#0000ff;stroke-linejoin:miter;" x="408.590374" xlink:href="#m17dacced0b" y="393.003113"/>
     <use style="fill:#0000ff;stroke:#0000ff;stroke-linejoin:miter;" x="414.558289" xlink:href="#m17dacced0b" y="373.24124"/>
     <use style="fill:#0000ff;stroke:#0000ff;stroke-linejoin:miter;" x="420.526203" xlink:href="#m17dacced0b" y="359.045598"/>
     <use style="fill:#0000ff;stroke:#0000ff;stroke-linejoin:miter;" x="426.494118" xlink:href="#m17dacced0b" y="404.516325"/>
     <use style="fill:#0000ff;stroke:#0000ff;stroke-linejoin:miter;" x="432.462032" xlink:href="#m17dacced0b" y="390.215874"/>
     <use style="fill:#0000ff;stroke:#0000ff;stroke-linejoin:miter;" x="438.429947" xlink:href="#m17dacced0b" y="369.52137"/>
     <use style="fill:#0000ff;stroke:#0000ff;stroke-linejoin:miter;" x="444.397861" xlink:href="#m17dacced0b" y="356.301314"/>
     <use style="fill:#0000ff;stroke:#0000ff;stroke-linejoin:miter;" x="450.365775" xlink:href="#m17dacced0b" y="403.559296"/>
     <use style="fill:#0000ff;stroke:#0000ff;stroke-linejoin:miter;" x="456.33369" xlink:href="#m17dacced0b" y="387.352347"/>
     <use style="fill:#0000ff;stroke:#0000ff;stroke-linejoin:miter;" x="462.301604" xlink:href="#m17dacced0b" y="368.10593"/>
     <use style="fill:#0000ff;stroke:#0000ff;stroke-linejoin:miter;" x="468.269519" xlink:href="#m17dacced0b" y="352.882814"/>
     <use style="fill:#0000ff;stroke:#0000ff;stroke-linejoin:miter;" x="474.237433" xlink:href="#m17dacced0b" y="400.010901"/>
     <use style="fill:#0000ff;stroke:#0000ff;stroke-linejoin:miter;" x="480.205348" xlink:href="#m17dacced0b" y="384.579197"/>
     <use style="fill:#0000ff;stroke:#0000ff;stroke-linejoin:miter;" x="486.173262" xlink:href="#m17dacced0b" y="366.451318"/>
     <use style="fill:#0000ff;stroke:#0000ff;stroke-linejoin:miter;" x="492.141176" xlink:href="#m17dacced0b" y="351.207584"/>
     <use style="fill:#0000ff;stroke:#0000ff;stroke-linejoin:miter;" x="498.109091" xlink:href="#m17dacced0b" y="400.52292"/>
    </g>
   </g>
   <g id="line2d_26">
    <path clip-path="url(#p9fd0c3e6b5)" d="M 92.290909 397.450806 
L 98.258824 392.02306 
L 104.226738 389.413138 
L 110.194652 385.236918 
L 116.162567 393.692448 
L 122.130481 387.949588 
L 128.098396 386.309065 
L 134.06631 382.441432 
L 140.034225 391.361559 
L 146.002139 384.557204 
L 151.970053 382.068586 
L 157.937968 377.131554 
L 163.905882 385.084687 
L 169.873797 377.960062 
L 175.841711 374.252564 
L 181.809626 368.296305 
L 187.77754 377.710582 
L 193.745455 368.111772 
L 199.713369 363.689852 
L 205.681283 356.25561 
L 211.649198 367.858511 
L 217.617112 356.634298 
L 223.585027 351.999323 
L 229.552941 341.862377 
L 235.520856 356.658696 
L 241.48877 342.37474 
L 247.456684 337.695092 
L 253.424599 325.690823 
L 259.392513 340.971327 
L 265.360428 323.297736 
L 271.328342 318.026001 
L 277.296257 303.590158 
L 283.264171 321.624567 
L 289.232086 298.823226 
L 295.2 296.601613 
L 301.167914 288.689373 
L 307.135829 318.408813 
L 313.103743 294.939441 
L 319.071658 288.292129 
L 325.039572 268.995884 
L 331.007487 294.987894 
L 336.975401 267.298317 
L 342.943316 262.198058 
L 348.91123 238.050347 
L 354.879144 268.08181 
L 360.847059 234.784078 
L 366.814973 228.809263 
L 372.782888 209.180721 
L 378.750802 250.479351 
L 384.718717 219.151003 
L 390.686631 216.322184 
L 396.654545 194.407769 
L 402.62246 238.297766 
L 408.590374 206.446058 
L 414.558289 200.883607 
L 420.526203 175.239701 
L 426.494118 226.754314 
L 432.462032 191.292357 
L 438.429947 186.194159 
L 444.397861 162.96499 
L 450.365775 221.588764 
L 456.33369 185.772517 
L 462.301604 183.992821 
L 468.269519 160.496302 
L 474.237433 219.525911 
L 480.205348 177.163381 
L 486.173262 170.619846 
L 492.141176 135.759254 
L 498.109091 189.699943 
" style="fill:none;stroke:#ff0000;stroke-dasharray:9.6,2.4,1.5,2.4;stroke-dashoffset:0;stroke-width:1.5;"/>
    <defs>
     <path d="M 0 3 
C 0.795609 3 1.55874 2.683901 2.12132 2.12132 
C 2.683901 1.55874 3 0.795609 3 0 
C 3 -0.795609 2.683901 -1.55874 2.12132 -2.12132 
C 1.55874 -2.683901 0.795609 -3 0 -3 
C -0.795609 -3 -1.55874 -2.683901 -2.12132 -2.12132 
C -2.683901 -1.55874 -3 -0.795609 -3 0 
C -3 0.795609 -2.683901 1.55874 -2.12132 2.12132 
C -1.55874 2.683901 -0.795609 3 0 3 
z
" id="m7b9d393718" style="stroke:#ff0000;"/>
    </defs>
    <g clip-path="url(#p9fd0c3e6b5)">
     <use style="fill:#ff0000;stroke:#ff0000;" x="92.290909" xlink:href="#m7b9d393718" y="397.450806"/>
     <use style="fill:#ff0000;stroke:#ff0000;" x="98.258824" xlink:href="#m7b9d393718" y="392.02306"/>
     <use style="fill:#ff0000;stroke:#ff0000;" x="104.226738" xlink:href="#m7b9d393718" y="389.413138"/>
     <use style="fill:#ff0000;stroke:#ff0000;" x="110.194652" xlink:href="#m7b9d393718" y="385.236918"/>
     <use style="fill:#ff0000;stroke:#ff0000;" x="116.162567" xlink:href="#m7b9d393718" y="393.692448"/>
     <use style="fill:#ff0000;stroke:#ff0000;" x="122.130481" xlink:href="#m7b9d393718" y="387.949588"/>
     <use style="fill:#ff0000;stroke:#ff0000;" x="128.098396" xlink:href="#m7b9d393718" y="386.309065"/>
     <use style="fill:#ff0000;stroke:#ff0000;" x="134.06631" xlink:href="#m7b9d393718" y="382.441432"/>
     <use style="fill:#ff0000;stroke:#ff0000;" x="140.034225" xlink:href="#m7b9d393718" y="391.361559"/>
     <use style="fill:#ff0000;stroke:#ff0000;" x="146.002139" xlink:href="#m7b9d393718" y="384.557204"/>
     <use style="fill:#ff0000;stroke:#ff0000;" x="151.970053" xlink:href="#m7b9d393718" y="382.068586"/>
     <use style="fill:#ff0000;stroke:#ff0000;" x="157.937968" xlink:href="#m7b9d393718" y="377.131554"/>
     <use style="fill:#ff0000;stroke:#ff0000;" x="163.905882" xlink:href="#m7b9d393718" y="385.084687"/>
     <use style="fill:#ff0000;stroke:#ff0000;" x="169.873797" xlink:href="#m7b9d393718" y="377.960062"/>
     <use style="fill:#ff0000;stroke:#ff0000;" x="175.841711" xlink:href="#m7b9d393718" y="374.252564"/>
     <use style="fill:#ff0000;stroke:#ff0000;" x="181.809626" xlink:href="#m7b9d393718" y="368.296305"/>
     <use style="fill:#ff0000;stroke:#ff0000;" x="187.77754" xlink:href="#m7b9d393718" y="377.710582"/>
     <use style="fill:#ff0000;stroke:#ff0000;" x="193.745455" xlink:href="#m7b9d393718" y="368.111772"/>
     <use style="fill:#ff0000;stroke:#ff0000;" x="199.713369" xlink:href="#m7b9d393718" y="363.689852"/>
     <use style="fill:#ff0000;stroke:#ff0000;" x="205.681283" xlink:href="#m7b9d393718" y="356.25561"/>
     <use style="fill:#ff0000;stroke:#ff0000;" x="211.649198" xlink:href="#m7b9d393718" y="367.858511"/>
     <use style="fill:#ff0000;stroke:#ff0000;" x="217.617112" xlink:href="#m7b9d393718" y="356.634298"/>
     <use style="fill:#ff0000;stroke:#ff0000;" x="223.585027" xlink:href="#m7b9d393718" y="351.999323"/>
     <use style="fill:#ff0000;stroke:#ff0000;" x="229.552941" xlink:href="#m7b9d393718" y="341.862377"/>
     <use style="fill:#ff0000;stroke:#ff0000;" x="235.520856" xlink:href="#m7b9d393718" y="356.658696"/>
     <use style="fill:#ff0000;stroke:#ff0000;" x="241.48877" xlink:href="#m7b9d393718" y="342.37474"/>
     <use style="fill:#ff0000;stroke:#ff0000;" x="247.456684" xlink:href="#m7b9d393718" y="337.695092"/>
     <use style="fill:#ff0000;stroke:#ff0000;" x="253.424599" xlink:href="#m7b9d393718" y="325.690823"/>
     <use style="fill:#ff0000;stroke:#ff0000;" x="259.392513" xlink:href="#m7b9d393718" y="340.971327"/>
     <use style="fill:#ff0000;stroke:#ff0000;" x="265.360428" xlink:href="#m7b9d393718" y="323.297736"/>
     <use style="fill:#ff0000;stroke:#ff0000;" x="271.328342" xlink:href="#m7b9d393718" y="318.026001"/>
     <use style="fill:#ff0000;stroke:#ff0000;" x="277.296257" xlink:href="#m7b9d393718" y="303.590158"/>
     <use style="fill:#ff0000;stroke:#ff0000;" x="283.264171" xlink:href="#m7b9d393718" y="321.624567"/>
     <use style="fill:#ff0000;stroke:#ff0000;" x="289.232086" xlink:href="#m7b9d393718" y="298.823226"/>
     <use style="fill:#ff0000;stroke:#ff0000;" x="295.2" xlink:href="#m7b9d393718" y="296.601613"/>
     <use style="fill:#ff0000;stroke:#ff0000;" x="301.167914" xlink:href="#m7b9d393718" y="288.689373"/>
     <use style="fill:#ff0000;stroke:#ff0000;" x="307.135829" xlink:href="#m7b9d393718" y="318.408813"/>
     <use style="fill:#ff0000;stroke:#ff0000;" x="313.103743" xlink:href="#m7b9d393718" y="294.939441"/>
     <use style="fill:#ff0000;stroke:#ff0000;" x="319.071658" xlink:href="#m7b9d393718" y="288.292129"/>
     <use style="fill:#ff0000;stroke:#ff0000;" x="325.039572" xlink:href="#m7b9d393718" y="268.995884"/>
     <use style="fill:#ff0000;stroke:#ff0000;" x="331.007487" xlink:href="#m7b9d393718" y="294.987894"/>
     <use style="fill:#ff0000;stroke:#ff0000;" x="336.975401" xlink:href="#m7b9d393718" y="267.298317"/>
     <use style="fill:#ff0000;stroke:#ff0000;" x="342.943316" xlink:href="#m7b9d393718" y="262.198058"/>
     <use style="fill:#ff0000;stroke:#ff0000;" x="348.91123" xlink:href="#m7b9d393718" y="238.050347"/>
     <use style="fill:#ff0000;stroke:#ff0000;" x="354.879144" xlink:href="#m7b9d393718" y="268.08181"/>
     <use style="fill:#ff0000;stroke:#ff0000;" x="360.847059" xlink:href="#m7b9d393718" y="234.784078"/>
     <use style="fill:#ff0000;stroke:#ff0000;" x="366.814973" xlink:href="#m7b9d393718" y="228.809263"/>
     <use style="fill:#ff0000;stroke:#ff0000;" x="372.782888" xlink:href="#m7b9d393718" y="209.180721"/>
     <use style="fill:#ff0000;stroke:#ff0000;" x="378.750802" xlink:href="#m7b9d393718" y="250.479351"/>
     <use style="fill:#ff0000;stroke:#ff0000;" x="384.718717" xlink:href="#m7b9d393718" y="219.151003"/>
     <use style="fill:#ff0000;stroke:#ff0000;" x="390.686631" xlink:href="#m7b9d393718" y="216.322184"/>
     <use style="fill:#ff0000;stroke:#ff0000;" x="396.654545" xlink:href="#m7b9d393718" y="194.407769"/>
     <use style="fill:#ff0000;stroke:#ff0000;" x="402.62246" xlink:href="#m7b9d393718" y="238.297766"/>
     <use style="fill:#ff0000;stroke:#ff0000;" x="408.590374" xlink:href="#m7b9d393718" y="206.446058"/>
     <use style="fill:#ff0000;stroke:#ff0000;" x="414.558289" xlink:href="#m7b9d393718" y="200.883607"/>
     <use style="fill:#ff0000;stroke:#ff0000;" x="420.526203" xlink:href="#m7b9d393718" y="175.239701"/>
     <use style="fill:#ff0000;stroke:#ff0000;" x="426.494118" xlink:href="#m7b9d393718" y="226.754314"/>
     <use style="fill:#ff0000;stroke:#ff0000;" x="432.462032" xlink:href="#m7b9d393718" y="191.292357"/>
     <use style="fill:#ff0000;stroke:#ff0000;" x="438.429947" xlink:href="#m7b9d393718" y="186.194159"/>
     <use style="fill:#ff0000;stroke:#ff0000;" x="444.397861" xlink:href="#m7b9d393718" y="162.96499"/>
     <use style="fill:#ff0000;stroke:#ff0000;" x="450.365775" xlink:href="#m7b9d393718" y="221.588764"/>
     <use style="fill:#ff0000;stroke:#ff0000;" x="456.33369" xlink:href="#m7b9d393718" y="185.772517"/>
     <use style="fill:#ff0000;stroke:#ff0000;" x="462.301604" xlink:href="#m7b9d393718" y="183.992821"/>
     <use style="fill:#ff0000;stroke:#ff0000;" x="468.269519" xlink:href="#m7b9d393718" y="160.496302"/>
     <use style="fill:#ff0000;stroke:#ff0000;" x="474.237433" xlink:href="#m7b9d393718" y="219.525911"/>
     <use style="fill:#ff0000;stroke:#ff0000;" x="480.205348" xlink:href="#m7b9d393718" y="177.163381"/>
     <use style="fill:#ff0000;stroke:#ff0000;" x="486.173262" xlink:href="#m7b9d393718" y="170.619846"/>
     <use style="fill:#ff0000;stroke:#ff0000;" x="492.141176" xlink:href="#m7b9d393718" y="135.759254"/>
     <use style="fill:#ff0000;stroke:#ff0000;" x="498.109091" xlink:href="#m7b9d393718" y="189.699943"/>
    </g>
   </g>
   <g id="line2d_27">
    <path clip-path="url(#p9fd0c3e6b5)" d="M 92.290909 396.331924 
L 98.258824 396.730199 
L 104.226738 396.980367 
L 110.194652 393.898631 
L 116.162567 390.98562 
L 122.130481 391.847462 
L 128.098396 392.15433 
L 134.06631 389.015893 
L 140.034225 386.18192 
L 146.002139 387.27606 
L 151.970053 387.300458 
L 157.937968 383.582306 
L 163.905882 380.58373 
L 169.873797 382.59813 
L 175.841711 382.334561 
L 181.809626 377.06317 
L 187.77754 373.091758 
L 193.745455 374.026794 
L 199.713369 374.853928 
L 205.681283 370.04198 
L 211.649198 363.562019 
L 217.617112 365.215256 
L 223.585027 365.844799 
L 229.552941 360.35245 
L 235.520856 352.436429 
L 241.48877 353.465622 
L 247.456684 354.008912 
L 253.424599 345.814202 
L 259.392513 335.050462 
L 265.360428 333.526776 
L 271.328342 332.408238 
L 277.296257 322.091226 
L 283.264171 315.523637 
L 289.232086 314.70475 
L 295.2 314.337746 
L 301.167914 306.363995 
L 307.135829 302.901165 
L 313.103743 301.002228 
L 319.071658 297.842143 
L 325.039572 287.528567 
L 331.007487 281.443444 
L 336.975401 278.599505 
L 342.943316 274.191674 
L 348.91123 261.260617 
L 354.879144 252.67416 
L 360.847059 248.604125 
L 366.814973 244.431685 
L 372.782888 232.740469 
L 378.750802 228.926099 
L 384.718717 224.187002 
L 390.686631 220.065421 
L 396.654545 206.567706 
L 402.62246 201.00388 
L 408.590374 196.610826 
L 414.558289 191.219506 
L 420.526203 177.040359 
L 426.494118 176.296385 
L 432.462032 171.616737 
L 438.429947 165.62096 
L 444.397861 148.90749 
L 450.365775 146.789656 
L 456.33369 138.620375 
L 462.301604 131.442487 
L 468.269519 114.693967 
L 474.237433 116.023498 
L 480.205348 107.939095 
L 486.173262 98.982542 
L 492.141176 77.776364 
L 498.109091 79.668429 
" style="fill:none;stroke:#008000;stroke-dasharray:5.55,2.4;stroke-dashoffset:0;stroke-width:1.5;"/>
    <defs>
     <path d="M -1.5 -2.598076 
L -3 -0 
L -1.5 2.598076 
L 1.5 2.598076 
L 3 0 
L 1.5 -2.598076 
z
" id="m131a769867" style="stroke:#008000;stroke-linejoin:miter;"/>
    </defs>
    <g clip-path="url(#p9fd0c3e6b5)">
     <use style="fill:#008000;stroke:#008000;stroke-linejoin:miter;" x="92.290909" xlink:href="#m131a769867" y="396.331924"/>
     <use style="fill:#008000;stroke:#008000;stroke-linejoin:miter;" x="98.258824" xlink:href="#m131a769867" y="396.730199"/>
     <use style="fill:#008000;stroke:#008000;stroke-linejoin:miter;" x="104.226738" xlink:href="#m131a769867" y="396.980367"/>
     <use style="fill:#008000;stroke:#008000;stroke-linejoin:miter;" x="110.194652" xlink:href="#m131a769867" y="393.898631"/>
     <use style="fill:#008000;stroke:#008000;stroke-linejoin:miter;" x="116.162567" xlink:href="#m131a769867" y="390.98562"/>
     <use style="fill:#008000;stroke:#008000;stroke-linejoin:miter;" x="122.130481" xlink:href="#m131a769867" y="391.847462"/>
     <use style="fill:#008000;stroke:#008000;stroke-linejoin:miter;" x="128.098396" xlink:href="#m131a769867" y="392.15433"/>
     <use style="fill:#008000;stroke:#008000;stroke-linejoin:miter;" x="134.06631" xlink:href="#m131a769867" y="389.015893"/>
     <use style="fill:#008000;stroke:#008000;stroke-linejoin:miter;" x="140.034225" xlink:href="#m131a769867" y="386.18192"/>
     <use style="fill:#008000;stroke:#008000;stroke-linejoin:miter;" x="146.002139" xlink:href="#m131a769867" y="387.27606"/>
     <use style="fill:#008000;stroke:#008000;stroke-linejoin:miter;" x="151.970053" xlink:href="#m131a769867" y="387.300458"/>
     <use style="fill:#008000;stroke:#008000;stroke-linejoin:miter;" x="157.937968" xlink:href="#m131a769867" y="383.582306"/>
     <use style="fill:#008000;stroke:#008000;stroke-linejoin:miter;" x="163.905882" xlink:href="#m131a769867" y="380.58373"/>
     <use style="fill:#008000;stroke:#008000;stroke-linejoin:miter;" x="169.873797" xlink:href="#m131a769867" y="382.59813"/>
     <use style="fill:#008000;stroke:#008000;stroke-linejoin:miter;" x="175.841711" xlink:href="#m131a769867" y="382.334561"/>
     <use style="fill:#008000;stroke:#008000;stroke-linejoin:miter;" x="181.809626" xlink:href="#m131a769867" y="377.06317"/>
     <use style="fill:#008000;stroke:#008000;stroke-linejoin:miter;" x="187.77754" xlink:href="#m131a769867" y="373.091758"/>
     <use style="fill:#008000;stroke:#008000;stroke-linejoin:miter;" x="193.745455" xlink:href="#m131a769867" y="374.026794"/>
     <use style="fill:#008000;stroke:#008000;stroke-linejoin:miter;" x="199.713369" xlink:href="#m131a769867" y="374.853928"/>
     <use style="fill:#008000;stroke:#008000;stroke-linejoin:miter;" x="205.681283" xlink:href="#m131a769867" y="370.04198"/>
     <use style="fill:#008000;stroke:#008000;stroke-linejoin:miter;" x="211.649198" xlink:href="#m131a769867" y="363.562019"/>
     <use style="fill:#008000;stroke:#008000;stroke-linejoin:miter;" x="217.617112" xlink:href="#m131a769867" y="365.215256"/>
     <use style="fill:#008000;stroke:#008000;stroke-linejoin:miter;" x="223.585027" xlink:href="#m131a769867" y="365.844799"/>
     <use style="fill:#008000;stroke:#008000;stroke-linejoin:miter;" x="229.552941" xlink:href="#m131a769867" y="360.35245"/>
     <use style="fill:#008000;stroke:#008000;stroke-linejoin:miter;" x="235.520856" xlink:href="#m131a769867" y="352.436429"/>
     <use style="fill:#008000;stroke:#008000;stroke-linejoin:miter;" x="241.48877" xlink:href="#m131a769867" y="353.465622"/>
     <use style="fill:#008000;stroke:#008000;stroke-linejoin:miter;" x="247.456684" xlink:href="#m131a769867" y="354.008912"/>
     <use style="fill:#008000;stroke:#008000;stroke-linejoin:miter;" x="253.424599" xlink:href="#m131a769867" y="345.814202"/>
     <use style="fill:#008000;stroke:#008000;stroke-linejoin:miter;" x="259.392513" xlink:href="#m131a769867" y="335.050462"/>
     <use style="fill:#008000;stroke:#008000;stroke-linejoin:miter;" x="265.360428" xlink:href="#m131a769867" y="333.526776"/>
     <use style="fill:#008000;stroke:#008000;stroke-linejoin:miter;" x="271.328342" xlink:href="#m131a769867" y="332.408238"/>
     <use style="fill:#008000;stroke:#008000;stroke-linejoin:miter;" x="277.296257" xlink:href="#m131a769867" y="322.091226"/>
     <use style="fill:#008000;stroke:#008000;stroke-linejoin:miter;" x="283.264171" xlink:href="#m131a769867" y="315.523637"/>
     <use style="fill:#008000;stroke:#008000;stroke-linejoin:miter;" x="289.232086" xlink:href="#m131a769867" y="314.70475"/>
     <use style="fill:#008000;stroke:#008000;stroke-linejoin:miter;" x="295.2" xlink:href="#m131a769867" y="314.337746"/>
     <use style="fill:#008000;stroke:#008000;stroke-linejoin:miter;" x="301.167914" xlink:href="#m131a769867" y="306.363995"/>
     <use style="fill:#008000;stroke:#008000;stroke-linejoin:miter;" x="307.135829" xlink:href="#m131a769867" y="302.901165"/>
     <use style="fill:#008000;stroke:#008000;stroke-linejoin:miter;" x="313.103743" xlink:href="#m131a769867" y="301.002228"/>
     <use style="fill:#008000;stroke:#008000;stroke-linejoin:miter;" x="319.071658" xlink:href="#m131a769867" y="297.842143"/>
     <use style="fill:#008000;stroke:#008000;stroke-linejoin:miter;" x="325.039572" xlink:href="#m131a769867" y="287.528567"/>
     <use style="fill:#008000;stroke:#008000;stroke-linejoin:miter;" x="331.007487" xlink:href="#m131a769867" y="281.443444"/>
     <use style="fill:#008000;stroke:#008000;stroke-linejoin:miter;" x="336.975401" xlink:href="#m131a769867" y="278.599505"/>
     <use style="fill:#008000;stroke:#008000;stroke-linejoin:miter;" x="342.943316" xlink:href="#m131a769867" y="274.191674"/>
     <use style="fill:#008000;stroke:#008000;stroke-linejoin:miter;" x="348.91123" xlink:href="#m131a769867" y="261.260617"/>
     <use style="fill:#008000;stroke:#008000;stroke-linejoin:miter;" x="354.879144" xlink:href="#m131a769867" y="252.67416"/>
     <use style="fill:#008000;stroke:#008000;stroke-linejoin:miter;" x="360.847059" xlink:href="#m131a769867" y="248.604125"/>
     <use style="fill:#008000;stroke:#008000;stroke-linejoin:miter;" x="366.814973" xlink:href="#m131a769867" y="244.431685"/>
     <use style="fill:#008000;stroke:#008000;stroke-linejoin:miter;" x="372.782888" xlink:href="#m131a769867" y="232.740469"/>
     <use style="fill:#008000;stroke:#008000;stroke-linejoin:miter;" x="378.750802" xlink:href="#m131a769867" y="228.926099"/>
     <use style="fill:#008000;stroke:#008000;stroke-linejoin:miter;" x="384.718717" xlink:href="#m131a769867" y="224.187002"/>
     <use style="fill:#008000;stroke:#008000;stroke-linejoin:miter;" x="390.686631" xlink:href="#m131a769867" y="220.065421"/>
     <use style="fill:#008000;stroke:#008000;stroke-linejoin:miter;" x="396.654545" xlink:href="#m131a769867" y="206.567706"/>
     <use style="fill:#008000;stroke:#008000;stroke-linejoin:miter;" x="402.62246" xlink:href="#m131a769867" y="201.00388"/>
     <use style="fill:#008000;stroke:#008000;stroke-linejoin:miter;" x="408.590374" xlink:href="#m131a769867" y="196.610826"/>
     <use style="fill:#008000;stroke:#008000;stroke-linejoin:miter;" x="414.558289" xlink:href="#m131a769867" y="191.219506"/>
     <use style="fill:#008000;stroke:#008000;stroke-linejoin:miter;" x="420.526203" xlink:href="#m131a769867" y="177.040359"/>
     <use style="fill:#008000;stroke:#008000;stroke-linejoin:miter;" x="426.494118" xlink:href="#m131a769867" y="176.296385"/>
     <use style="fill:#008000;stroke:#008000;stroke-linejoin:miter;" x="432.462032" xlink:href="#m131a769867" y="171.616737"/>
     <use style="fill:#008000;stroke:#008000;stroke-linejoin:miter;" x="438.429947" xlink:href="#m131a769867" y="165.62096"/>
     <use style="fill:#008000;stroke:#008000;stroke-linejoin:miter;" x="444.397861" xlink:href="#m131a769867" y="148.90749"/>
     <use style="fill:#008000;stroke:#008000;stroke-linejoin:miter;" x="450.365775" xlink:href="#m131a769867" y="146.789656"/>
     <use style="fill:#008000;stroke:#008000;stroke-linejoin:miter;" x="456.33369" xlink:href="#m131a769867" y="138.620375"/>
     <use style="fill:#008000;stroke:#008000;stroke-linejoin:miter;" x="462.301604" xlink:href="#m131a769867" y="131.442487"/>
     <use style="fill:#008000;stroke:#008000;stroke-linejoin:miter;" x="468.269519" xlink:href="#m131a769867" y="114.693967"/>
     <use style="fill:#008000;stroke:#008000;stroke-linejoin:miter;" x="474.237433" xlink:href="#m131a769867" y="116.023498"/>
     <use style="fill:#008000;stroke:#008000;stroke-linejoin:miter;" x="480.205348" xlink:href="#m131a769867" y="107.939095"/>
     <use style="fill:#008000;stroke:#008000;stroke-linejoin:miter;" x="486.173262" xlink:href="#m131a769867" y="98.982542"/>
     <use style="fill:#008000;stroke:#008000;stroke-linejoin:miter;" x="492.141176" xlink:href="#m131a769867" y="77.776364"/>
     <use style="fill:#008000;stroke:#008000;stroke-linejoin:miter;" x="498.109091" xlink:href="#m131a769867" y="79.668429"/>
    </g>
   </g>
   <g id="patch_3">
    <path d="M 72 441 
L 72 60.48 
" style="fill:none;stroke:#000000;stroke-linecap:square;stroke-linejoin:miter;stroke-width:0.8;"/>
   </g>
   <g id="patch_4">
    <path d="M 518.4 441 
L 518.4 60.48 
" style="fill:none;stroke:#000000;stroke-linecap:square;stroke-linejoin:miter;stroke-width:0.8;"/>
   </g>
   <g id="patch_5">
    <path d="M 72 441 
L 518.4 441 
" style="fill:none;stroke:#000000;stroke-linecap:square;stroke-linejoin:miter;stroke-width:0.8;"/>
   </g>
   <g id="patch_6">
    <path d="M 72 60.48 
L 518.4 60.48 
" style="fill:none;stroke:#000000;stroke-linecap:square;stroke-linejoin:miter;stroke-width:0.8;"/>
   </g>
   <g id="text_27">
    <!-- 2000~2017年各产业各季度国民生产总值折线图 -->
    <defs>
     <path d="M 63.328125 39.703125 
Q 62.890625 31.6875 58.9375 27.34375 
Q 54.984375 23 48.34375 23 
Q 42.578125 23 34.421875 28.65625 
Q 29.203125 32.125 26.078125 32.125 
Q 18.796875 32.125 18.5 22.953125 
L 10.9375 22.953125 
Q 11.28125 30.953125 15.328125 35.296875 
Q 19.390625 39.65625 25.984375 39.65625 
Q 31.5 39.65625 38.375 35.0625 
Q 45.265625 30.421875 48.6875 30.421875 
Q 51.90625 30.421875 53.8125 32.953125 
Q 55.71875 35.5 55.8125 39.703125 
z
" id="MicrosoftYaHei-126"/>
     <path d="M 28.71875 83.84375 
L 36.328125 81.109375 
Q 34.234375 77.09375 31.84375 73.296875 
L 85.359375 73.296875 
L 85.359375 66.15625 
Q 75.296875 53.5625 59.46875 44.234375 
Q 76.265625 36.96875 99.609375 35.40625 
Q 96.390625 30.515625 94.140625 26.609375 
Q 68.5625 30.421875 51.125 39.75 
Q 31.59375 30.078125 4.6875 24.65625 
Q 2.640625 28.5625 0.484375 32.171875 
Q 24.859375 35.984375 43.359375 44.4375 
Q 31.890625 52.296875 24.8125 63.09375 
Q 17.78125 53.8125 8.890625 45.5625 
Q 6.25 48.78125 3.515625 51.21875 
Q 20.125 65.484375 28.71875 83.84375 
z
M 17.1875 26.03125 
L 83.796875 26.03125 
L 83.796875 -12.546875 
L 76.171875 -12.546875 
L 76.171875 -6.890625 
L 24.8125 -6.890625 
L 24.8125 -12.546875 
L 17.1875 -12.546875 
z
M 76.171875 19 
L 24.8125 19 
L 24.8125 -0.046875 
L 76.171875 -0.046875 
z
M 74.90625 66.265625 
L 31.0625 66.265625 
Q 38.96875 55.421875 51.171875 48.34375 
Q 64.890625 55.859375 74.90625 66.265625 
z
" id="MicrosoftYaHei-21508"/>
     <path d="M 1.859375 0.734375 
L 33.203125 0.734375 
L 33.203125 81.390625 
L 41.40625 81.390625 
L 41.40625 0.734375 
L 58.5 0.734375 
L 58.5 81.390625 
L 66.703125 81.390625 
L 66.703125 0.734375 
L 98.34375 0.734375 
L 98.34375 -6.5 
L 1.859375 -6.5 
z
M 13.1875 62.25 
Q 21.1875 43.40625 28.71875 22.21875 
L 20.703125 18.609375 
Q 14.15625 39.203125 6.0625 59.125 
z
M 70.21875 21.34375 
Q 79.984375 42.046875 86.625 61.375 
L 94.53125 58.25 
Q 85.453125 34.90625 77.25 18.109375 
z
" id="MicrosoftYaHei-19994"/>
     <path d="M 7.328125 78.078125 
L 92.78125 78.078125 
L 92.78125 -13.03125 
L 85.25 -13.03125 
L 85.25 -8.15625 
L 14.84375 -8.15625 
L 14.84375 -13.140625 
L 7.328125 -13.140625 
z
M 85.25 71.140625 
L 14.84375 71.140625 
L 14.84375 -1.21875 
L 85.25 -1.21875 
z
M 19.34375 15.765625 
L 46.296875 15.765625 
L 46.296875 35.109375 
L 22.75 35.109375 
L 22.75 41.75 
L 46.296875 41.75 
L 46.296875 54.828125 
L 20.90625 54.828125 
L 20.90625 61.46875 
L 79.109375 61.46875 
L 79.109375 54.828125 
L 53.515625 54.828125 
L 53.515625 41.75 
L 77.15625 41.75 
L 77.15625 35.109375 
L 53.515625 35.109375 
L 53.515625 15.765625 
L 80.671875 15.765625 
L 80.671875 9.125 
L 19.34375 9.125 
z
M 58.59375 28.859375 
L 64.0625 32.953125 
Q 69.4375 27.390625 73.25 22.515625 
L 67.484375 18.109375 
Q 62.796875 24.46875 58.59375 28.859375 
z
" id="MicrosoftYaHei-22269"/>
     <path d="M 41.109375 75.25 
Q 66.5 75.34375 93.359375 79.34375 
L 96 71.734375 
Q 66.890625 68.703125 48.734375 68.3125 
L 48.734375 45.5625 
L 98.4375 45.5625 
L 98.4375 38.328125 
L 80.671875 38.328125 
L 80.671875 -12.84375 
L 72.859375 -12.84375 
L 72.859375 38.328125 
L 48.734375 38.328125 
Q 48.484375 3.171875 35.15625 -13.421875 
Q 32.515625 -10.5 29 -7.375 
Q 41.109375 6.890625 41.109375 38.234375 
z
M 1.171875 30.515625 
Q 8.015625 32.375 15.828125 34.625 
L 15.828125 56.109375 
L 2.828125 56.109375 
L 2.828125 62.84375 
L 15.828125 62.84375 
L 15.828125 82.171875 
L 23.4375 82.171875 
L 23.4375 62.84375 
L 35.546875 62.84375 
L 35.546875 56.109375 
L 23.4375 56.109375 
L 23.4375 36.921875 
Q 28.65625 38.484375 34.28125 40.28125 
Q 34.375 35.296875 34.46875 32.46875 
Q 30.03125 31.203125 23.4375 29.15625 
L 23.4375 -0.34375 
Q 23.4375 -10.984375 14.65625 -11.28125 
Q 10.15625 -11.46875 4.109375 -11.375 
Q 3.515625 -7.28125 2.828125 -3.171875 
Q 8.6875 -3.765625 11.8125 -3.765625 
Q 15.828125 -3.765625 15.828125 1.03125 
L 15.828125 26.703125 
Q 9.71875 24.75 2.25 22.3125 
z
" id="MicrosoftYaHei-25240"/>
     <path d="M 30.765625 -5.421875 
Q 49.125 1.171875 62.546875 9.859375 
Q 59.078125 18.703125 57.078125 30.8125 
L 36.234375 27.875 
L 35.0625 34.90625 
L 56.109375 37.84375 
Q 55.28125 44.671875 54.890625 52.4375 
L 37.203125 50.4375 
L 36.03125 57.46875 
L 54.5 59.515625 
Q 53.953125 69.671875 53.515625 82.859375 
L 61.53125 82.859375 
Q 61.765625 70.265625 62.15625 60.40625 
L 94.828125 64.109375 
L 95.703125 57.171875 
L 62.453125 53.328125 
Q 62.796875 45.609375 63.578125 38.875 
L 97.265625 43.609375 
L 98.140625 36.671875 
L 64.5 31.890625 
Q 66.15625 21.78125 69 14.3125 
Q 79.34375 22.125 86.234375 31.390625 
L 92.578125 26.609375 
Q 83.796875 16.015625 72.171875 7.421875 
Q 75.921875 0.6875 81.15625 -2.875 
Q 87.59375 -6.6875 89.453125 1.03125 
Q 90.71875 7.28125 91.5 14.890625 
Q 96 12.9375 99.03125 12.0625 
Q 97.359375 1.515625 95.703125 -3.859375 
Q 92.875 -12.15625 86.03125 -12.15625 
Q 78.90625 -12.15625 72.859375 -6.296875 
Q 68.890625 -2.546875 65.765625 3.03125 
Q 52.34375 -5.671875 35.640625 -12.0625 
Q 33.890625 -9.328125 30.765625 -5.421875 
z
M 14.0625 24.078125 
Q 22.75 25.34375 34.578125 27.390625 
Q 33.984375 23.78125 33.6875 19.875 
Q 17.390625 17.328125 5.078125 15.28125 
L 3.515625 22.609375 
Q 10.296875 29.890625 18.40625 43.359375 
Q 10.5 42.921875 3.515625 42.234375 
L 1.65625 48.875 
Q 10.75 61.28125 20.3125 83.640625 
L 27.734375 80.71875 
Q 17.671875 60.890625 10.453125 49.46875 
Q 16.265625 49.65625 22.21875 49.90625 
Q 25.59375 55.90625 29.203125 62.9375 
L 36.421875 59.328125 
Q 24.515625 38.71875 14.0625 24.078125 
z
M 1.65625 1.515625 
Q 18.84375 5.21875 36.421875 9.625 
Q 36.140625 5.71875 36.140625 2.203125 
Q 19.828125 -1.609375 3.8125 -5.90625 
z
M 69.734375 77.6875 
L 73.921875 82.5625 
Q 80.859375 78.171875 88.765625 72.015625 
L 84.078125 66.359375 
Q 75.984375 73.296875 69.734375 77.6875 
z
" id="MicrosoftYaHei-32447"/>
     <path d="M 6.734375 79.25 
L 92.875 79.25 
L 92.875 -12.640625 
L 85.546875 -12.640625 
L 85.546875 -7.953125 
L 14.0625 -7.953125 
L 14.0625 -12.640625 
L 6.734375 -12.640625 
z
M 85.546875 72.21875 
L 14.0625 72.21875 
L 14.0625 -0.921875 
L 85.546875 -0.921875 
z
M 17.390625 48.296875 
Q 30.765625 57.953125 39.359375 71.046875 
L 45.796875 68.015625 
Q 44 65.328125 41.890625 62.75 
L 76.46875 62.75 
L 76.46875 56.984375 
Q 69.28125 48.296875 58.15625 41.3125 
Q 68.453125 37.84375 83.40625 35.890625 
Q 81.15625 31.5 80.171875 28.5625 
Q 62.84375 32.515625 50.875 37.5 
Q 38.921875 32.125 19.140625 27 
Q 17.78125 30.21875 15.828125 33.25 
Q 32.953125 36.765625 44.140625 41.3125 
Q 37.25 46.046875 32.28125 52.203125 
Q 27.640625 47.75 22.171875 43.5 
Q 20.21875 45.5625 17.390625 48.296875 
z
M 24.421875 10.5 
L 26.46875 17.234375 
Q 50.875 14.015625 73.4375 9.71875 
L 70.796875 2.296875 
Q 49.21875 7.078125 24.421875 10.5 
z
M 66.796875 56.6875 
L 36.671875 56.6875 
Q 36.53125 56.5 36.375 56.34375 
Q 42.046875 49.078125 50.6875 44.390625 
Q 60.796875 49.8125 66.796875 56.6875 
z
M 34.671875 23.484375 
L 36.625 30.03125 
Q 50.984375 27.875 66.796875 25.140625 
L 64.75 18.3125 
Q 48.734375 21.53125 34.671875 23.484375 
z
" id="MicrosoftYaHei-22270"/>
    </defs>
    <g transform="translate(166.602187 54.48)scale(0.12 -0.12)">
     <use xlink:href="#MicrosoftYaHei-50"/>
     <use x="58.642578" xlink:href="#MicrosoftYaHei-48"/>
     <use x="117.285156" xlink:href="#MicrosoftYaHei-48"/>
     <use x="175.927734" xlink:href="#MicrosoftYaHei-48"/>
     <use x="234.570312" xlink:href="#MicrosoftYaHei-126"/>
     <use x="308.740234" xlink:href="#MicrosoftYaHei-50"/>
     <use x="367.382812" xlink:href="#MicrosoftYaHei-48"/>
     <use x="426.025391" xlink:href="#MicrosoftYaHei-49"/>
     <use x="484.667969" xlink:href="#MicrosoftYaHei-55"/>
     <use x="543.310547" xlink:href="#MicrosoftYaHei-24180"/>
     <use x="643.310547" xlink:href="#MicrosoftYaHei-21508"/>
     <use x="743.310547" xlink:href="#MicrosoftYaHei-20135"/>
     <use x="843.310547" xlink:href="#MicrosoftYaHei-19994"/>
     <use x="943.310547" xlink:href="#MicrosoftYaHei-21508"/>
     <use x="1043.310547" xlink:href="#MicrosoftYaHei-23395"/>
     <use x="1143.310547" xlink:href="#MicrosoftYaHei-24230"/>
     <use x="1243.310547" xlink:href="#MicrosoftYaHei-22269"/>
     <use x="1343.310547" xlink:href="#MicrosoftYaHei-27665"/>
     <use x="1443.310547" xlink:href="#MicrosoftYaHei-29983"/>
     <use x="1543.310547" xlink:href="#MicrosoftYaHei-20135"/>
     <use x="1643.310547" xlink:href="#MicrosoftYaHei-24635"/>
     <use x="1743.310547" xlink:href="#MicrosoftYaHei-20540"/>
     <use x="1843.310547" xlink:href="#MicrosoftYaHei-25240"/>
     <use x="1943.310547" xlink:href="#MicrosoftYaHei-32447"/>
     <use x="2043.310547" xlink:href="#MicrosoftYaHei-22270"/>
    </g>
   </g>
   <g id="legend_1">
    <g id="patch_7">
     <path d="M 79 114.919062 
L 151 114.919062 
Q 153 114.919062 153 112.919062 
L 153 67.48 
Q 153 65.48 151 65.48 
L 79 65.48 
Q 77 65.48 77 67.48 
L 77 112.919062 
Q 77 114.919062 79 114.919062 
z
" style="fill:#ffffff;opacity:0.8;stroke:#cccccc;stroke-linejoin:miter;"/>
    </g>
    <g id="line2d_28">
     <path d="M 81 73.97375 
L 101 73.97375 
" style="fill:none;stroke:#0000ff;stroke-linecap:square;stroke-width:1.5;"/>
    </g>
    <g id="line2d_29">
     <g>
      <use style="fill:#0000ff;stroke:#0000ff;stroke-linejoin:miter;" x="91" xlink:href="#m17dacced0b" y="73.97375"/>
     </g>
    </g>
    <g id="text_28">
     <!-- 第一产业 -->
     <g transform="translate(109 77.47375)scale(0.1 -0.1)">
      <use xlink:href="#MicrosoftYaHei-31532"/>
      <use x="100" xlink:href="#MicrosoftYaHei-19968"/>
      <use x="200" xlink:href="#MicrosoftYaHei-20135"/>
      <use x="300" xlink:href="#MicrosoftYaHei-19994"/>
     </g>
    </g>
    <g id="line2d_30">
     <path d="M 81 89.453438 
L 101 89.453438 
" style="fill:none;stroke:#ff0000;stroke-dasharray:9.6,2.4,1.5,2.4;stroke-dashoffset:0;stroke-width:1.5;"/>
    </g>
    <g id="line2d_31">
     <g>
      <use style="fill:#ff0000;stroke:#ff0000;" x="91" xlink:href="#m7b9d393718" y="89.453438"/>
     </g>
    </g>
    <g id="text_29">
     <!-- 第二产业 -->
     <defs>
      <path d="M 10.15625 70.5625 
L 89.84375 70.5625 
L 89.84375 62.15625 
L 10.15625 62.15625 
z
M 2.9375 6.59375 
L 96.78125 6.59375 
L 96.78125 -1.609375 
L 2.9375 -1.609375 
z
" id="MicrosoftYaHei-20108"/>
     </defs>
     <g transform="translate(109 92.953438)scale(0.1 -0.1)">
      <use xlink:href="#MicrosoftYaHei-31532"/>
      <use x="100" xlink:href="#MicrosoftYaHei-20108"/>
      <use x="200" xlink:href="#MicrosoftYaHei-20135"/>
      <use x="300" xlink:href="#MicrosoftYaHei-19994"/>
     </g>
    </g>
    <g id="line2d_32">
     <path d="M 81 104.933125 
L 101 104.933125 
" style="fill:none;stroke:#008000;stroke-dasharray:5.55,2.4;stroke-dashoffset:0;stroke-width:1.5;"/>
    </g>
    <g id="line2d_33">
     <g>
      <use style="fill:#008000;stroke:#008000;stroke-linejoin:miter;" x="91" xlink:href="#m131a769867" y="104.933125"/>
     </g>
    </g>
    <g id="text_30">
     <!-- 第三产业 -->
     <defs>
      <path d="M 8.984375 73.296875 
L 90.828125 73.296875 
L 90.828125 64.890625 
L 8.984375 64.890625 
z
M 2.9375 2.59375 
L 97.265625 2.59375 
L 97.265625 -5.609375 
L 2.9375 -5.609375 
z
M 13.375 39.796875 
L 86.421875 39.796875 
L 86.421875 31.5 
L 13.375 31.5 
z
" id="MicrosoftYaHei-19977"/>
     </defs>
     <g transform="translate(109 108.433125)scale(0.1 -0.1)">
      <use xlink:href="#MicrosoftYaHei-31532"/>
      <use x="100" xlink:href="#MicrosoftYaHei-19977"/>
      <use x="200" xlink:href="#MicrosoftYaHei-20135"/>
      <use x="300" xlink:href="#MicrosoftYaHei-19994"/>
     </g>
    </g>
   </g>
  </g>
 </g>
 <defs>
  <clipPath id="p9fd0c3e6b5">
   <rect height="380.52" width="446.4" x="72" y="60.48"/>
  </clipPath>
 </defs>
</svg>
